<svg width="84" height="43" viewBox="0 0 84 43" fill="none" xmlns="http://www.w3.org/2000/svg">
<path d="M15.8261 12.7826H19.0435V15.9783H15.8261V12.7826Z" fill="#B2B6F4"/>
<path d="M15.8261 15.9783H19.0435V19.1739H15.8261V15.9783Z" fill="#B2B6F4"/>
<path d="M51.2174 22.3696H54.4348V25.5652H51.2174V22.3696Z" fill="#B2B6F4"/>
<path d="M51.2174 19.1739H54.4348V22.3696H51.2174V19.1739Z" fill="white"/>
<path d="M51.2174 15.9783H54.4348V19.1739H51.2174V15.9783Z" fill="white"/>
<path d="M51.2174 12.7826H54.4348V15.9783H51.2174V12.7826Z" fill="white"/>
<path d="M54.4348 12.7826H57.6522V15.9783H54.4348V12.7826Z" fill="white"/>
<path d="M54.4348 15.9783H57.6522V19.1739H54.4348V15.9783Z" fill="white"/>
<path d="M51.2174 9.58696H54.4348V12.7826H51.2174V9.58696Z" fill="#B2B6F4"/>
<path d="M48 6.3913H51.2174V9.58696H48V6.3913Z" fill="white"/>
<path d="M44.7826 6.3913H48V9.58696H44.7826V6.3913Z" fill="white"/>
<path d="M41.5652 6.3913H44.7826V9.58696H41.5652V6.3913Z" fill="white"/>
<path d="M38.3478 6.3913H41.5652V9.58696H38.3478V6.3913Z" fill="white"/>
<path d="M35.1304 6.3913H38.3478V9.58696H35.1304V6.3913Z" fill="white"/>
<path d="M31.913 6.3913H35.1304V9.58696H31.913V6.3913Z" fill="white"/>
<path d="M28.6956 6.3913H31.913V9.58696H28.6956V6.3913Z" fill="white"/>
<path d="M25.4783 6.3913H28.6956V9.58696H25.4783V6.3913Z" fill="white"/>
<path d="M22.2609 6.3913H25.4783V9.58696H22.2609V6.3913Z" fill="white"/>
<path d="M31.913 0H35.1304V3.19565H31.913V0Z" fill="#B2B6F4"/>
<path d="M35.1304 0H38.3478V3.19565H35.1304V0Z" fill="#B2B6F4"/>
<path d="M38.3478 0H41.5652V3.19565H38.3478V0Z" fill="#B2B6F4"/>
<path d="M41.5652 0H44.7826V3.19565H41.5652V0Z" fill="#B2B6F4"/>
<path d="M44.7826 3.19565H48V6.3913H44.7826V3.19565Z" fill="white"/>
<path d="M41.5652 3.19565H44.7826V6.3913H41.5652V3.19565Z" fill="white"/>
<path d="M38.3478 3.19565H41.5652V6.3913H38.3478V3.19565Z" fill="white"/>
<path d="M35.1304 3.19565H38.3478V6.3913H35.1304V3.19565Z" fill="white"/>
<path d="M31.913 3.19565H35.1304V6.3913H31.913V3.19565Z" fill="white"/>
<path d="M28.6956 3.19565H31.913V6.3913H28.6956V3.19565Z" fill="white"/>
<path d="M19.0435 9.58696H22.2609V12.7826H19.0435V9.58696Z" fill="white"/>
<path d="M22.2609 9.58696H25.4783V12.7826H22.2609V9.58696Z" fill="white"/>
<path d="M25.4783 9.58696H28.6956V12.7826H25.4783V9.58696Z" fill="white"/>
<path d="M28.6956 9.58696H31.913V12.7826H28.6956V9.58696Z" fill="white"/>
<path d="M31.913 9.58696H35.1304V12.7826H31.913V9.58696Z" fill="white"/>
<path d="M35.1304 9.58696H38.3478V12.7826H35.1304V9.58696Z" fill="white"/>
<path d="M38.3478 9.58696H41.5652V12.7826H38.3478V9.58696Z" fill="white"/>
<path d="M41.5652 9.58696H44.7826V12.7826H41.5652V9.58696Z" fill="white"/>
<path d="M44.7826 9.58696H48V12.7826H44.7826V9.58696Z" fill="white"/>
<path d="M19.0435 12.7826H22.2609V15.9783H19.0435V12.7826Z" fill="white"/>
<path d="M19.0435 15.9783H22.2609V19.1739H19.0435V15.9783Z" fill="white"/>
<path d="M19.0435 19.1739H22.2609V22.3696H19.0435V19.1739Z" fill="white"/>
<path d="M22.2609 22.3696H25.4783V25.5652H22.2609V22.3696Z" fill="#B2B6F4"/>
<path d="M25.4783 22.3696H28.6956V25.5652H25.4783V22.3696Z" fill="#B2B6F4"/>
<path d="M28.6956 22.3696H31.913V25.5652H28.6956V22.3696Z" fill="#B2B6F4"/>
<path d="M31.913 22.3696H35.1304V25.5652H31.913V22.3696Z" fill="#B2B6F4"/>
<path d="M35.1304 22.3696H38.3478V25.5652H35.1304V22.3696Z" fill="#B2B6F4"/>
<path d="M38.3478 22.3696H41.5652V25.5652H38.3478V22.3696Z" fill="#B2B6F4"/>
<path d="M41.5652 22.3696H44.7826V25.5652H41.5652V22.3696Z" fill="#B2B6F4"/>
<path d="M44.7826 22.3696H48V25.5652H44.7826V22.3696Z" fill="#B2B6F4"/>
<path d="M48 22.3696H51.2174V25.5652H48V22.3696Z" fill="#B2B6F4"/>
<path d="M48 19.1739H51.2174V22.3696H48V19.1739Z" fill="white"/>
<path d="M48 15.9783H51.2174V19.1739H48V15.9783Z" fill="white"/>
<path d="M48 12.7826H51.2174V15.9783H48V12.7826Z" fill="white"/>
<path d="M48 9.58696H51.2174V12.7826H48V9.58696Z" fill="white"/>
<path d="M44.7826 12.7826H48V15.9783H44.7826V12.7826Z" fill="white"/>
<path d="M41.5652 15.9783H44.7826V19.1739H41.5652V15.9783Z" fill="white"/>
<path d="M44.7826 15.9783H48V19.1739H44.7826V15.9783Z" fill="white"/>
<path d="M38.3478 15.9783H41.5652V19.1739H38.3478V15.9783Z" fill="white"/>
<path d="M35.1304 15.9783H38.3478V19.1739H35.1304V15.9783Z" fill="white"/>
<path d="M31.913 15.9783H35.1304V19.1739H31.913V15.9783Z" fill="white"/>
<path d="M28.6956 15.9783H31.913V19.1739H28.6956V15.9783Z" fill="white"/>
<path d="M25.4783 15.9783H28.6956V19.1739H25.4783V15.9783Z" fill="white"/>
<path d="M22.2609 19.1739H25.4783V22.3696H22.2609V19.1739Z" fill="white"/>
<path d="M25.4783 19.1739H28.6956V22.3696H25.4783V19.1739Z" fill="white"/>
<path d="M28.6956 19.1739H31.913V22.3696H28.6956V19.1739Z" fill="white"/>
<path d="M31.913 19.1739H35.1304V22.3696H31.913V19.1739Z" fill="white"/>
<path d="M35.1304 19.1739H38.3478V22.3696H35.1304V19.1739Z" fill="white"/>
<path d="M38.3478 19.1739H41.5652V22.3696H38.3478V19.1739Z" fill="white"/>
<path d="M41.5652 19.1739H44.7826V22.3696H41.5652V19.1739Z" fill="white"/>
<path d="M44.7826 19.1739H48V22.3696H44.7826V19.1739Z" fill="white"/>
<path d="M41.5652 12.7826H44.7826V15.9783H41.5652V12.7826Z" fill="white"/>
<path d="M38.3478 12.7826H41.5652V15.9783H38.3478V12.7826Z" fill="white"/>
<path d="M31.913 12.7826H35.1304V15.9783H31.913V12.7826Z" fill="white"/>
<path d="M28.6956 12.7826H31.913V15.9783H28.6956V12.7826Z" fill="white"/>
<path d="M35.1304 12.7826H38.3478V15.9783H35.1304V12.7826Z" fill="white"/>
<path d="M25.4783 12.7826H28.6956V15.9783H25.4783V12.7826Z" fill="white"/>
<path d="M22.2609 12.7826H25.4783V15.9783H22.2609V12.7826Z" fill="white"/>
<path d="M22.2609 15.9783H25.4783V19.1739H22.2609V15.9783Z" fill="white"/>
<path d="M35.1304 22.3696H38.3478V25.5652H35.1304V22.3696Z" fill="#B2B6F4"/>
<path d="M38.3478 22.3696H41.5652V25.5652H38.3478V22.3696Z" fill="#B2B6F4"/>
<path d="M41.5652 22.3696H44.7826V25.5652H41.5652V22.3696Z" fill="#B2B6F4"/>
<path d="M44.7826 22.3696H48V25.5652H44.7826V22.3696Z" fill="#B2B6F4"/>
<path d="M48 22.3696H51.2174V25.5652H48V22.3696Z" fill="#B2B6F4"/>
<path d="M51.2174 22.3696H54.4348V25.5652H51.2174V22.3696Z" fill="#B2B6F4"/>
<path d="M54.4348 19.1739H57.6522V22.3696H54.4348V19.1739Z" fill="#B2B6F4"/>
<path d="M57.6522 15.9783H60.8696V19.1739H57.6522V15.9783Z" fill="#B2B6F4"/>
<path d="M57.6522 12.7826H60.8696V15.9783H57.6522V12.7826Z" fill="#B2B6F4"/>
<path d="M54.4348 9.58696H57.6522V12.7826H54.4348V9.58696Z" fill="#B2B6F4"/>
<path d="M48 6.3913H51.2174V9.58696H48V6.3913Z" fill="#B2B6F4"/>
<path d="M51.2174 9.58696H54.4348V12.7826H51.2174V9.58696Z" fill="#B2B6F4"/>
<path d="M44.7826 3.19565H48V6.3913H44.7826V3.19565Z" fill="#B2B6F4"/>
<path d="M41.5652 0H44.7826V3.19565H41.5652V0Z" fill="#B2B6F4"/>
<path d="M38.3478 0H41.5652V3.19565H38.3478V0Z" fill="#B2B6F4"/>
<path d="M35.1304 0H38.3478V3.19565H35.1304V0Z" fill="#B2B6F4"/>
<path d="M31.913 0H35.1304V3.19565H31.913V0Z" fill="#B2B6F4"/>
<path d="M28.6956 3.19565H31.913V6.3913H28.6956V3.19565Z" fill="#B2B6F4"/>
<path d="M25.4783 6.3913H28.6956V9.58696H25.4783V6.3913Z" fill="#B2B6F4"/>
<path d="M22.2609 6.3913H25.4783V9.58696H22.2609V6.3913Z" fill="#B2B6F4"/>
<path d="M19.0435 9.58696H22.2609V12.7826H19.0435V9.58696Z" fill="#B2B6F4"/>
<path d="M15.8261 12.7826H19.0435V15.9783H15.8261V12.7826Z" fill="#B2B6F4"/>
<path d="M15.8261 15.9783H19.0435V19.1739H15.8261V15.9783Z" fill="#B2B6F4"/>
<path d="M19.0435 19.1739H22.2609V22.3696H19.0435V19.1739Z" fill="#B2B6F4"/>
<path d="M22.2609 22.3696H25.4783V25.5652H22.2609V22.3696Z" fill="#B2B6F4"/>
<path d="M25.4783 22.3696H28.6956V25.5652H25.4783V22.3696Z" fill="#B2B6F4"/>
<path d="M22.2609 19.1739H25.4783V22.3696H22.2609V19.1739Z" fill="#DAD7FF"/>
<path d="M19.0435 15.9783H22.2609V19.1739H19.0435V15.9783Z" fill="#DAD7FF"/>
<path d="M28.6956 9.58696H31.913V12.7826H28.6956V9.58696Z" fill="#DAD7FF"/>
<path d="M31.913 12.7826H35.1304V15.9783H31.913V12.7826Z" fill="#DAD7FF"/>
<path d="M44.7826 12.7826H48V15.9783H44.7826V12.7826Z" fill="#DAD7FF"/>
<path d="M48 9.58696H51.2174V12.7826H48V9.58696Z" fill="#DAD7FF"/>
<path d="M41.5652 15.9783H44.7826V19.1739H41.5652V15.9783Z" fill="#DAD7FF"/>
<path d="M28.6956 22.3696H31.913V25.5652H28.6956V22.3696Z" fill="#B2B6F4"/>
<path d="M31.913 22.3696H35.1304V25.5652H31.913V22.3696Z" fill="#B2B6F4"/>
<path d="M0 29.8261H3.21739V33.0217H0V29.8261Z" fill="#63C7DD"/>
<path d="M0 33.0217H3.21739V36.2174H0V33.0217Z" fill="#63C7DD"/>
<path d="M35.3913 39.4131H38.6087V42.6087H35.3913V39.4131Z" fill="#63C7DD"/>
<path d="M35.3913 36.2174H38.6087V39.4131H35.3913V36.2174Z" fill="white"/>
<path d="M35.3913 33.0217H38.6087V36.2174H35.3913V33.0217Z" fill="white"/>
<path d="M35.3913 29.8261H38.6087V33.0217H35.3913V29.8261Z" fill="white"/>
<path d="M38.6087 29.8261H41.8261V33.0217H38.6087V29.8261Z" fill="white"/>
<path d="M38.6087 33.0217H41.8261V36.2174H38.6087V33.0217Z" fill="white"/>
<path d="M35.3913 26.6304H38.6087V29.8261H35.3913V26.6304Z" fill="#63C7DD"/>
<path d="M32.1739 23.4348H35.3913V26.6304H32.1739V23.4348Z" fill="white"/>
<path d="M28.9565 23.4348H32.1739V26.6304H28.9565V23.4348Z" fill="white"/>
<path d="M25.7391 23.4348H28.9565V26.6304H25.7391V23.4348Z" fill="white"/>
<path d="M22.5217 23.4348H25.7391V26.6304H22.5217V23.4348Z" fill="white"/>
<path d="M19.3043 23.4348H22.5217V26.6304H19.3043V23.4348Z" fill="white"/>
<path d="M16.087 23.4348H19.3043V26.6304H16.087V23.4348Z" fill="white"/>
<path d="M12.8696 23.4348H16.087V26.6304H12.8696V23.4348Z" fill="white"/>
<path d="M9.65217 23.4348H12.8696V26.6304H9.65217V23.4348Z" fill="white"/>
<path d="M6.43478 23.4348H9.65217V26.6304H6.43478V23.4348Z" fill="white"/>
<path d="M16.087 17.0435H19.3043V20.2391H16.087V17.0435Z" fill="#63C7DD"/>
<path d="M19.3043 17.0435H22.5217V20.2391H19.3043V17.0435Z" fill="#63C7DD"/>
<path d="M22.5217 17.0435H25.7391V20.2391H22.5217V17.0435Z" fill="#63C7DD"/>
<path d="M25.7391 17.0435H28.9565V20.2391H25.7391V17.0435Z" fill="#63C7DD"/>
<path d="M28.9565 20.2391H32.1739V23.4348H28.9565V20.2391Z" fill="white"/>
<path d="M25.7391 20.2391H28.9565V23.4348H25.7391V20.2391Z" fill="white"/>
<path d="M22.5217 20.2391H25.7391V23.4348H22.5217V20.2391Z" fill="white"/>
<path d="M19.3043 20.2391H22.5217V23.4348H19.3043V20.2391Z" fill="white"/>
<path d="M16.087 20.2391H19.3043V23.4348H16.087V20.2391Z" fill="white"/>
<path d="M12.8696 20.2391H16.087V23.4348H12.8696V20.2391Z" fill="white"/>
<path d="M3.21739 26.6304H6.43478V29.8261H3.21739V26.6304Z" fill="white"/>
<path d="M6.43478 26.6304H9.65217V29.8261H6.43478V26.6304Z" fill="white"/>
<path d="M9.65217 26.6304H12.8696V29.8261H9.65217V26.6304Z" fill="white"/>
<path d="M12.8696 26.6304H16.087V29.8261H12.8696V26.6304Z" fill="white"/>
<path d="M16.087 26.6304H19.3043V29.8261H16.087V26.6304Z" fill="white"/>
<path d="M19.3043 26.6304H22.5217V29.8261H19.3043V26.6304Z" fill="white"/>
<path d="M22.5217 26.6304H25.7391V29.8261H22.5217V26.6304Z" fill="white"/>
<path d="M25.7391 26.6304H28.9565V29.8261H25.7391V26.6304Z" fill="white"/>
<path d="M28.9565 26.6304H32.1739V29.8261H28.9565V26.6304Z" fill="white"/>
<path d="M3.21739 29.8261H6.43478V33.0217H3.21739V29.8261Z" fill="white"/>
<path d="M3.21739 33.0217H6.43478V36.2174H3.21739V33.0217Z" fill="white"/>
<path d="M3.21739 36.2174H6.43478V39.4131H3.21739V36.2174Z" fill="white"/>
<path d="M6.43478 39.4131H9.65217V42.6087H6.43478V39.4131Z" fill="#63C7DD"/>
<path d="M9.65217 39.4131H12.8696V42.6087H9.65217V39.4131Z" fill="#63C7DD"/>
<path d="M12.8696 39.4131H16.087V42.6087H12.8696V39.4131Z" fill="#63C7DD"/>
<path d="M16.087 39.4131H19.3043V42.6087H16.087V39.4131Z" fill="#63C7DD"/>
<path d="M19.3043 39.4131H22.5217V42.6087H19.3043V39.4131Z" fill="#63C7DD"/>
<path d="M22.5217 39.4131H25.7391V42.6087H22.5217V39.4131Z" fill="#63C7DD"/>
<path d="M25.7391 39.4131H28.9565V42.6087H25.7391V39.4131Z" fill="#63C7DD"/>
<path d="M28.9565 39.4131H32.1739V42.6087H28.9565V39.4131Z" fill="#63C7DD"/>
<path d="M32.1739 39.4131H35.3913V42.6087H32.1739V39.4131Z" fill="#63C7DD"/>
<path d="M32.1739 36.2174H35.3913V39.4131H32.1739V36.2174Z" fill="white"/>
<path d="M32.1739 33.0217H35.3913V36.2174H32.1739V33.0217Z" fill="white"/>
<path d="M32.1739 29.8261H35.3913V33.0217H32.1739V29.8261Z" fill="white"/>
<path d="M32.1739 26.6304H35.3913V29.8261H32.1739V26.6304Z" fill="white"/>
<path d="M28.9565 29.8261H32.1739V33.0217H28.9565V29.8261Z" fill="white"/>
<path d="M25.7391 33.0217H28.9565V36.2174H25.7391V33.0217Z" fill="white"/>
<path d="M28.9565 33.0217H32.1739V36.2174H28.9565V33.0217Z" fill="white"/>
<path d="M22.5217 33.0217H25.7391V36.2174H22.5217V33.0217Z" fill="white"/>
<path d="M19.3043 33.0217H22.5217V36.2174H19.3043V33.0217Z" fill="white"/>
<path d="M16.087 33.0217H19.3043V36.2174H16.087V33.0217Z" fill="white"/>
<path d="M12.8696 33.0217H16.087V36.2174H12.8696V33.0217Z" fill="white"/>
<path d="M9.65217 33.0217H12.8696V36.2174H9.65217V33.0217Z" fill="white"/>
<path d="M6.43478 36.2174H9.65217V39.4131H6.43478V36.2174Z" fill="white"/>
<path d="M9.65217 36.2174H12.8696V39.4131H9.65217V36.2174Z" fill="white"/>
<path d="M12.8696 36.2174H16.087V39.4131H12.8696V36.2174Z" fill="white"/>
<path d="M16.087 36.2174H19.3043V39.4131H16.087V36.2174Z" fill="white"/>
<path d="M19.3043 36.2174H22.5217V39.4131H19.3043V36.2174Z" fill="white"/>
<path d="M22.5217 36.2174H25.7391V39.4131H22.5217V36.2174Z" fill="white"/>
<path d="M25.7391 36.2174H28.9565V39.4131H25.7391V36.2174Z" fill="white"/>
<path d="M28.9565 36.2174H32.1739V39.4131H28.9565V36.2174Z" fill="white"/>
<path d="M25.7391 29.8261H28.9565V33.0217H25.7391V29.8261Z" fill="white"/>
<path d="M22.5217 29.8261H25.7391V33.0217H22.5217V29.8261Z" fill="white"/>
<path d="M16.087 29.8261H19.3043V33.0217H16.087V29.8261Z" fill="white"/>
<path d="M12.8696 29.8261H16.087V33.0217H12.8696V29.8261Z" fill="white"/>
<path d="M19.3043 29.8261H22.5217V33.0217H19.3043V29.8261Z" fill="white"/>
<path d="M9.65217 29.8261H12.8696V33.0217H9.65217V29.8261Z" fill="white"/>
<path d="M6.43478 29.8261H9.65217V33.0217H6.43478V29.8261Z" fill="white"/>
<path d="M6.43478 33.0217H9.65217V36.2174H6.43478V33.0217Z" fill="white"/>
<path d="M19.3043 39.4131H22.5217V42.6087H19.3043V39.4131Z" fill="#63C7DD"/>
<path d="M22.5217 39.4131H25.7391V42.6087H22.5217V39.4131Z" fill="#63C7DD"/>
<path d="M25.7391 39.4131H28.9565V42.6087H25.7391V39.4131Z" fill="#63C7DD"/>
<path d="M28.9565 39.4131H32.1739V42.6087H28.9565V39.4131Z" fill="#63C7DD"/>
<path d="M32.1739 39.4131H35.3913V42.6087H32.1739V39.4131Z" fill="#63C7DD"/>
<path d="M35.3913 39.4131H38.6087V42.6087H35.3913V39.4131Z" fill="#63C7DD"/>
<path d="M38.6087 36.2174H41.8261V39.4131H38.6087V36.2174Z" fill="#63C7DD"/>
<path d="M41.8261 33.0217H45.0435V36.2174H41.8261V33.0217Z" fill="#63C7DD"/>
<path d="M41.8261 29.8261H45.0435V33.0217H41.8261V29.8261Z" fill="#63C7DD"/>
<path d="M38.6087 26.6304H41.8261V29.8261H38.6087V26.6304Z" fill="#63C7DD"/>
<path d="M32.1739 23.4348H35.3913V26.6304H32.1739V23.4348Z" fill="#63C7DD"/>
<path d="M35.3913 26.6304H38.6087V29.8261H35.3913V26.6304Z" fill="#63C7DD"/>
<path d="M28.9565 20.2391H32.1739V23.4348H28.9565V20.2391Z" fill="#63C7DD"/>
<path d="M25.7391 17.0435H28.9565V20.2391H25.7391V17.0435Z" fill="#63C7DD"/>
<path d="M22.5217 17.0435H25.7391V20.2391H22.5217V17.0435Z" fill="#63C7DD"/>
<path d="M19.3043 17.0435H22.5217V20.2391H19.3043V17.0435Z" fill="#63C7DD"/>
<path d="M16.087 17.0435H19.3043V20.2391H16.087V17.0435Z" fill="#63C7DD"/>
<path d="M12.8696 20.2391H16.087V23.4348H12.8696V20.2391Z" fill="#63C7DD"/>
<path d="M9.65217 23.4348H12.8696V26.6304H9.65217V23.4348Z" fill="#63C7DD"/>
<path d="M6.43478 23.4348H9.65217V26.6304H6.43478V23.4348Z" fill="#63C7DD"/>
<path d="M3.21739 26.6304H6.43478V29.8261H3.21739V26.6304Z" fill="#63C7DD"/>
<path d="M0 29.8261H3.21739V33.0217H0V29.8261Z" fill="#63C7DD"/>
<path d="M0 33.0217H3.21739V36.2174H0V33.0217Z" fill="#63C7DD"/>
<path d="M3.21739 36.2174H6.43478V39.4131H3.21739V36.2174Z" fill="#63C7DD"/>
<path d="M6.43478 39.4131H9.65217V42.6087H6.43478V39.4131Z" fill="#63C7DD"/>
<path d="M9.65217 39.4131H12.8696V42.6087H9.65217V39.4131Z" fill="#63C7DD"/>
<path d="M6.43478 36.2174H9.65217V39.4131H6.43478V36.2174Z" fill="#A6EDFD"/>
<path d="M3.21739 33.0217H6.43478V36.2174H3.21739V33.0217Z" fill="#A6EDFD"/>
<path d="M12.8696 26.6304H16.087V29.8261H12.8696V26.6304Z" fill="#A6EDFD"/>
<path d="M16.087 29.8261H19.3043V33.0217H16.087V29.8261Z" fill="#A6EDFD"/>
<path d="M28.9565 29.8261H32.1739V33.0217H28.9565V29.8261Z" fill="#A6EDFD"/>
<path d="M32.1739 26.6304H35.3913V29.8261H32.1739V26.6304Z" fill="#A6EDFD"/>
<path d="M25.7391 33.0217H28.9565V36.2174H25.7391V33.0217Z" fill="#A6EDFD"/>
<path d="M12.8696 39.4131H16.087V42.6087H12.8696V39.4131Z" fill="#63C7DD"/>
<path d="M16.087 39.4131H19.3043V42.6087H16.087V39.4131Z" fill="#63C7DD"/>
<path d="M38.9565 26.1739H42.1739V29.3696H38.9565V26.1739Z" fill="#F28B9D"/>
<path d="M38.9565 29.3696H42.1739V32.5652H38.9565V29.3696Z" fill="#F28B9D"/>
<path d="M74.3478 35.7609H77.5652V38.9565H74.3478V35.7609Z" fill="#F28B9D"/>
<path d="M74.3478 32.5652H77.5652V35.7609H74.3478V32.5652Z" fill="white"/>
<path d="M74.3478 29.3696H77.5652V32.5652H74.3478V29.3696Z" fill="white"/>
<path d="M74.3478 26.1739H77.5652V29.3696H74.3478V26.1739Z" fill="white"/>
<path d="M77.5652 26.1739H80.7826V29.3696H77.5652V26.1739Z" fill="white"/>
<path d="M77.5652 29.3696H80.7826V32.5652H77.5652V29.3696Z" fill="white"/>
<path d="M74.3478 22.9783H77.5652V26.1739H74.3478V22.9783Z" fill="#F28B9D"/>
<path d="M71.1304 19.7826H74.3478V22.9783H71.1304V19.7826Z" fill="white"/>
<path d="M67.913 19.7826H71.1304V22.9783H67.913V19.7826Z" fill="white"/>
<path d="M64.6957 19.7826H67.913V22.9783H64.6957V19.7826Z" fill="white"/>
<path d="M61.4783 19.7826H64.6957V22.9783H61.4783V19.7826Z" fill="white"/>
<path d="M58.2609 19.7826H61.4783V22.9783H58.2609V19.7826Z" fill="white"/>
<path d="M55.0435 19.7826H58.2609V22.9783H55.0435V19.7826Z" fill="white"/>
<path d="M51.8261 19.7826H55.0435V22.9783H51.8261V19.7826Z" fill="white"/>
<path d="M48.6087 19.7826H51.8261V22.9783H48.6087V19.7826Z" fill="white"/>
<path d="M45.3913 19.7826H48.6087V22.9783H45.3913V19.7826Z" fill="white"/>
<path d="M55.0435 13.3913H58.2609V16.5869H55.0435V13.3913Z" fill="#F28B9D"/>
<path d="M58.2609 13.3913H61.4783V16.5869H58.2609V13.3913Z" fill="#F28B9D"/>
<path d="M61.4783 13.3913H64.6957V16.5869H61.4783V13.3913Z" fill="#F28B9D"/>
<path d="M64.6957 13.3913H67.913V16.5869H64.6957V13.3913Z" fill="#F28B9D"/>
<path d="M67.913 16.5869H71.1304V19.7826H67.913V16.5869Z" fill="white"/>
<path d="M64.6957 16.5869H67.913V19.7826H64.6957V16.5869Z" fill="white"/>
<path d="M61.4783 16.5869H64.6957V19.7826H61.4783V16.5869Z" fill="white"/>
<path d="M58.2609 16.5869H61.4783V19.7826H58.2609V16.5869Z" fill="white"/>
<path d="M55.0435 16.5869H58.2609V19.7826H55.0435V16.5869Z" fill="white"/>
<path d="M51.8261 16.5869H55.0435V19.7826H51.8261V16.5869Z" fill="white"/>
<path d="M42.1739 22.9783H45.3913V26.1739H42.1739V22.9783Z" fill="white"/>
<path d="M45.3913 22.9783H48.6087V26.1739H45.3913V22.9783Z" fill="white"/>
<path d="M48.6087 22.9783H51.8261V26.1739H48.6087V22.9783Z" fill="white"/>
<path d="M51.8261 22.9783H55.0435V26.1739H51.8261V22.9783Z" fill="white"/>
<path d="M55.0435 22.9783H58.2609V26.1739H55.0435V22.9783Z" fill="white"/>
<path d="M58.2609 22.9783H61.4783V26.1739H58.2609V22.9783Z" fill="white"/>
<path d="M61.4783 22.9783H64.6957V26.1739H61.4783V22.9783Z" fill="white"/>
<path d="M64.6957 22.9783H67.913V26.1739H64.6957V22.9783Z" fill="white"/>
<path d="M67.913 22.9783H71.1304V26.1739H67.913V22.9783Z" fill="white"/>
<path d="M42.1739 26.1739H45.3913V29.3696H42.1739V26.1739Z" fill="white"/>
<path d="M42.1739 29.3696H45.3913V32.5652H42.1739V29.3696Z" fill="white"/>
<path d="M42.1739 32.5652H45.3913V35.7609H42.1739V32.5652Z" fill="white"/>
<path d="M45.3913 35.7609H48.6087V38.9565H45.3913V35.7609Z" fill="#F28B9D"/>
<path d="M48.6087 35.7609H51.8261V38.9565H48.6087V35.7609Z" fill="#F28B9D"/>
<path d="M51.8261 35.7609H55.0435V38.9565H51.8261V35.7609Z" fill="#F28B9D"/>
<path d="M55.0435 35.7609H58.2609V38.9565H55.0435V35.7609Z" fill="#F28B9D"/>
<path d="M58.2609 35.7609H61.4783V38.9565H58.2609V35.7609Z" fill="#F28B9D"/>
<path d="M61.4783 35.7609H64.6957V38.9565H61.4783V35.7609Z" fill="#F28B9D"/>
<path d="M64.6957 35.7609H67.913V38.9565H64.6957V35.7609Z" fill="#F28B9D"/>
<path d="M67.913 35.7609H71.1304V38.9565H67.913V35.7609Z" fill="#F28B9D"/>
<path d="M71.1304 35.7609H74.3478V38.9565H71.1304V35.7609Z" fill="#F28B9D"/>
<path d="M71.1304 32.5652H74.3478V35.7609H71.1304V32.5652Z" fill="white"/>
<path d="M71.1304 29.3696H74.3478V32.5652H71.1304V29.3696Z" fill="white"/>
<path d="M71.1304 26.1739H74.3478V29.3696H71.1304V26.1739Z" fill="white"/>
<path d="M71.1304 22.9783H74.3478V26.1739H71.1304V22.9783Z" fill="white"/>
<path d="M67.913 26.1739H71.1304V29.3696H67.913V26.1739Z" fill="white"/>
<path d="M64.6957 29.3696H67.913V32.5652H64.6957V29.3696Z" fill="white"/>
<path d="M67.913 29.3696H71.1304V32.5652H67.913V29.3696Z" fill="white"/>
<path d="M61.4783 29.3696H64.6957V32.5652H61.4783V29.3696Z" fill="white"/>
<path d="M58.2609 29.3696H61.4783V32.5652H58.2609V29.3696Z" fill="white"/>
<path d="M55.0435 29.3696H58.2609V32.5652H55.0435V29.3696Z" fill="white"/>
<path d="M51.8261 29.3696H55.0435V32.5652H51.8261V29.3696Z" fill="white"/>
<path d="M48.6087 29.3696H51.8261V32.5652H48.6087V29.3696Z" fill="white"/>
<path d="M45.3913 32.5652H48.6087V35.7609H45.3913V32.5652Z" fill="white"/>
<path d="M48.6087 32.5652H51.8261V35.7609H48.6087V32.5652Z" fill="white"/>
<path d="M51.8261 32.5652H55.0435V35.7609H51.8261V32.5652Z" fill="white"/>
<path d="M55.0435 32.5652H58.2609V35.7609H55.0435V32.5652Z" fill="white"/>
<path d="M58.2609 32.5652H61.4783V35.7609H58.2609V32.5652Z" fill="white"/>
<path d="M61.4783 32.5652H64.6957V35.7609H61.4783V32.5652Z" fill="white"/>
<path d="M64.6957 32.5652H67.913V35.7609H64.6957V32.5652Z" fill="white"/>
<path d="M67.913 32.5652H71.1304V35.7609H67.913V32.5652Z" fill="white"/>
<path d="M64.6957 26.1739H67.913V29.3696H64.6957V26.1739Z" fill="white"/>
<path d="M61.4783 26.1739H64.6957V29.3696H61.4783V26.1739Z" fill="white"/>
<path d="M55.0435 26.1739H58.2609V29.3696H55.0435V26.1739Z" fill="white"/>
<path d="M51.8261 26.1739H55.0435V29.3696H51.8261V26.1739Z" fill="white"/>
<path d="M58.2609 26.1739H61.4783V29.3696H58.2609V26.1739Z" fill="white"/>
<path d="M48.6087 26.1739H51.8261V29.3696H48.6087V26.1739Z" fill="white"/>
<path d="M45.3913 26.1739H48.6087V29.3696H45.3913V26.1739Z" fill="white"/>
<path d="M45.3913 29.3696H48.6087V32.5652H45.3913V29.3696Z" fill="white"/>
<path d="M58.2609 35.7609H61.4783V38.9565H58.2609V35.7609Z" fill="#F28B9D"/>
<path d="M61.4783 35.7609H64.6957V38.9565H61.4783V35.7609Z" fill="#F28B9D"/>
<path d="M64.6957 35.7609H67.913V38.9565H64.6957V35.7609Z" fill="#F28B9D"/>
<path d="M67.913 35.7609H71.1304V38.9565H67.913V35.7609Z" fill="#F28B9D"/>
<path d="M71.1304 35.7609H74.3478V38.9565H71.1304V35.7609Z" fill="#F28B9D"/>
<path d="M74.3478 35.7609H77.5652V38.9565H74.3478V35.7609Z" fill="#F28B9D"/>
<path d="M77.5652 32.5652H80.7826V35.7609H77.5652V32.5652Z" fill="#F28B9D"/>
<path d="M80.7826 29.3696H84V32.5652H80.7826V29.3696Z" fill="#F28B9D"/>
<path d="M80.7826 26.1739H84V29.3696H80.7826V26.1739Z" fill="#F28B9D"/>
<path d="M77.5652 22.9783H80.7826V26.1739H77.5652V22.9783Z" fill="#F28B9D"/>
<path d="M71.1304 19.7826H74.3478V22.9783H71.1304V19.7826Z" fill="#F28B9D"/>
<path d="M74.3478 22.9783H77.5652V26.1739H74.3478V22.9783Z" fill="#F28B9D"/>
<path d="M67.913 16.5869H71.1304V19.7826H67.913V16.5869Z" fill="#F28B9D"/>
<path d="M64.6957 13.3913H67.913V16.5869H64.6957V13.3913Z" fill="#F28B9D"/>
<path d="M61.4783 13.3913H64.6957V16.5869H61.4783V13.3913Z" fill="#F28B9D"/>
<path d="M58.2609 13.3913H61.4783V16.5869H58.2609V13.3913Z" fill="#F28B9D"/>
<path d="M55.0435 13.3913H58.2609V16.5869H55.0435V13.3913Z" fill="#F28B9D"/>
<path d="M51.8261 16.5869H55.0435V19.7826H51.8261V16.5869Z" fill="#F28B9D"/>
<path d="M48.6087 19.7826H51.8261V22.9783H48.6087V19.7826Z" fill="#F28B9D"/>
<path d="M45.3913 19.7826H48.6087V22.9783H45.3913V19.7826Z" fill="#F28B9D"/>
<path d="M42.1739 22.9783H45.3913V26.1739H42.1739V22.9783Z" fill="#F28B9D"/>
<path d="M38.9565 26.1739H42.1739V29.3696H38.9565V26.1739Z" fill="#F28B9D"/>
<path d="M38.9565 29.3696H42.1739V32.5652H38.9565V29.3696Z" fill="#F28B9D"/>
<path d="M42.1739 32.5652H45.3913V35.7609H42.1739V32.5652Z" fill="#F28B9D"/>
<path d="M45.3913 35.7609H48.6087V38.9565H45.3913V35.7609Z" fill="#F28B9D"/>
<path d="M48.6087 35.7609H51.8261V38.9565H48.6087V35.7609Z" fill="#F28B9D"/>
<path d="M45.3913 32.5652H48.6087V35.7609H45.3913V32.5652Z" fill="#F8B7C2"/>
<path d="M42.1739 29.3696H45.3913V32.5652H42.1739V29.3696Z" fill="#F8B7C2"/>
<path d="M51.8261 22.9783H55.0435V26.1739H51.8261V22.9783Z" fill="#F8B7C2"/>
<path d="M55.0435 26.1739H58.2609V29.3696H55.0435V26.1739Z" fill="#F8B7C2"/>
<path d="M67.913 26.1739H71.1304V29.3696H67.913V26.1739Z" fill="#F8B7C2"/>
<path d="M71.1304 22.9783H74.3478V26.1739H71.1304V22.9783Z" fill="#F8B7C2"/>
<path d="M64.6957 29.3696H67.913V32.5652H64.6957V29.3696Z" fill="#F8B7C2"/>
<path d="M51.8261 35.7609H55.0435V38.9565H51.8261V35.7609Z" fill="#F28B9D"/>
<path d="M55.0435 35.7609H58.2609V38.9565H55.0435V35.7609Z" fill="#F28B9D"/>
</svg>
