<svg width="90" height="145" viewBox="0 0 90 145" fill="none" xmlns="http://www.w3.org/2000/svg">
<path d="M2.90323 1.43564C2.90323 2.22853 2.25332 2.87129 1.45161 2.87129C0.649909 2.87129 0 2.22853 0 1.43564C0 0.64276 0.649909 0 1.45161 0C2.25332 0 2.90323 0.64276 2.90323 1.43564Z" fill="#1B1B1B"/>
<path d="M2.90323 17.2277C2.90323 18.0206 2.25332 18.6634 1.45161 18.6634C0.649909 18.6634 0 18.0206 0 17.2277C0 16.4348 0.649909 15.7921 1.45161 15.7921C2.25332 15.7921 2.90323 16.4348 2.90323 17.2277Z" fill="#1B1B1B"/>
<path d="M2.90323 33.0198C2.90323 33.8127 2.25332 34.4554 1.45161 34.4554C0.649909 34.4554 0 33.8127 0 33.0198C0 32.2269 0.649909 31.5842 1.45161 31.5842C2.25332 31.5842 2.90323 32.2269 2.90323 33.0198Z" fill="#1B1B1B"/>
<path d="M2.90323 48.8119C2.90323 49.6048 2.25332 50.2475 1.45161 50.2475C0.649909 50.2475 0 49.6048 0 48.8119C0 48.019 0.649909 47.3762 1.45161 47.3762C2.25332 47.3762 2.90323 48.019 2.90323 48.8119Z" fill="#1B1B1B"/>
<path d="M2.90323 64.604C2.90323 65.3968 2.25332 66.0396 1.45161 66.0396C0.649909 66.0396 0 65.3968 0 64.604C0 63.8111 0.649909 63.1683 1.45161 63.1683C2.25332 63.1683 2.90323 63.8111 2.90323 64.604Z" fill="#1B1B1B"/>
<path d="M2.90323 80.396C2.90323 81.1889 2.25332 81.8317 1.45161 81.8317C0.649909 81.8317 0 81.1889 0 80.396C0 79.6032 0.649909 78.9604 1.45161 78.9604C2.25332 78.9604 2.90323 79.6032 2.90323 80.396Z" fill="#1B1B1B"/>
<path d="M2.90323 96.1881C2.90323 96.981 2.25332 97.6238 1.45161 97.6238C0.649909 97.6238 0 96.981 0 96.1881C0 95.3952 0.649909 94.7525 1.45161 94.7525C2.25332 94.7525 2.90323 95.3952 2.90323 96.1881Z" fill="#1B1B1B"/>
<path d="M2.90323 111.98C2.90323 112.773 2.25332 113.416 1.45161 113.416C0.649909 113.416 0 112.773 0 111.98C0 111.187 0.649909 110.545 1.45161 110.545C2.25332 110.545 2.90323 111.187 2.90323 111.98Z" fill="#1B1B1B"/>
<path d="M2.90323 127.772C2.90323 128.565 2.25332 129.208 1.45161 129.208C0.649909 129.208 0 128.565 0 127.772C0 126.979 0.649909 126.337 1.45161 126.337C2.25332 126.337 2.90323 126.979 2.90323 127.772Z" fill="#1B1B1B"/>
<path d="M2.90323 143.564C2.90323 144.357 2.25332 145 1.45161 145C0.649909 145 0 144.357 0 143.564C0 142.771 0.649909 142.129 1.45161 142.129C2.25332 142.129 2.90323 142.771 2.90323 143.564Z" fill="#1B1B1B"/>
<path d="M20.3226 1.43564C20.3226 2.22853 19.6727 2.87129 18.871 2.87129C18.0693 2.87129 17.4194 2.22853 17.4194 1.43564C17.4194 0.64276 18.0693 0 18.871 0C19.6727 0 20.3226 0.64276 20.3226 1.43564Z" fill="#1B1B1B"/>
<path d="M20.3226 17.2277C20.3226 18.0206 19.6727 18.6634 18.871 18.6634C18.0693 18.6634 17.4194 18.0206 17.4194 17.2277C17.4194 16.4348 18.0693 15.7921 18.871 15.7921C19.6727 15.7921 20.3226 16.4348 20.3226 17.2277Z" fill="#1B1B1B"/>
<path d="M20.3226 33.0198C20.3226 33.8127 19.6727 34.4554 18.871 34.4554C18.0693 34.4554 17.4194 33.8127 17.4194 33.0198C17.4194 32.2269 18.0693 31.5842 18.871 31.5842C19.6727 31.5842 20.3226 32.2269 20.3226 33.0198Z" fill="#1B1B1B"/>
<path d="M20.3226 48.8119C20.3226 49.6048 19.6727 50.2475 18.871 50.2475C18.0693 50.2475 17.4194 49.6048 17.4194 48.8119C17.4194 48.019 18.0693 47.3762 18.871 47.3762C19.6727 47.3762 20.3226 48.019 20.3226 48.8119Z" fill="#1B1B1B"/>
<path d="M20.3226 64.604C20.3226 65.3968 19.6727 66.0396 18.871 66.0396C18.0693 66.0396 17.4194 65.3968 17.4194 64.604C17.4194 63.8111 18.0693 63.1683 18.871 63.1683C19.6727 63.1683 20.3226 63.8111 20.3226 64.604Z" fill="#1B1B1B"/>
<path d="M20.3226 80.396C20.3226 81.1889 19.6727 81.8317 18.871 81.8317C18.0693 81.8317 17.4194 81.1889 17.4194 80.396C17.4194 79.6032 18.0693 78.9604 18.871 78.9604C19.6727 78.9604 20.3226 79.6032 20.3226 80.396Z" fill="#1B1B1B"/>
<path d="M20.3226 96.1881C20.3226 96.981 19.6727 97.6238 18.871 97.6238C18.0693 97.6238 17.4194 96.981 17.4194 96.1881C17.4194 95.3952 18.0693 94.7525 18.871 94.7525C19.6727 94.7525 20.3226 95.3952 20.3226 96.1881Z" fill="#1B1B1B"/>
<path d="M20.3226 111.98C20.3226 112.773 19.6727 113.416 18.871 113.416C18.0693 113.416 17.4194 112.773 17.4194 111.98C17.4194 111.187 18.0693 110.545 18.871 110.545C19.6727 110.545 20.3226 111.187 20.3226 111.98Z" fill="#1B1B1B"/>
<path d="M20.3226 127.772C20.3226 128.565 19.6727 129.208 18.871 129.208C18.0693 129.208 17.4194 128.565 17.4194 127.772C17.4194 126.979 18.0693 126.337 18.871 126.337C19.6727 126.337 20.3226 126.979 20.3226 127.772Z" fill="#1B1B1B"/>
<path d="M20.3226 143.564C20.3226 144.357 19.6727 145 18.871 145C18.0693 145 17.4194 144.357 17.4194 143.564C17.4194 142.771 18.0693 142.129 18.871 142.129C19.6727 142.129 20.3226 142.771 20.3226 143.564Z" fill="#1B1B1B"/>
<path d="M37.7419 1.43564C37.7419 2.22853 37.092 2.87129 36.2903 2.87129C35.4886 2.87129 34.8387 2.22853 34.8387 1.43564C34.8387 0.64276 35.4886 0 36.2903 0C37.092 0 37.7419 0.64276 37.7419 1.43564Z" fill="#1B1B1B"/>
<path d="M37.7419 17.2277C37.7419 18.0206 37.092 18.6634 36.2903 18.6634C35.4886 18.6634 34.8387 18.0206 34.8387 17.2277C34.8387 16.4348 35.4886 15.7921 36.2903 15.7921C37.092 15.7921 37.7419 16.4348 37.7419 17.2277Z" fill="#1B1B1B"/>
<path d="M37.7419 33.0198C37.7419 33.8127 37.092 34.4554 36.2903 34.4554C35.4886 34.4554 34.8387 33.8127 34.8387 33.0198C34.8387 32.2269 35.4886 31.5842 36.2903 31.5842C37.092 31.5842 37.7419 32.2269 37.7419 33.0198Z" fill="#1B1B1B"/>
<path d="M37.7419 48.8119C37.7419 49.6048 37.092 50.2475 36.2903 50.2475C35.4886 50.2475 34.8387 49.6048 34.8387 48.8119C34.8387 48.019 35.4886 47.3762 36.2903 47.3762C37.092 47.3762 37.7419 48.019 37.7419 48.8119Z" fill="#1B1B1B"/>
<path d="M37.7419 64.604C37.7419 65.3968 37.092 66.0396 36.2903 66.0396C35.4886 66.0396 34.8387 65.3968 34.8387 64.604C34.8387 63.8111 35.4886 63.1683 36.2903 63.1683C37.092 63.1683 37.7419 63.8111 37.7419 64.604Z" fill="#1B1B1B"/>
<path d="M37.7419 80.396C37.7419 81.1889 37.092 81.8317 36.2903 81.8317C35.4886 81.8317 34.8387 81.1889 34.8387 80.396C34.8387 79.6032 35.4886 78.9604 36.2903 78.9604C37.092 78.9604 37.7419 79.6032 37.7419 80.396Z" fill="#1B1B1B"/>
<path d="M37.7419 96.1881C37.7419 96.981 37.092 97.6238 36.2903 97.6238C35.4886 97.6238 34.8387 96.981 34.8387 96.1881C34.8387 95.3952 35.4886 94.7525 36.2903 94.7525C37.092 94.7525 37.7419 95.3952 37.7419 96.1881Z" fill="#1B1B1B"/>
<path d="M37.7419 111.98C37.7419 112.773 37.092 113.416 36.2903 113.416C35.4886 113.416 34.8387 112.773 34.8387 111.98C34.8387 111.187 35.4886 110.545 36.2903 110.545C37.092 110.545 37.7419 111.187 37.7419 111.98Z" fill="#1B1B1B"/>
<path d="M37.7419 127.772C37.7419 128.565 37.092 129.208 36.2903 129.208C35.4886 129.208 34.8387 128.565 34.8387 127.772C34.8387 126.979 35.4886 126.337 36.2903 126.337C37.092 126.337 37.7419 126.979 37.7419 127.772Z" fill="#1B1B1B"/>
<path d="M37.7419 143.564C37.7419 144.357 37.092 145 36.2903 145C35.4886 145 34.8387 144.357 34.8387 143.564C34.8387 142.771 35.4886 142.129 36.2903 142.129C37.092 142.129 37.7419 142.771 37.7419 143.564Z" fill="#1B1B1B"/>
<path d="M55.1613 1.43564C55.1613 2.22853 54.5114 2.87129 53.7097 2.87129C52.908 2.87129 52.2581 2.22853 52.2581 1.43564C52.2581 0.64276 52.908 0 53.7097 0C54.5114 0 55.1613 0.64276 55.1613 1.43564Z" fill="#1B1B1B"/>
<path d="M55.1613 17.2277C55.1613 18.0206 54.5114 18.6634 53.7097 18.6634C52.908 18.6634 52.2581 18.0206 52.2581 17.2277C52.2581 16.4348 52.908 15.7921 53.7097 15.7921C54.5114 15.7921 55.1613 16.4348 55.1613 17.2277Z" fill="#1B1B1B"/>
<path d="M55.1613 33.0198C55.1613 33.8127 54.5114 34.4554 53.7097 34.4554C52.908 34.4554 52.2581 33.8127 52.2581 33.0198C52.2581 32.2269 52.908 31.5842 53.7097 31.5842C54.5114 31.5842 55.1613 32.2269 55.1613 33.0198Z" fill="#1B1B1B"/>
<path d="M55.1613 48.8119C55.1613 49.6048 54.5114 50.2475 53.7097 50.2475C52.908 50.2475 52.2581 49.6048 52.2581 48.8119C52.2581 48.019 52.908 47.3762 53.7097 47.3762C54.5114 47.3762 55.1613 48.019 55.1613 48.8119Z" fill="#1B1B1B"/>
<path d="M55.1613 64.604C55.1613 65.3968 54.5114 66.0396 53.7097 66.0396C52.908 66.0396 52.2581 65.3968 52.2581 64.604C52.2581 63.8111 52.908 63.1683 53.7097 63.1683C54.5114 63.1683 55.1613 63.8111 55.1613 64.604Z" fill="#1B1B1B"/>
<path d="M55.1613 80.396C55.1613 81.1889 54.5114 81.8317 53.7097 81.8317C52.908 81.8317 52.2581 81.1889 52.2581 80.396C52.2581 79.6032 52.908 78.9604 53.7097 78.9604C54.5114 78.9604 55.1613 79.6032 55.1613 80.396Z" fill="#1B1B1B"/>
<path d="M55.1613 96.1881C55.1613 96.981 54.5114 97.6238 53.7097 97.6238C52.908 97.6238 52.2581 96.981 52.2581 96.1881C52.2581 95.3952 52.908 94.7525 53.7097 94.7525C54.5114 94.7525 55.1613 95.3952 55.1613 96.1881Z" fill="#1B1B1B"/>
<path d="M55.1613 111.98C55.1613 112.773 54.5114 113.416 53.7097 113.416C52.908 113.416 52.2581 112.773 52.2581 111.98C52.2581 111.187 52.908 110.545 53.7097 110.545C54.5114 110.545 55.1613 111.187 55.1613 111.98Z" fill="#1B1B1B"/>
<path d="M55.1613 127.772C55.1613 128.565 54.5114 129.208 53.7097 129.208C52.908 129.208 52.2581 128.565 52.2581 127.772C52.2581 126.979 52.908 126.337 53.7097 126.337C54.5114 126.337 55.1613 126.979 55.1613 127.772Z" fill="#1B1B1B"/>
<path d="M55.1613 143.564C55.1613 144.357 54.5114 145 53.7097 145C52.908 145 52.2581 144.357 52.2581 143.564C52.2581 142.771 52.908 142.129 53.7097 142.129C54.5114 142.129 55.1613 142.771 55.1613 143.564Z" fill="#1B1B1B"/>
<path d="M72.5807 1.43564C72.5807 2.22853 71.9307 2.87129 71.129 2.87129C70.3273 2.87129 69.6774 2.22853 69.6774 1.43564C69.6774 0.64276 70.3273 0 71.129 0C71.9307 0 72.5807 0.64276 72.5807 1.43564Z" fill="#1B1B1B"/>
<path d="M72.5807 17.2277C72.5807 18.0206 71.9307 18.6634 71.129 18.6634C70.3273 18.6634 69.6774 18.0206 69.6774 17.2277C69.6774 16.4348 70.3273 15.7921 71.129 15.7921C71.9307 15.7921 72.5807 16.4348 72.5807 17.2277Z" fill="#1B1B1B"/>
<path d="M72.5807 33.0198C72.5807 33.8127 71.9307 34.4554 71.129 34.4554C70.3273 34.4554 69.6774 33.8127 69.6774 33.0198C69.6774 32.2269 70.3273 31.5842 71.129 31.5842C71.9307 31.5842 72.5807 32.2269 72.5807 33.0198Z" fill="#1B1B1B"/>
<path d="M72.5807 48.8119C72.5807 49.6048 71.9307 50.2475 71.129 50.2475C70.3273 50.2475 69.6774 49.6048 69.6774 48.8119C69.6774 48.019 70.3273 47.3762 71.129 47.3762C71.9307 47.3762 72.5807 48.019 72.5807 48.8119Z" fill="#1B1B1B"/>
<path d="M72.5807 64.604C72.5807 65.3968 71.9307 66.0396 71.129 66.0396C70.3273 66.0396 69.6774 65.3968 69.6774 64.604C69.6774 63.8111 70.3273 63.1683 71.129 63.1683C71.9307 63.1683 72.5807 63.8111 72.5807 64.604Z" fill="#1B1B1B"/>
<path d="M72.5807 80.396C72.5807 81.1889 71.9307 81.8317 71.129 81.8317C70.3273 81.8317 69.6774 81.1889 69.6774 80.396C69.6774 79.6032 70.3273 78.9604 71.129 78.9604C71.9307 78.9604 72.5807 79.6032 72.5807 80.396Z" fill="#1B1B1B"/>
<path d="M72.5807 96.1881C72.5807 96.981 71.9307 97.6238 71.129 97.6238C70.3273 97.6238 69.6774 96.981 69.6774 96.1881C69.6774 95.3952 70.3273 94.7525 71.129 94.7525C71.9307 94.7525 72.5807 95.3952 72.5807 96.1881Z" fill="#1B1B1B"/>
<path d="M72.5807 111.98C72.5807 112.773 71.9307 113.416 71.129 113.416C70.3273 113.416 69.6774 112.773 69.6774 111.98C69.6774 111.187 70.3273 110.545 71.129 110.545C71.9307 110.545 72.5807 111.187 72.5807 111.98Z" fill="#1B1B1B"/>
<path d="M72.5807 127.772C72.5807 128.565 71.9307 129.208 71.129 129.208C70.3273 129.208 69.6774 128.565 69.6774 127.772C69.6774 126.979 70.3273 126.337 71.129 126.337C71.9307 126.337 72.5807 126.979 72.5807 127.772Z" fill="#1B1B1B"/>
<path d="M72.5807 143.564C72.5807 144.357 71.9307 145 71.129 145C70.3273 145 69.6774 144.357 69.6774 143.564C69.6774 142.771 70.3273 142.129 71.129 142.129C71.9307 142.129 72.5807 142.771 72.5807 143.564Z" fill="#1B1B1B"/>
<path d="M90 1.43564C90 2.22853 89.3501 2.87129 88.5484 2.87129C87.7467 2.87129 87.0968 2.22853 87.0968 1.43564C87.0968 0.64276 87.7467 0 88.5484 0C89.3501 0 90 0.64276 90 1.43564Z" fill="#1B1B1B"/>
<path d="M90 17.2277C90 18.0206 89.3501 18.6634 88.5484 18.6634C87.7467 18.6634 87.0968 18.0206 87.0968 17.2277C87.0968 16.4348 87.7467 15.7921 88.5484 15.7921C89.3501 15.7921 90 16.4348 90 17.2277Z" fill="#1B1B1B"/>
<path d="M90 33.0198C90 33.8127 89.3501 34.4554 88.5484 34.4554C87.7467 34.4554 87.0968 33.8127 87.0968 33.0198C87.0968 32.2269 87.7467 31.5842 88.5484 31.5842C89.3501 31.5842 90 32.2269 90 33.0198Z" fill="#1B1B1B"/>
<path d="M90 48.8119C90 49.6048 89.3501 50.2475 88.5484 50.2475C87.7467 50.2475 87.0968 49.6048 87.0968 48.8119C87.0968 48.019 87.7467 47.3762 88.5484 47.3762C89.3501 47.3762 90 48.019 90 48.8119Z" fill="#1B1B1B"/>
<path d="M90 64.604C90 65.3968 89.3501 66.0396 88.5484 66.0396C87.7467 66.0396 87.0968 65.3968 87.0968 64.604C87.0968 63.8111 87.7467 63.1683 88.5484 63.1683C89.3501 63.1683 90 63.8111 90 64.604Z" fill="#1B1B1B"/>
<path d="M90 80.396C90 81.1889 89.3501 81.8317 88.5484 81.8317C87.7467 81.8317 87.0968 81.1889 87.0968 80.396C87.0968 79.6032 87.7467 78.9604 88.5484 78.9604C89.3501 78.9604 90 79.6032 90 80.396Z" fill="#1B1B1B"/>
<path d="M90 96.1881C90 96.981 89.3501 97.6238 88.5484 97.6238C87.7467 97.6238 87.0968 96.981 87.0968 96.1881C87.0968 95.3952 87.7467 94.7525 88.5484 94.7525C89.3501 94.7525 90 95.3952 90 96.1881Z" fill="#1B1B1B"/>
<path d="M90 111.98C90 112.773 89.3501 113.416 88.5484 113.416C87.7467 113.416 87.0968 112.773 87.0968 111.98C87.0968 111.187 87.7467 110.545 88.5484 110.545C89.3501 110.545 90 111.187 90 111.98Z" fill="#1B1B1B"/>
<path d="M90 127.772C90 128.565 89.3501 129.208 88.5484 129.208C87.7467 129.208 87.0968 128.565 87.0968 127.772C87.0968 126.979 87.7467 126.337 88.5484 126.337C89.3501 126.337 90 126.979 90 127.772Z" fill="#1B1B1B"/>
<path d="M90 143.564C90 144.357 89.3501 145 88.5484 145C87.7467 145 87.0968 144.357 87.0968 143.564C87.0968 142.771 87.7467 142.129 88.5484 142.129C89.3501 142.129 90 142.771 90 143.564Z" fill="#1B1B1B"/>
</svg>
