<svg width="144" height="231" viewBox="0 0 144 231" fill="none" xmlns="http://www.w3.org/2000/svg">
<path d="M4.64516 2.28713C4.64516 3.55028 3.60531 4.57426 2.32258 4.57426C1.03985 4.57426 0 3.55028 0 2.28713C0 1.02398 1.03985 0 2.32258 0C3.60531 0 4.64516 1.02398 4.64516 2.28713Z" fill="#1B1B1B"/>
<path d="M4.64516 27.4455C4.64516 28.7087 3.60531 29.7327 2.32258 29.7327C1.03985 29.7327 0 28.7087 0 27.4455C0 26.1824 1.03985 25.1584 2.32258 25.1584C3.60531 25.1584 4.64516 26.1824 4.64516 27.4455Z" fill="#1B1B1B"/>
<path d="M4.64516 52.604C4.64516 53.8671 3.60531 54.8911 2.32258 54.8911C1.03985 54.8911 0 53.8671 0 52.604C0 51.3408 1.03985 50.3168 2.32258 50.3168C3.60531 50.3168 4.64516 51.3408 4.64516 52.604Z" fill="#1B1B1B"/>
<path d="M4.64516 77.7624C4.64516 79.0255 3.60531 80.0495 2.32258 80.0495C1.03985 80.0495 0 79.0255 0 77.7624C0 76.4992 1.03985 75.4752 2.32258 75.4752C3.60531 75.4752 4.64516 76.4992 4.64516 77.7624Z" fill="#1B1B1B"/>
<path d="M4.64516 102.921C4.64516 104.184 3.60531 105.208 2.32258 105.208C1.03985 105.208 0 104.184 0 102.921C0 101.658 1.03985 100.634 2.32258 100.634C3.60531 100.634 4.64516 101.658 4.64516 102.921Z" fill="#1B1B1B"/>
<path d="M4.64516 128.079C4.64516 129.342 3.60531 130.366 2.32258 130.366C1.03985 130.366 0 129.342 0 128.079C0 126.816 1.03985 125.792 2.32258 125.792C3.60531 125.792 4.64516 126.816 4.64516 128.079Z" fill="#1B1B1B"/>
<path d="M4.64516 153.238C4.64516 154.501 3.60531 155.525 2.32258 155.525C1.03985 155.525 0 154.501 0 153.238C0 151.974 1.03985 150.95 2.32258 150.95C3.60531 150.95 4.64516 151.974 4.64516 153.238Z" fill="#1B1B1B"/>
<path d="M4.64516 178.396C4.64516 179.659 3.60531 180.683 2.32258 180.683C1.03985 180.683 0 179.659 0 178.396C0 177.133 1.03985 176.109 2.32258 176.109C3.60531 176.109 4.64516 177.133 4.64516 178.396Z" fill="#1B1B1B"/>
<path d="M4.64516 203.554C4.64516 204.818 3.60531 205.842 2.32258 205.842C1.03985 205.842 0 204.818 0 203.554C0 202.291 1.03985 201.267 2.32258 201.267C3.60531 201.267 4.64516 202.291 4.64516 203.554Z" fill="#1B1B1B"/>
<path d="M4.64516 228.713C4.64516 229.976 3.60531 231 2.32258 231C1.03985 231 0 229.976 0 228.713C0 227.45 1.03985 226.426 2.32258 226.426C3.60531 226.426 4.64516 227.45 4.64516 228.713Z" fill="#1B1B1B"/>
<path d="M32.5161 2.28713C32.5161 3.55028 31.4763 4.57426 30.1935 4.57426C28.9108 4.57426 27.871 3.55028 27.871 2.28713C27.871 1.02398 28.9108 0 30.1935 0C31.4763 0 32.5161 1.02398 32.5161 2.28713Z" fill="#1B1B1B"/>
<path d="M32.5161 27.4455C32.5161 28.7087 31.4763 29.7327 30.1935 29.7327C28.9108 29.7327 27.871 28.7087 27.871 27.4455C27.871 26.1824 28.9108 25.1584 30.1935 25.1584C31.4763 25.1584 32.5161 26.1824 32.5161 27.4455Z" fill="#1B1B1B"/>
<path d="M32.5161 52.604C32.5161 53.8671 31.4763 54.8911 30.1935 54.8911C28.9108 54.8911 27.871 53.8671 27.871 52.604C27.871 51.3408 28.9108 50.3168 30.1935 50.3168C31.4763 50.3168 32.5161 51.3408 32.5161 52.604Z" fill="#1B1B1B"/>
<path d="M32.5161 77.7624C32.5161 79.0255 31.4763 80.0495 30.1935 80.0495C28.9108 80.0495 27.871 79.0255 27.871 77.7624C27.871 76.4992 28.9108 75.4752 30.1935 75.4752C31.4763 75.4752 32.5161 76.4992 32.5161 77.7624Z" fill="#1B1B1B"/>
<path d="M32.5161 102.921C32.5161 104.184 31.4763 105.208 30.1935 105.208C28.9108 105.208 27.871 104.184 27.871 102.921C27.871 101.658 28.9108 100.634 30.1935 100.634C31.4763 100.634 32.5161 101.658 32.5161 102.921Z" fill="#1B1B1B"/>
<path d="M32.5161 128.079C32.5161 129.342 31.4763 130.366 30.1935 130.366C28.9108 130.366 27.871 129.342 27.871 128.079C27.871 126.816 28.9108 125.792 30.1935 125.792C31.4763 125.792 32.5161 126.816 32.5161 128.079Z" fill="#1B1B1B"/>
<path d="M32.5161 153.238C32.5161 154.501 31.4763 155.525 30.1935 155.525C28.9108 155.525 27.871 154.501 27.871 153.238C27.871 151.974 28.9108 150.95 30.1935 150.95C31.4763 150.95 32.5161 151.974 32.5161 153.238Z" fill="#1B1B1B"/>
<path d="M32.5161 178.396C32.5161 179.659 31.4763 180.683 30.1935 180.683C28.9108 180.683 27.871 179.659 27.871 178.396C27.871 177.133 28.9108 176.109 30.1935 176.109C31.4763 176.109 32.5161 177.133 32.5161 178.396Z" fill="#1B1B1B"/>
<path d="M32.5161 203.554C32.5161 204.818 31.4763 205.842 30.1935 205.842C28.9108 205.842 27.871 204.818 27.871 203.554C27.871 202.291 28.9108 201.267 30.1935 201.267C31.4763 201.267 32.5161 202.291 32.5161 203.554Z" fill="#1B1B1B"/>
<path d="M32.5161 228.713C32.5161 229.976 31.4763 231 30.1935 231C28.9108 231 27.871 229.976 27.871 228.713C27.871 227.45 28.9108 226.426 30.1935 226.426C31.4763 226.426 32.5161 227.45 32.5161 228.713Z" fill="#1B1B1B"/>
<path d="M60.3871 2.28713C60.3871 3.55028 59.3472 4.57426 58.0645 4.57426C56.7818 4.57426 55.7419 3.55028 55.7419 2.28713C55.7419 1.02398 56.7818 0 58.0645 0C59.3472 0 60.3871 1.02398 60.3871 2.28713Z" fill="#1B1B1B"/>
<path d="M60.3871 27.4455C60.3871 28.7087 59.3472 29.7327 58.0645 29.7327C56.7818 29.7327 55.7419 28.7087 55.7419 27.4455C55.7419 26.1824 56.7818 25.1584 58.0645 25.1584C59.3472 25.1584 60.3871 26.1824 60.3871 27.4455Z" fill="#1B1B1B"/>
<path d="M60.3871 52.604C60.3871 53.8671 59.3472 54.8911 58.0645 54.8911C56.7818 54.8911 55.7419 53.8671 55.7419 52.604C55.7419 51.3408 56.7818 50.3168 58.0645 50.3168C59.3472 50.3168 60.3871 51.3408 60.3871 52.604Z" fill="#1B1B1B"/>
<path d="M60.3871 77.7624C60.3871 79.0255 59.3472 80.0495 58.0645 80.0495C56.7818 80.0495 55.7419 79.0255 55.7419 77.7624C55.7419 76.4992 56.7818 75.4752 58.0645 75.4752C59.3472 75.4752 60.3871 76.4992 60.3871 77.7624Z" fill="#1B1B1B"/>
<path d="M60.3871 102.921C60.3871 104.184 59.3472 105.208 58.0645 105.208C56.7818 105.208 55.7419 104.184 55.7419 102.921C55.7419 101.658 56.7818 100.634 58.0645 100.634C59.3472 100.634 60.3871 101.658 60.3871 102.921Z" fill="#1B1B1B"/>
<path d="M60.3871 128.079C60.3871 129.342 59.3472 130.366 58.0645 130.366C56.7818 130.366 55.7419 129.342 55.7419 128.079C55.7419 126.816 56.7818 125.792 58.0645 125.792C59.3472 125.792 60.3871 126.816 60.3871 128.079Z" fill="#1B1B1B"/>
<path d="M60.3871 153.238C60.3871 154.501 59.3472 155.525 58.0645 155.525C56.7818 155.525 55.7419 154.501 55.7419 153.238C55.7419 151.974 56.7818 150.95 58.0645 150.95C59.3472 150.95 60.3871 151.974 60.3871 153.238Z" fill="#1B1B1B"/>
<path d="M60.3871 178.396C60.3871 179.659 59.3472 180.683 58.0645 180.683C56.7818 180.683 55.7419 179.659 55.7419 178.396C55.7419 177.133 56.7818 176.109 58.0645 176.109C59.3472 176.109 60.3871 177.133 60.3871 178.396Z" fill="#1B1B1B"/>
<path d="M60.3871 203.554C60.3871 204.818 59.3472 205.842 58.0645 205.842C56.7818 205.842 55.7419 204.818 55.7419 203.554C55.7419 202.291 56.7818 201.267 58.0645 201.267C59.3472 201.267 60.3871 202.291 60.3871 203.554Z" fill="#1B1B1B"/>
<path d="M60.3871 228.713C60.3871 229.976 59.3472 231 58.0645 231C56.7818 231 55.7419 229.976 55.7419 228.713C55.7419 227.45 56.7818 226.426 58.0645 226.426C59.3472 226.426 60.3871 227.45 60.3871 228.713Z" fill="#1B1B1B"/>
<path d="M88.2581 2.28713C88.2581 3.55028 87.2182 4.57426 85.9355 4.57426C84.6528 4.57426 83.6129 3.55028 83.6129 2.28713C83.6129 1.02398 84.6528 0 85.9355 0C87.2182 0 88.2581 1.02398 88.2581 2.28713Z" fill="#1B1B1B"/>
<path d="M88.2581 27.4455C88.2581 28.7087 87.2182 29.7327 85.9355 29.7327C84.6528 29.7327 83.6129 28.7087 83.6129 27.4455C83.6129 26.1824 84.6528 25.1584 85.9355 25.1584C87.2182 25.1584 88.2581 26.1824 88.2581 27.4455Z" fill="#1B1B1B"/>
<path d="M88.2581 52.604C88.2581 53.8671 87.2182 54.8911 85.9355 54.8911C84.6528 54.8911 83.6129 53.8671 83.6129 52.604C83.6129 51.3408 84.6528 50.3168 85.9355 50.3168C87.2182 50.3168 88.2581 51.3408 88.2581 52.604Z" fill="#1B1B1B"/>
<path d="M88.2581 77.7624C88.2581 79.0255 87.2182 80.0495 85.9355 80.0495C84.6528 80.0495 83.6129 79.0255 83.6129 77.7624C83.6129 76.4992 84.6528 75.4752 85.9355 75.4752C87.2182 75.4752 88.2581 76.4992 88.2581 77.7624Z" fill="#1B1B1B"/>
<path d="M88.2581 102.921C88.2581 104.184 87.2182 105.208 85.9355 105.208C84.6528 105.208 83.6129 104.184 83.6129 102.921C83.6129 101.658 84.6528 100.634 85.9355 100.634C87.2182 100.634 88.2581 101.658 88.2581 102.921Z" fill="#1B1B1B"/>
<path d="M88.2581 128.079C88.2581 129.342 87.2182 130.366 85.9355 130.366C84.6528 130.366 83.6129 129.342 83.6129 128.079C83.6129 126.816 84.6528 125.792 85.9355 125.792C87.2182 125.792 88.2581 126.816 88.2581 128.079Z" fill="#1B1B1B"/>
<path d="M88.2581 153.238C88.2581 154.501 87.2182 155.525 85.9355 155.525C84.6528 155.525 83.6129 154.501 83.6129 153.238C83.6129 151.974 84.6528 150.95 85.9355 150.95C87.2182 150.95 88.2581 151.974 88.2581 153.238Z" fill="#1B1B1B"/>
<path d="M88.2581 178.396C88.2581 179.659 87.2182 180.683 85.9355 180.683C84.6528 180.683 83.6129 179.659 83.6129 178.396C83.6129 177.133 84.6528 176.109 85.9355 176.109C87.2182 176.109 88.2581 177.133 88.2581 178.396Z" fill="#1B1B1B"/>
<path d="M88.2581 203.554C88.2581 204.818 87.2182 205.842 85.9355 205.842C84.6528 205.842 83.6129 204.818 83.6129 203.554C83.6129 202.291 84.6528 201.267 85.9355 201.267C87.2182 201.267 88.2581 202.291 88.2581 203.554Z" fill="#1B1B1B"/>
<path d="M88.2581 228.713C88.2581 229.976 87.2182 231 85.9355 231C84.6528 231 83.6129 229.976 83.6129 228.713C83.6129 227.45 84.6528 226.426 85.9355 226.426C87.2182 226.426 88.2581 227.45 88.2581 228.713Z" fill="#1B1B1B"/>
<path d="M116.129 2.28713C116.129 3.55028 115.089 4.57426 113.806 4.57426C112.524 4.57426 111.484 3.55028 111.484 2.28713C111.484 1.02398 112.524 0 113.806 0C115.089 0 116.129 1.02398 116.129 2.28713Z" fill="#1B1B1B"/>
<path d="M116.129 27.4455C116.129 28.7087 115.089 29.7327 113.806 29.7327C112.524 29.7327 111.484 28.7087 111.484 27.4455C111.484 26.1824 112.524 25.1584 113.806 25.1584C115.089 25.1584 116.129 26.1824 116.129 27.4455Z" fill="#1B1B1B"/>
<path d="M116.129 52.604C116.129 53.8671 115.089 54.8911 113.806 54.8911C112.524 54.8911 111.484 53.8671 111.484 52.604C111.484 51.3408 112.524 50.3168 113.806 50.3168C115.089 50.3168 116.129 51.3408 116.129 52.604Z" fill="#1B1B1B"/>
<path d="M116.129 77.7624C116.129 79.0255 115.089 80.0495 113.806 80.0495C112.524 80.0495 111.484 79.0255 111.484 77.7624C111.484 76.4992 112.524 75.4752 113.806 75.4752C115.089 75.4752 116.129 76.4992 116.129 77.7624Z" fill="#1B1B1B"/>
<path d="M116.129 102.921C116.129 104.184 115.089 105.208 113.806 105.208C112.524 105.208 111.484 104.184 111.484 102.921C111.484 101.658 112.524 100.634 113.806 100.634C115.089 100.634 116.129 101.658 116.129 102.921Z" fill="#1B1B1B"/>
<path d="M116.129 128.079C116.129 129.342 115.089 130.366 113.806 130.366C112.524 130.366 111.484 129.342 111.484 128.079C111.484 126.816 112.524 125.792 113.806 125.792C115.089 125.792 116.129 126.816 116.129 128.079Z" fill="#1B1B1B"/>
<path d="M116.129 153.238C116.129 154.501 115.089 155.525 113.806 155.525C112.524 155.525 111.484 154.501 111.484 153.238C111.484 151.974 112.524 150.95 113.806 150.95C115.089 150.95 116.129 151.974 116.129 153.238Z" fill="#1B1B1B"/>
<path d="M116.129 178.396C116.129 179.659 115.089 180.683 113.806 180.683C112.524 180.683 111.484 179.659 111.484 178.396C111.484 177.133 112.524 176.109 113.806 176.109C115.089 176.109 116.129 177.133 116.129 178.396Z" fill="#1B1B1B"/>
<path d="M116.129 203.554C116.129 204.818 115.089 205.842 113.806 205.842C112.524 205.842 111.484 204.818 111.484 203.554C111.484 202.291 112.524 201.267 113.806 201.267C115.089 201.267 116.129 202.291 116.129 203.554Z" fill="#1B1B1B"/>
<path d="M116.129 228.713C116.129 229.976 115.089 231 113.806 231C112.524 231 111.484 229.976 111.484 228.713C111.484 227.45 112.524 226.426 113.806 226.426C115.089 226.426 116.129 227.45 116.129 228.713Z" fill="#1B1B1B"/>
<path d="M144 2.28713C144 3.55028 142.96 4.57426 141.677 4.57426C140.395 4.57426 139.355 3.55028 139.355 2.28713C139.355 1.02398 140.395 0 141.677 0C142.96 0 144 1.02398 144 2.28713Z" fill="#1B1B1B"/>
<path d="M144 27.4455C144 28.7087 142.96 29.7327 141.677 29.7327C140.395 29.7327 139.355 28.7087 139.355 27.4455C139.355 26.1824 140.395 25.1584 141.677 25.1584C142.96 25.1584 144 26.1824 144 27.4455Z" fill="#1B1B1B"/>
<path d="M144 52.604C144 53.8671 142.96 54.8911 141.677 54.8911C140.395 54.8911 139.355 53.8671 139.355 52.604C139.355 51.3408 140.395 50.3168 141.677 50.3168C142.96 50.3168 144 51.3408 144 52.604Z" fill="#1B1B1B"/>
<path d="M144 77.7624C144 79.0255 142.96 80.0495 141.677 80.0495C140.395 80.0495 139.355 79.0255 139.355 77.7624C139.355 76.4992 140.395 75.4752 141.677 75.4752C142.96 75.4752 144 76.4992 144 77.7624Z" fill="#1B1B1B"/>
<path d="M144 102.921C144 104.184 142.96 105.208 141.677 105.208C140.395 105.208 139.355 104.184 139.355 102.921C139.355 101.658 140.395 100.634 141.677 100.634C142.96 100.634 144 101.658 144 102.921Z" fill="#1B1B1B"/>
<path d="M144 128.079C144 129.342 142.96 130.366 141.677 130.366C140.395 130.366 139.355 129.342 139.355 128.079C139.355 126.816 140.395 125.792 141.677 125.792C142.96 125.792 144 126.816 144 128.079Z" fill="#1B1B1B"/>
<path d="M144 153.238C144 154.501 142.96 155.525 141.677 155.525C140.395 155.525 139.355 154.501 139.355 153.238C139.355 151.974 140.395 150.95 141.677 150.95C142.96 150.95 144 151.974 144 153.238Z" fill="#1B1B1B"/>
<path d="M144 178.396C144 179.659 142.96 180.683 141.677 180.683C140.395 180.683 139.355 179.659 139.355 178.396C139.355 177.133 140.395 176.109 141.677 176.109C142.96 176.109 144 177.133 144 178.396Z" fill="#1B1B1B"/>
<path d="M144 203.554C144 204.818 142.96 205.842 141.677 205.842C140.395 205.842 139.355 204.818 139.355 203.554C139.355 202.291 140.395 201.267 141.677 201.267C142.96 201.267 144 202.291 144 203.554Z" fill="#1B1B1B"/>
<path d="M144 228.713C144 229.976 142.96 231 141.677 231C140.395 231 139.355 229.976 139.355 228.713C139.355 227.45 140.395 226.426 141.677 226.426C142.96 226.426 144 227.45 144 228.713Z" fill="#1B1B1B"/>
</svg>
