<svg width="286" height="532" viewBox="0 0 286 532" fill="none" xmlns="http://www.w3.org/2000/svg">
<rect width="286" height="532" fill="#F5F4F0"/>
<path d="M90.0853 284.376L95.9123 273.445L82.0451 271L80.9336 277.303L90.0853 284.376Z" fill="#F28B9D"/>
<path d="M155.085 306.376L160.912 295.445L147.045 293L145.934 299.303L155.085 306.376Z" fill="#63C7DD"/>
<path d="M21.0853 350.376L26.9123 339.445L13.0451 337L11.9336 343.303L21.0853 350.376Z" fill="#63C7DD"/>
<path d="M119.085 453.376L124.912 442.445L111.045 440L109.934 446.303L119.085 453.376Z" fill="#F28B9D"/>
<path d="M255.085 479.376L260.912 468.445L247.045 466L245.934 472.303L255.085 479.376Z" fill="#47D7AF"/>
<path d="M41.0852 224.376L46.9122 213.445L33.045 211L31.9336 217.303L41.0852 224.376Z" fill="#B2B6F4"/>
<path d="M193.085 102.376L198.912 91.4452L185.045 89L183.934 95.3033L193.085 102.376Z" fill="#B2B6F4"/>
<path d="M199.085 427.376L204.912 416.445L191.045 414L189.934 420.303L199.085 427.376Z" fill="#B2B6F4"/>
<path d="M199.085 247.376L204.912 236.445L191.045 234L189.934 240.303L199.085 247.376Z" fill="#B2B6F4"/>
<path d="M273.085 25.3764L278.912 14.4452L265.045 12L263.934 18.3033L273.085 25.3764Z" fill="#F28B9D"/>
<path d="M70.0852 403.376L75.9122 392.445L62.045 390L60.9336 396.303L70.0852 403.376Z" fill="#B2B6F4"/>
<path d="M175.085 189.376L180.912 178.445L167.045 176L165.934 182.303L175.085 189.376Z" fill="#47D7AF"/>
<path d="M96.0853 109.376L101.912 98.4452L88.0451 96L86.9336 102.303L96.0853 109.376Z" fill="#E7C63C"/>
<path d="M264.085 163.376L269.912 152.445L256.045 150L254.934 156.303L264.085 163.376Z" fill="#63C7DD"/>
<path d="M31.0853 158.376L36.9123 147.445L23.0451 145L21.9336 151.303L31.0853 158.376Z" fill="#F28B9D"/>
<path d="M191.085 39.3764L196.912 28.4452L183.045 26L181.934 32.3033L191.085 39.3764Z" fill="#E7C63C"/>
<path d="M39.0853 17.3764L44.9123 6.44519L31.0451 4.00002L29.9336 10.3033L39.0853 17.3764Z" fill="#47D7AF"/>
<path d="M21.0853 501.376L26.9123 490.445L13.0451 488L11.9336 494.303L21.0853 501.376Z" fill="#47D7AF"/>
<path d="M149.085 515.376L154.912 504.445L141.045 502L139.934 508.303L149.085 515.376Z" fill="#E7C63C"/>
<path d="M272.085 247.376L277.912 236.445L264.045 234L262.934 240.303L272.085 247.376Z" fill="#E7C63C"/>
<path d="M245.085 357.376L250.912 346.445L237.045 344L235.934 350.303L245.085 357.376Z" fill="#F28B9D"/>
<path d="M16.38 410.302L4.99999 431.651L32.0822 436.426L34.2528 424.116L16.38 410.302Z" fill="#F28B9D"/>
<path d="M142.38 45.3024L131 66.6506L158.082 71.4259L160.253 59.1158L142.38 45.3024Z" fill="#F28B9D"/>
<path d="M19.38 58.3024L7.99999 79.6506L35.0822 84.4259L37.2528 72.1158L19.38 58.3024Z" fill="#63C7DD"/>
<path d="M178.38 352.302L167 373.651L194.082 378.426L196.253 366.116L178.38 352.302Z" fill="#63C7DD"/>
<path d="M258.38 286.302L247 307.651L274.082 312.426L276.253 300.116L258.38 286.302Z" fill="#B2B6F4"/>
<path d="M93.38 158.302L82 179.651L109.082 184.426L111.253 172.116L93.38 158.302Z" fill="#B2B6F4"/>
<path d="M73.38 320.302L62 341.651L89.0822 346.426L91.2528 334.116L73.38 320.302Z" fill="#47D7AF"/>
<path d="M257.38 402.302L246 423.651L273.082 428.426L275.253 416.116L257.38 402.302Z" fill="#47D7AF"/>
<path d="M262.38 94.3024L251 115.651L278.082 120.426L280.253 108.116L262.38 94.3024Z" fill="#E7C63C"/>
<path d="M11.38 259.302L-1.16229e-05 280.651L27.0822 285.426L29.2528 273.116L11.38 259.302Z" fill="#E7C63C"/>
</svg>
