<svg width="343" height="456" viewBox="0 0 343 456" fill="none" xmlns="http://www.w3.org/2000/svg">
<path d="M19 0V456" stroke="white"/>
<path d="M57 0V456" stroke="white"/>
<path d="M95 0V456" stroke="white"/>
<path d="M133 0V456" stroke="white"/>
<path d="M171 0V456" stroke="white"/>
<path d="M209 0V456" stroke="white"/>
<path d="M247 0V456" stroke="white"/>
<path d="M285 0V456" stroke="white"/>
<path d="M323 0V456" stroke="white"/>
<path d="M0 437H342" stroke="white"/>
<path d="M0 399H342" stroke="white"/>
<path d="M0 361H342" stroke="white"/>
<path d="M0 323H342" stroke="white"/>
<path d="M0 285H342" stroke="white"/>
<path d="M0 247L342 247" stroke="white"/>
<path d="M0 209L342 209" stroke="white"/>
<path d="M0 171L342 171" stroke="white"/>
<path d="M0 133L342 133" stroke="white"/>
<path d="M0 95L342 95" stroke="white"/>
<path d="M0 57L342 57" stroke="white"/>
<path d="M0 19L342 19" stroke="white"/>
</svg>
