<svg width="343" height="472" viewBox="0 0 343 472" fill="none" xmlns="http://www.w3.org/2000/svg">
<path d="M19 16V472" stroke="white"/>
<path d="M57 16V472" stroke="white"/>
<path d="M95 16V472" stroke="white"/>
<path d="M133 16V472" stroke="white"/>
<path d="M171 16V472" stroke="white"/>
<path d="M209 16V472" stroke="white"/>
<path d="M247 16V472" stroke="white"/>
<path d="M285 16V472" stroke="white"/>
<path d="M323 16V472" stroke="white"/>
<path d="M0 453H342" stroke="white"/>
<path d="M0 415H342" stroke="white"/>
<path d="M0 377H342" stroke="white"/>
<path d="M0 339H342" stroke="white"/>
<path d="M0 301H342" stroke="white"/>
<path d="M0 263H342" stroke="white"/>
<path d="M0 225L342 225" stroke="white"/>
<path d="M0 187L342 187" stroke="white"/>
<path d="M0 149L342 149" stroke="white"/>
<path d="M0 111L342 111" stroke="white"/>
<path d="M0 73L342 73" stroke="white"/>
<path d="M0 35L342 35" stroke="white"/>
</svg>
