<svg width="51" height="49" viewBox="0 0 51 49" fill="none" xmlns="http://www.w3.org/2000/svg">
<path d="M13.7999 14.6607L20.6323 20.9646H35.3482V46.7053H0.660706V20.9646V14.6607H13.7999Z" fill="#DAD7FF"/>
<path fill-rule="evenodd" clip-rule="evenodd" d="M0 14H13.9752L20.8592 20.3554H36.0089V47.3661H0V14ZM19.2978 20.3554L13.5611 15.0592H1.05909V20.3554H19.2978ZM1.05909 21.4147V46.3068H34.9498V21.4147H1.05909Z" fill="#1B1B1B"/>
<path fill-rule="evenodd" clip-rule="evenodd" d="M34.8934 46.2479V20.9375H37V48.3571H0.660706V46.2479H34.8934Z" fill="#1B1B1B"/>
<path d="M18.7999 9.66071L25.6323 15.9646H40.3482V41.7053H5.66071V15.9646V9.66071H18.7999Z" fill="#94F0D7"/>
<path fill-rule="evenodd" clip-rule="evenodd" d="M5 9H18.9752L25.8592 15.3554H41.0089V42.3661H5V9ZM24.2978 15.3554L18.5611 10.0592H6.05909V15.3554H24.2978ZM6.05909 16.4147V41.3068H39.9498V16.4147H6.05909Z" fill="#1B1B1B"/>
<path fill-rule="evenodd" clip-rule="evenodd" d="M39.8934 41.2479V15.9375H42V43.3571H5.66071V41.2479H39.8934Z" fill="#1B1B1B"/>
<path d="M22.7999 4.66071L29.6323 10.9646H44.3482V36.7053H9.66071V10.9646V4.66071H22.7999Z" fill="#F8B7C2"/>
<path fill-rule="evenodd" clip-rule="evenodd" d="M9 4H22.9752L29.8592 10.3554H45.0089V37.3661H9V4ZM28.2978 10.3554L22.5611 5.05924H10.0591V10.3554H28.2978ZM10.0591 11.4147V36.3068H43.9498V11.4147H10.0591Z" fill="#1B1B1B"/>
<path fill-rule="evenodd" clip-rule="evenodd" d="M43.8934 36.2479V10.9375H46V38.3571H9.66071V36.2479H43.8934Z" fill="#1B1B1B"/>
<path d="M27.7999 0.660706L34.6323 6.96457H49.3482V32.7053H14.6607V6.96457V0.660706H27.7999Z" fill="#F9DF70"/>
<path fill-rule="evenodd" clip-rule="evenodd" d="M14 0H27.9752L34.8592 6.35544H50.0089V33.3661H14V0ZM33.2978 6.35544L27.5611 1.05924H15.0591V6.35544H33.2978ZM15.0591 7.41468V32.3068H48.9498V7.41468H15.0591Z" fill="#1B1B1B"/>
<path fill-rule="evenodd" clip-rule="evenodd" d="M48.8934 32.2479V6.9375H51V34.3571H14.6607V32.2479H48.8934Z" fill="#1B1B1B"/>
<path d="M30.2788 13.1728C30.2788 15.4125 31.8341 18.0876 32.5185 19.3319C33.265 18.0254 34.9448 15.5618 34.9448 13.1728C34.9448 10.7839 34.0116 10 32.5185 10C31.0254 10 30.2788 10.9332 30.2788 13.1728Z" fill="#1B1B1B"/>
<path d="M36.9192 14.7592C34.9796 15.8791 33.4405 18.5636 32.7052 19.7784C34.2099 19.7717 37.1833 19.9946 39.2522 18.8001C41.3211 17.6056 41.5334 16.4055 40.7868 15.1124C40.0403 13.8194 38.8588 13.6394 36.9192 14.7592Z" fill="#1B1B1B"/>
<path d="M28.0808 14.7592C30.0204 15.8791 31.5595 18.5636 32.2948 19.7784C30.7901 19.7717 27.8167 19.9946 25.7478 18.8001C23.6789 17.6056 23.4666 16.4055 24.2132 15.1124C24.9597 13.8194 26.1412 13.6394 28.0808 14.7592Z" fill="#1B1B1B"/>
<path d="M30.2788 26.7322C30.2788 24.4926 31.8341 21.8174 32.5185 20.5732C33.265 21.8796 34.9448 24.3432 34.9448 26.7322C34.9448 29.1212 34.0116 29.9051 32.5185 29.9051C31.0254 29.9051 30.2788 28.9719 30.2788 26.7322Z" fill="#1B1B1B"/>
<path d="M36.9192 25.1458C34.9796 24.026 33.4405 21.3415 32.7052 20.1267C34.2099 20.1334 37.1833 19.9105 39.2522 21.105C41.3211 22.2995 41.5334 23.4996 40.7868 24.7926C40.0403 26.0857 38.8588 26.2656 36.9192 25.1458Z" fill="#1B1B1B"/>
<path d="M28.0808 25.1458C30.0204 24.026 31.5595 21.3415 32.2948 20.1267C30.7901 20.1334 27.8167 19.9105 25.7478 21.105C23.6789 22.2995 23.4666 23.4996 24.2132 24.7926C24.9597 26.0857 26.1412 26.2656 28.0808 25.1458Z" fill="#1B1B1B"/>
<circle cx="32.5186" cy="19.7052" r="2.42629" fill="#DAD7FF"/>
</svg>
