<svg width="29" height="29" viewBox="0 0 29 29" fill="none" xmlns="http://www.w3.org/2000/svg">
<path d="M13.5492 7.60656L7.6066 1.66394L4.75414 2.13935L1.42627 4.99181L2.13938 14.9754L8.31971 21.1557L11.8853 24.959L14.0246 27.5738L16.8771 24.2459L20.205 20.2049L23.5328 18.3033L26.1476 13.7869V4.99181L23.5328 1.66394L20.205 2.13935L16.4017 5.70492L14.7377 8.08197L13.5492 7.60656Z" fill="#F28B9D"/>
<path d="M3.32788 16.1639H6.65575V19.4918H3.32788V16.1639Z" fill="#1B1B1B"/>
<path d="M6.65576 19.4918H9.98363V22.8197H6.65576V19.4918Z" fill="#1B1B1B"/>
<path d="M9.98364 22.8197H13.3115V26.1476H9.98364V22.8197Z" fill="#1B1B1B"/>
<path d="M14.7378 22.8197H18.0657V26.1476H14.7378V22.8197Z" fill="#1B1B1B"/>
<path d="M18.0657 19.4918H21.3935V22.8197H18.0657V19.4918Z" fill="#1B1B1B"/>
<path d="M21.3936 16.1639H24.7214V19.4918H21.3936V16.1639Z" fill="#1B1B1B"/>
<path d="M3.32788 0H9.0328V3.32787H3.32788V0Z" fill="#1B1B1B"/>
<path d="M19.0164 0H24.7213V3.32787H19.0164V0Z" fill="#1B1B1B"/>
<path d="M9.03271 3.32788H12.3606V6.65575H9.03271V3.32788Z" fill="#1B1B1B"/>
<path d="M12.3606 6.65576H15.6885V9.98363H12.3606V6.65576Z" fill="#1B1B1B"/>
<path d="M12.3606 25.6721H15.6885V29H12.3606V25.6721Z" fill="#1B1B1B"/>
<path d="M15.6886 3.32788H19.0165V6.65575H15.6886V3.32788Z" fill="#1B1B1B"/>
<path d="M0 3.32788H3.32787V16.1639H0V3.32788Z" fill="#1B1B1B"/>
<path d="M24.7213 3.32788H28.0492V16.1639H24.7213V3.32788Z" fill="#1B1B1B"/>
</svg>
