<svg width="49" height="43" viewBox="0 0 49 43" fill="none" xmlns="http://www.w3.org/2000/svg">
<path d="M34.558 10.7277H14.692V14.3036H16.6786V16.0916H18.6652V17.8795H20.6518V19.6675H22.6384V23.2433H20.6518V25.0313H18.6652V26.8192H16.6786V28.6072H14.692V32.1831H34.558V28.6072H32.5714V26.8192H30.5848V25.0313H28.5982V23.2433H26.6116V19.6675H28.5982V17.8795H30.5848V16.0916H32.5714V14.3036H34.558V10.7277Z" fill="#F9DF70"/>
<path d="M32.5714 14.3036H34.558V16.0915H32.5714V14.3036Z" fill="#1B1B1B"/>
<path d="M30.5848 16.0915H32.5714V17.8795H30.5848V16.0915Z" fill="#1B1B1B"/>
<path d="M28.5982 17.8795H30.5848V19.6674H28.5982V17.8795Z" fill="#1B1B1B"/>
<path d="M14.6919 14.3036H16.6785V16.0915H14.6919V14.3036Z" fill="#1B1B1B"/>
<path d="M16.6785 16.0915H18.6651V17.8795H16.6785V16.0915Z" fill="#1B1B1B"/>
<path d="M18.6651 17.8795H20.6517V19.6674H18.6651V17.8795Z" fill="#1B1B1B"/>
<path d="M28.5982 23.2433H30.5848V25.0313H28.5982V23.2433Z" fill="#1B1B1B"/>
<path d="M30.5848 25.0313H32.5714V26.8192H30.5848V25.0313Z" fill="#1B1B1B"/>
<path d="M32.5714 26.8192H34.558V28.6072H32.5714V26.8192Z" fill="#1B1B1B"/>
<path d="M18.6651 23.2433H20.6517V25.0313H18.6651V23.2433Z" fill="#1B1B1B"/>
<path d="M16.6785 25.0313H18.6651V26.8192H16.6785V25.0313Z" fill="#1B1B1B"/>
<path d="M14.6919 26.8192H16.6785V28.6072H14.6919V26.8192Z" fill="#1B1B1B"/>
<path d="M36.5446 28.6072H34.558V32.1831H36.5446V28.6072Z" fill="#1B1B1B"/>
<path d="M34.558 33.971V32.1831H14.6919V33.971H34.558Z" fill="#1B1B1B"/>
<path d="M14.6919 28.6072H12.7053V32.1831H14.6919V28.6072Z" fill="#1B1B1B"/>
<path d="M22.6384 19.6674H20.6517V23.2433H22.6384V19.6674Z" fill="#1B1B1B"/>
<path d="M28.5982 19.6674H26.6116V23.2433H28.5982V19.6674Z" fill="#1B1B1B"/>
<path d="M34.558 14.3036H36.5446V10.7277H34.558V14.3036Z" fill="#1B1B1B"/>
<path d="M14.6919 8.93976V10.7277H34.558V8.93976H14.6919Z" fill="#1B1B1B"/>
<path d="M12.7053 14.3036H14.6919V10.7277H12.7053V14.3036Z" fill="#1B1B1B"/>
</svg>
