<svg width="10" height="12" viewBox="0 0 10 12" fill="none" xmlns="http://www.w3.org/2000/svg">
<path d="M9.8 9.6C9.88 9.92 9.92 10.32 9.92 10.8C9.92 11.26 9.88 11.66 9.8 12H7.4C7.32 11.66 7.28 11.26 7.28 10.8C7.28 10.32 7.32 9.92 7.4 9.6H6.2C6.12 9.26 6.08 8.86 6.08 8.4C6.08 7.92 6.12 7.52 6.2 7.2H2.6C2.68 7.52 2.72 7.92 2.72 8.4C2.72 8.86 2.68 9.26 2.6 9.6H6.2C6.28 9.92 6.32 10.32 6.32 10.8C6.32 11.26 6.28 11.66 6.2 12H1.4C1.32 11.66 1.28 11.26 1.28 10.8C1.28 10.32 1.32 9.92 1.4 9.6H0.2C0.12 9.26 0.0800001 8.86 0.0800001 8.4C0.0800001 7.92 0.12 7.52 0.2 7.2H1.4C1.32 6.86 1.28 6.46 1.28 6C1.28 5.52 1.32 5.12 1.4 4.8H6.2C6.12 4.46 6.08 4.06 6.08 3.6C6.08 3.12 6.12 2.72 6.2 2.4H2C1.92 2.06 1.88 1.66 1.88 1.2C1.88 0.72 1.92 0.32 2 -1.78814e-07H7.4C7.48 0.32 7.52 0.72 7.52 1.2C7.52 1.66 7.48 2.06 7.4 2.4H8.6C8.68 2.72 8.72 3.12 8.72 3.6C8.72 4.06 8.68 4.46 8.6 4.8C8.68 5.12 8.72 5.52 8.72 6C8.72 6.46 8.68 6.86 8.6 7.2C8.68 7.52 8.72 7.92 8.72 8.4C8.72 8.86 8.68 9.26 8.6 9.6H9.8Z" fill="#F28B9D"/>
</svg>
