<svg width="17" height="17" viewBox="0 0 17 17" fill="none" xmlns="http://www.w3.org/2000/svg">
<path d="M6.66659 7.85416V6.56249H1.49992L1.49992 7.85416H6.66659Z" fill="#1B1B1B"/>
<path d="M1.49992 1.39582H0.208252L0.208252 6.56249H1.49992V1.39582Z" fill="#1B1B1B"/>
<path d="M6.66659 1.39582V0.104156L1.49992 0.104157V1.39582L6.66659 1.39582Z" fill="#1B1B1B"/>
<path d="M7.95825 1.39582L6.66659 1.39582V6.56249H7.95825V1.39582Z" fill="#1B1B1B"/>
<path d="M10.5416 1.39582H9.24992V6.56249H10.5416V1.39582Z" fill="#1B1B1B"/>
<path d="M15.7083 1.39582V0.104156L10.5416 0.104157V1.39582L15.7083 1.39582Z" fill="#1B1B1B"/>
<path d="M15.7083 7.85416V6.56249H10.5416V7.85416H15.7083Z" fill="#1B1B1B"/>
<path d="M16.9999 1.39582L15.7083 1.39582V6.56249H16.9999V1.39582Z" fill="#1B1B1B"/>
<path d="M1.49992 10.4375H0.208252L0.208252 15.6042H1.49992V10.4375Z" fill="#1B1B1B"/>
<path d="M6.66659 10.4375V9.14583H1.49992V10.4375H6.66659Z" fill="#1B1B1B"/>
<path d="M6.66659 16.8958V15.6042H1.49992L1.49992 16.8958H6.66659Z" fill="#1B1B1B"/>
<path d="M7.95825 10.4375H6.66659V15.6042H7.95825V10.4375Z" fill="#1B1B1B"/>
<path d="M10.5416 10.4375H9.24992V15.6042H10.5416V10.4375Z" fill="#1B1B1B"/>
<path d="M15.7083 16.8958V15.6042H10.5416V16.8958H15.7083Z" fill="#1B1B1B"/>
<path d="M16.9999 10.4375H15.7083V15.6042H16.9999V10.4375Z" fill="#1B1B1B"/>
<path d="M15.7083 10.4375V9.14583H10.5416V10.4375H15.7083Z" fill="#1B1B1B"/>
<path d="M1.49988 6.56248V1.39581H6.66654V6.56248H1.49988Z" fill="#F28B9D"/>
<path d="M10.5415 6.56248V1.39581H15.7082V6.56248H10.5415Z" fill="#F28B9D"/>
<path d="M10.5415 15.6041V10.4375H15.7082V15.6041H10.5415Z" fill="#F28B9D"/>
<path d="M1.49988 10.4375V15.6041H6.66654V10.4375H1.49988Z" fill="#F28B9D"/>
</svg>
