<svg width="286" height="114" viewBox="0 0 286 114" fill="none" xmlns="http://www.w3.org/2000/svg">
<path d="M16 20H19V23H13V20H10V8H16V20ZM22 8V20H19V8H22ZM31 8V20H28V23H22V20H25V8H31ZM38.2 23V20H35.2V17H38.2V14H50.2V11H38.2V8H53.2V11H56.2V23H38.2ZM41.2 20H50.2V17H41.2V20ZM69.4 5V2H75.4V5H69.4ZM63.4 23V20H69.4V11H66.4V8H75.4V20H81.4V23H63.4ZM94.6 23V11H88.6V8L94.6 8V2L100.6 2V8H106.6V11L100.6 11V23H94.6ZM145 23V11H139V8H145V5H148V2H157V5H151V8H157V11H151V23H145ZM164.2 23V20H161.2V11H164.2V8H179.2V11H182.2V20H179.2V23H164.2ZM167.2 20H176.2V11L167.2 11V20ZM195.4 11H198.4V14H195.4V23H189.4V8H195.4V11ZM207.4 8V11H198.4V8H207.4ZM245.8 5V2H251.8V5H245.8ZM239.8 23V20H245.8V11H242.8V8H251.8V20H257.8V23H239.8ZM271 23V11H265V8H271V2H277V8H283V11H277V23H271Z" fill="#B2B6F4" fill-opacity="0.4"/>
<path d="M16 50H19V53H13V50H10V38H16V50ZM22 38V50H19V38H22ZM31 38V50H28V53H22V50H25V38H31ZM38.2 53V50H35.2V47H38.2V44H50.2V41H38.2V38H53.2V41H56.2V53H38.2ZM41.2 50H50.2V47H41.2V50ZM69.4 35V32H75.4V35H69.4ZM63.4 53V50H69.4V41H66.4V38H75.4V50H81.4V53H63.4ZM94.6 53V41H88.6V38H94.6V32H100.6V38H106.6V41H100.6V53H94.6ZM145 53V41H139V38H145V35H148V32H157V35H151V38H157V41H151V53H145ZM164.2 53V50H161.2V41H164.2V38H179.2V41H182.2V50H179.2V53H164.2ZM167.2 50H176.2V41H167.2V50ZM195.4 41H198.4V44H195.4V53H189.4V38H195.4V41ZM207.4 38V41H198.4V38H207.4ZM245.8 35V32H251.8V35H245.8ZM239.8 53V50H245.8V41H242.8V38H251.8V50H257.8V53H239.8ZM271 53V41H265V38H271V32L277 32V38L283 38V41H277V53H271Z" fill="#B2B6F4" fill-opacity="0.4"/>
<path d="M16 80H19V83H13V80H10V68H16V80ZM22 68V80H19V68H22ZM31 68V80H28V83H22V80H25V68H31ZM38.2 83V80H35.2V77H38.2V74H50.2V71H38.2V68H53.2V71H56.2V83H38.2ZM41.2 80H50.2V77H41.2V80ZM69.4 65V62H75.4V65H69.4ZM63.4 83V80H69.4V71H66.4V68H75.4V80H81.4V83H63.4ZM94.6 83V71H88.6V68H94.6V62H100.6V68H106.6V71H100.6V83H94.6ZM145 83V71H139V68H145V65H148V62H157V65H151V68H157V71H151V83H145ZM164.2 83V80H161.2V71H164.2V68H179.2V71H182.2V80H179.2V83H164.2ZM167.2 80H176.2V71H167.2V80ZM195.4 71H198.4V74H195.4V83H189.4V68H195.4V71ZM207.4 68V71H198.4V68H207.4ZM245.8 65V62H251.8V65H245.8ZM239.8 83V80H245.8V71H242.8V68H251.8V80H257.8V83H239.8ZM271 83V71H265V68H271V62L277 62V68H283V71H277V83H271Z" fill="#B2B6F4" fill-opacity="0.4"/>
<path d="M16 110H19V113H13V110H10V98H16V110ZM22 98V110H19V98H22ZM31 98V110H28V113H22V110H25V98H31ZM38.2 113V110H35.2V107H38.2V104H50.2V101H38.2V98H53.2V101H56.2V113H38.2ZM41.2 110H50.2V107H41.2V110ZM69.4 95V92H75.4V95H69.4ZM63.4 113V110H69.4V101H66.4V98H75.4V110H81.4V113H63.4ZM94.6 113V101H88.6V98H94.6V92H100.6V98H106.6V101H100.6V113H94.6ZM145 113V101H139V98H145V95H148V92H157V95H151V98H157V101H151V113H145ZM164.2 113V110H161.2V101H164.2V98H179.2V101H182.2V110H179.2V113H164.2ZM167.2 110H176.2V101H167.2V110ZM195.4 101H198.4V104H195.4V113H189.4V98H195.4V101ZM207.4 98V101H198.4V98H207.4ZM245.8 95V92H251.8V95H245.8ZM239.8 113V110H245.8V101H242.8V98H251.8V110H257.8V113H239.8ZM271 113V101H265V98H271V92H277V98H283V101H277V113H271Z" fill="#B2B6F4" fill-opacity="0.4"/>
<g filter="url(#filter0_d_68_551)">
<rect x="32" y="34" width="233" height="47" fill="#A6EDFD"/>
<rect x="32.5" y="34.5" width="232" height="46" stroke="#1B1B1B"/>
</g>
<path d="M61.2099 64.4736V56.2236H62.7399V57.3336H63.0549L62.7999 57.6036C62.7999 57.1436 62.9299 56.7736 63.1899 56.4936C63.4499 56.2136 63.7849 56.0736 64.1949 56.0736C64.6349 56.0736 64.9749 56.2536 65.2149 56.6136C65.4649 56.9736 65.5899 57.4586 65.5899 58.0686L65.2599 57.3336H65.7699L65.5749 57.6036C65.5749 57.1436 65.7049 56.7736 65.9649 56.4936C66.2249 56.2136 66.5699 56.0736 66.9999 56.0736C67.5099 56.0736 67.9149 56.2636 68.2149 56.6436C68.5149 57.0236 68.6649 57.5386 68.6649 58.1886V64.4736H67.0149V58.2636C67.0149 57.9936 66.9549 57.7836 66.8349 57.6336C66.7149 57.4736 66.5399 57.3936 66.3099 57.3936C66.0899 57.3936 65.9149 57.4686 65.7849 57.6186C65.6649 57.7686 65.6049 57.9836 65.6049 58.2636V64.4736H64.2549V58.2636C64.2549 57.9836 64.1949 57.7686 64.0749 57.6186C63.9549 57.4686 63.7799 57.3936 63.5499 57.3936C63.3199 57.3936 63.1449 57.4686 63.0249 57.6186C62.9149 57.7686 62.8599 57.9836 62.8599 58.2636V64.4736H61.2099ZM73.1741 64.6086C72.4741 64.6086 71.8641 64.4786 71.3441 64.2186C70.8341 63.9486 70.4341 63.5736 70.1441 63.0936C69.8641 62.6036 69.7241 62.0286 69.7241 61.3686V59.3286C69.7241 58.6686 69.8641 58.0986 70.1441 57.6186C70.4341 57.1286 70.8341 56.7536 71.3441 56.4936C71.8641 56.2236 72.4741 56.0886 73.1741 56.0886C73.8841 56.0886 74.4941 56.2236 75.0041 56.4936C75.5141 56.7536 75.9091 57.1286 76.1891 57.6186C76.4791 58.0986 76.6241 58.6636 76.6241 59.3136V61.3686C76.6241 62.0286 76.4791 62.6036 76.1891 63.0936C75.9091 63.5736 75.5141 63.9486 75.0041 64.2186C74.4941 64.4786 73.8841 64.6086 73.1741 64.6086ZM73.1741 62.9736C73.6741 62.9736 74.0591 62.8386 74.3291 62.5686C74.6091 62.2886 74.7491 61.8886 74.7491 61.3686V59.3286C74.7491 58.7986 74.6091 58.3986 74.3291 58.1286C74.0591 57.8586 73.6741 57.7236 73.1741 57.7236C72.6841 57.7236 72.2991 57.8586 72.0191 58.1286C71.7391 58.3986 71.5991 58.7986 71.5991 59.3286V61.3686C71.5991 61.8886 71.7391 62.2886 72.0191 62.5686C72.2991 62.8386 72.6841 62.9736 73.1741 62.9736ZM78.3282 64.4736V56.2236H80.0982V57.7986H80.5632L80.0082 58.7586C80.0082 57.8686 80.2082 57.1986 80.6082 56.7486C81.0082 56.2986 81.5982 56.0736 82.3782 56.0736C83.2682 56.0736 83.9682 56.3486 84.4782 56.8986C84.9882 57.4486 85.2432 58.2086 85.2432 59.1786V59.7786H83.2782V59.3136C83.2782 58.7836 83.1382 58.3736 82.8582 58.0836C82.5882 57.7936 82.2132 57.6486 81.7332 57.6486C81.2432 57.6486 80.8632 57.7936 80.5932 58.0836C80.3332 58.3736 80.2032 58.7836 80.2032 59.3136V64.4736H78.3282ZM89.6774 64.6236C88.9774 64.6236 88.3674 64.4886 87.8474 64.2186C87.3274 63.9486 86.9224 63.5736 86.6324 63.0936C86.3524 62.6036 86.2124 62.0336 86.2124 61.3836V59.3136C86.2124 58.6636 86.3524 58.0986 86.6324 57.6186C86.9224 57.1286 87.3274 56.7486 87.8474 56.4786C88.3674 56.2086 88.9774 56.0736 89.6774 56.0736C90.3674 56.0736 90.9674 56.2086 91.4774 56.4786C91.9974 56.7486 92.3974 57.1286 92.6774 57.6186C92.9674 58.0986 93.1124 58.6636 93.1124 59.3136V60.7986H88.0274V61.3836C88.0274 61.9636 88.1674 62.4036 88.4474 62.7036C88.7274 62.9936 89.1424 63.1386 89.6924 63.1386C90.1124 63.1386 90.4524 63.0686 90.7124 62.9286C90.9724 62.7786 91.1374 62.5636 91.2074 62.2836H93.0524C92.9124 62.9936 92.5324 63.5636 91.9124 63.9936C91.3024 64.4136 90.5574 64.6236 89.6774 64.6236ZM91.2974 59.7486V59.2986C91.2974 58.7286 91.1624 58.2936 90.8924 57.9936C90.6224 57.6836 90.2174 57.5286 89.6774 57.5286C89.1374 57.5286 88.7274 57.6836 88.4474 57.9936C88.1674 58.3036 88.0274 58.7436 88.0274 59.3136V59.6286L91.4324 59.5986L91.2974 59.7486ZM102.806 67.1736V56.2236H104.636V57.7986H105.056L104.636 58.2336C104.636 57.5636 104.836 57.0386 105.236 56.6586C105.636 56.2686 106.176 56.0736 106.856 56.0736C107.686 56.0736 108.351 56.3586 108.851 56.9286C109.351 57.4986 109.601 58.2636 109.601 59.2236V61.4586C109.601 62.0986 109.486 62.6586 109.256 63.1386C109.036 63.6086 108.721 63.9736 108.311 64.2336C107.901 64.4936 107.416 64.6236 106.856 64.6236C106.176 64.6236 105.636 64.4336 105.236 64.0536C104.836 63.6636 104.636 63.1336 104.636 62.4636L105.056 62.8986H104.621L104.681 64.8636V67.1736H102.806ZM106.196 63.0036C106.676 63.0036 107.051 62.8636 107.321 62.5836C107.591 62.3036 107.726 61.9036 107.726 61.3836V59.3136C107.726 58.7936 107.591 58.3936 107.321 58.1136C107.051 57.8336 106.676 57.6936 106.196 57.6936C105.726 57.6936 105.356 57.8386 105.086 58.1286C104.816 58.4086 104.681 58.8036 104.681 59.3136V61.3836C104.681 61.8936 104.816 62.2936 105.086 62.5836C105.356 62.8636 105.726 63.0036 106.196 63.0036ZM111.305 64.4736V56.2236H113.075V57.7986H113.54L112.985 58.7586C112.985 57.8686 113.185 57.1986 113.585 56.7486C113.985 56.2986 114.575 56.0736 115.355 56.0736C116.245 56.0736 116.945 56.3486 117.455 56.8986C117.965 57.4486 118.22 58.2086 118.22 59.1786V59.7786H116.255V59.3136C116.255 58.7836 116.115 58.3736 115.835 58.0836C115.565 57.7936 115.19 57.6486 114.71 57.6486C114.22 57.6486 113.84 57.7936 113.57 58.0836C113.31 58.3736 113.18 58.7836 113.18 59.3136V64.4736H111.305ZM122.639 64.6086C121.939 64.6086 121.329 64.4786 120.809 64.2186C120.299 63.9486 119.899 63.5736 119.609 63.0936C119.329 62.6036 119.189 62.0286 119.189 61.3686V59.3286C119.189 58.6686 119.329 58.0986 119.609 57.6186C119.899 57.1286 120.299 56.7536 120.809 56.4936C121.329 56.2236 121.939 56.0886 122.639 56.0886C123.349 56.0886 123.959 56.2236 124.469 56.4936C124.979 56.7536 125.374 57.1286 125.654 57.6186C125.944 58.0986 126.089 58.6636 126.089 59.3136V61.3686C126.089 62.0286 125.944 62.6036 125.654 63.0936C125.374 63.5736 124.979 63.9486 124.469 64.2186C123.959 64.4786 123.349 64.6086 122.639 64.6086ZM122.639 62.9736C123.139 62.9736 123.524 62.8386 123.794 62.5686C124.074 62.2886 124.214 61.8886 124.214 61.3686V59.3286C124.214 58.7986 124.074 58.3986 123.794 58.1286C123.524 57.8586 123.139 57.7236 122.639 57.7236C122.149 57.7236 121.764 57.8586 121.484 58.1286C121.204 58.3986 121.064 58.7986 121.064 59.3286V61.3686C121.064 61.8886 121.204 62.2886 121.484 62.5686C121.764 62.8386 122.149 62.9736 122.639 62.9736ZM127.613 67.1736V65.4336H129.818C130.318 65.4336 130.703 65.2986 130.973 65.0286C131.243 64.7586 131.378 64.3786 131.378 63.8886V57.9636H128.063V56.2236H133.253V63.9336C133.253 64.9336 132.953 65.7236 132.353 66.3036C131.753 66.8836 130.943 67.1736 129.923 67.1736H127.613ZM132.248 54.8436C131.868 54.8436 131.568 54.7486 131.348 54.5586C131.128 54.3586 131.018 54.0936 131.018 53.7636C131.018 53.4336 131.128 53.1736 131.348 52.9836C131.568 52.7836 131.868 52.6836 132.248 52.6836C132.628 52.6836 132.928 52.7836 133.148 52.9836C133.368 53.1736 133.478 53.4336 133.478 53.7636C133.478 54.0936 133.368 54.3586 133.148 54.5586C132.928 54.7486 132.628 54.8436 132.248 54.8436ZM139.142 64.6236C138.442 64.6236 137.832 64.4886 137.312 64.2186C136.792 63.9486 136.387 63.5736 136.097 63.0936C135.817 62.6036 135.677 62.0336 135.677 61.3836V59.3136C135.677 58.6636 135.817 58.0986 136.097 57.6186C136.387 57.1286 136.792 56.7486 137.312 56.4786C137.832 56.2086 138.442 56.0736 139.142 56.0736C139.832 56.0736 140.432 56.2086 140.942 56.4786C141.462 56.7486 141.862 57.1286 142.142 57.6186C142.432 58.0986 142.577 58.6636 142.577 59.3136V60.7986H137.492V61.3836C137.492 61.9636 137.632 62.4036 137.912 62.7036C138.192 62.9936 138.607 63.1386 139.157 63.1386C139.577 63.1386 139.917 63.0686 140.177 62.9286C140.437 62.7786 140.602 62.5636 140.672 62.2836H142.517C142.377 62.9936 141.997 63.5636 141.377 63.9936C140.767 64.4136 140.022 64.6236 139.142 64.6236ZM140.762 59.7486V59.2986C140.762 58.7286 140.627 58.2936 140.357 57.9936C140.087 57.6836 139.682 57.5286 139.142 57.5286C138.602 57.5286 138.192 57.6836 137.912 57.9936C137.632 58.3036 137.492 58.7436 137.492 59.3136V59.6286L140.897 59.5986L140.762 59.7486ZM147.416 64.6236C146.716 64.6236 146.101 64.4936 145.571 64.2336C145.051 63.9636 144.646 63.5886 144.356 63.1086C144.066 62.6186 143.921 62.0436 143.921 61.3836V59.3136C143.921 58.6436 144.066 58.0686 144.356 57.5886C144.646 57.1086 145.051 56.7386 145.571 56.4786C146.101 56.2086 146.716 56.0736 147.416 56.0736C148.456 56.0736 149.286 56.3436 149.906 56.8836C150.526 57.4136 150.851 58.1386 150.881 59.0586H149.006C148.976 58.6286 148.821 58.2986 148.541 58.0686C148.271 57.8286 147.896 57.7086 147.416 57.7086C146.916 57.7086 146.521 57.8486 146.231 58.1286C145.941 58.3986 145.796 58.7886 145.796 59.2986V61.3836C145.796 61.8936 145.941 62.2886 146.231 62.5686C146.521 62.8486 146.916 62.9886 147.416 62.9886C147.896 62.9886 148.271 62.8736 148.541 62.6436C148.821 62.4036 148.976 62.0686 149.006 61.6386H150.881C150.851 62.5586 150.526 63.2886 149.906 63.8286C149.286 64.3586 148.456 64.6236 147.416 64.6236ZM156.515 64.4736C155.725 64.4736 155.105 64.2536 154.655 63.8136C154.215 63.3736 153.995 62.7686 153.995 61.9986V57.9186H151.76V56.2236H153.995V53.8986H155.885V56.2236H159.05V57.9186H155.885V61.9986C155.885 62.5186 156.14 62.7786 156.65 62.7786H158.9V64.4736H156.515ZM163.545 64.6086C162.915 64.6086 162.365 64.5086 161.895 64.3086C161.425 64.1086 161.055 63.8336 160.785 63.4836C160.525 63.1236 160.385 62.7036 160.365 62.2236H162.24C162.26 62.4836 162.385 62.6936 162.615 62.8536C162.855 63.0136 163.165 63.0936 163.545 63.0936H164.205C164.665 63.0936 165.01 63.0036 165.24 62.8236C165.47 62.6436 165.585 62.3986 165.585 62.0886C165.585 61.7986 165.48 61.5736 165.27 61.4136C165.07 61.2436 164.755 61.1336 164.325 61.0836L163.305 60.9336C162.365 60.8036 161.675 60.5536 161.235 60.1836C160.795 59.8136 160.575 59.2586 160.575 58.5186C160.575 57.7486 160.835 57.1536 161.355 56.7336C161.875 56.3036 162.64 56.0886 163.65 56.0886H164.22C165.14 56.0886 165.875 56.2936 166.425 56.7036C166.975 57.1136 167.27 57.6636 167.31 58.3536H165.435C165.405 58.1336 165.28 57.9536 165.06 57.8136C164.85 57.6736 164.57 57.6036 164.22 57.6036H163.65C163.22 57.6036 162.905 57.6836 162.705 57.8436C162.515 57.9936 162.42 58.2186 162.42 58.5186C162.42 58.7986 162.505 59.0086 162.675 59.1486C162.845 59.2786 163.12 59.3736 163.5 59.4336L164.565 59.5836C165.545 59.7236 166.265 59.9886 166.725 60.3786C167.195 60.7586 167.43 61.3236 167.43 62.0736C167.43 62.8736 167.155 63.4986 166.605 63.9486C166.065 64.3886 165.265 64.6086 164.205 64.6086H163.545ZM180.033 64.6086C179.403 64.6086 178.853 64.5086 178.383 64.3086C177.913 64.1086 177.543 63.8336 177.273 63.4836C177.013 63.1236 176.873 62.7036 176.853 62.2236H178.728C178.748 62.4836 178.873 62.6936 179.103 62.8536C179.343 63.0136 179.653 63.0936 180.033 63.0936H180.693C181.153 63.0936 181.498 63.0036 181.728 62.8236C181.958 62.6436 182.073 62.3986 182.073 62.0886C182.073 61.7986 181.968 61.5736 181.758 61.4136C181.558 61.2436 181.243 61.1336 180.813 61.0836L179.793 60.9336C178.853 60.8036 178.163 60.5536 177.723 60.1836C177.283 59.8136 177.063 59.2586 177.063 58.5186C177.063 57.7486 177.323 57.1536 177.843 56.7336C178.363 56.3036 179.128 56.0886 180.138 56.0886H180.708C181.628 56.0886 182.363 56.2936 182.913 56.7036C183.463 57.1136 183.758 57.6636 183.798 58.3536H181.923C181.893 58.1336 181.768 57.9536 181.548 57.8136C181.338 57.6736 181.058 57.6036 180.708 57.6036H180.138C179.708 57.6036 179.393 57.6836 179.193 57.8436C179.003 57.9936 178.908 58.2186 178.908 58.5186C178.908 58.7986 178.993 59.0086 179.163 59.1486C179.333 59.2786 179.608 59.3736 179.988 59.4336L181.053 59.5836C182.033 59.7236 182.753 59.9886 183.213 60.3786C183.683 60.7586 183.918 61.3236 183.918 62.0736C183.918 62.8736 183.643 63.4986 183.093 63.9486C182.553 64.3886 181.753 64.6086 180.693 64.6086H180.033ZM188.592 64.6086C187.892 64.6086 187.282 64.4786 186.762 64.2186C186.252 63.9486 185.852 63.5736 185.562 63.0936C185.282 62.6036 185.142 62.0286 185.142 61.3686V59.3286C185.142 58.6686 185.282 58.0986 185.562 57.6186C185.852 57.1286 186.252 56.7536 186.762 56.4936C187.282 56.2236 187.892 56.0886 188.592 56.0886C189.302 56.0886 189.912 56.2236 190.422 56.4936C190.932 56.7536 191.327 57.1286 191.607 57.6186C191.897 58.0986 192.042 58.6636 192.042 59.3136V61.3686C192.042 62.0286 191.897 62.6036 191.607 63.0936C191.327 63.5736 190.932 63.9486 190.422 64.2186C189.912 64.4786 189.302 64.6086 188.592 64.6086ZM188.592 62.9736C189.092 62.9736 189.477 62.8386 189.747 62.5686C190.027 62.2886 190.167 61.8886 190.167 61.3686V59.3286C190.167 58.7986 190.027 58.3986 189.747 58.1286C189.477 57.8586 189.092 57.7236 188.592 57.7236C188.102 57.7236 187.717 57.8586 187.437 58.1286C187.157 58.3986 187.017 58.7986 187.017 59.3286V61.3686C187.017 61.8886 187.157 62.2886 187.437 62.5686C187.717 62.8386 188.102 62.9736 188.592 62.9736ZM196.836 64.6086C196.136 64.6086 195.526 64.4786 195.006 64.2186C194.496 63.9486 194.096 63.5736 193.806 63.0936C193.526 62.6036 193.386 62.0286 193.386 61.3686V59.3286C193.386 58.6686 193.526 58.0986 193.806 57.6186C194.096 57.1286 194.496 56.7536 195.006 56.4936C195.526 56.2236 196.136 56.0886 196.836 56.0886C197.546 56.0886 198.156 56.2236 198.666 56.4936C199.176 56.7536 199.571 57.1286 199.851 57.6186C200.141 58.0986 200.286 58.6636 200.286 59.3136V61.3686C200.286 62.0286 200.141 62.6036 199.851 63.0936C199.571 63.5736 199.176 63.9486 198.666 64.2186C198.156 64.4786 197.546 64.6086 196.836 64.6086ZM196.836 62.9736C197.336 62.9736 197.721 62.8386 197.991 62.5686C198.271 62.2886 198.411 61.8886 198.411 61.3686V59.3286C198.411 58.7986 198.271 58.3986 197.991 58.1286C197.721 57.8586 197.336 57.7236 196.836 57.7236C196.346 57.7236 195.961 57.8586 195.681 58.1286C195.401 58.3986 195.261 58.7986 195.261 59.3286V61.3686C195.261 61.8886 195.401 62.2886 195.681 62.5686C195.961 62.8386 196.346 62.9736 196.836 62.9736ZM201.735 64.4736V56.2236H203.565V57.7986H204.075L203.565 58.2336C203.565 57.5536 203.76 57.0236 204.15 56.6436C204.55 56.2636 205.095 56.0736 205.785 56.0736C206.595 56.0736 207.24 56.3436 207.72 56.8836C208.21 57.4236 208.455 58.1486 208.455 59.0586V64.4736H206.58V59.2536C206.58 58.7536 206.45 58.3686 206.19 58.0986C205.93 57.8286 205.565 57.6936 205.095 57.6936C204.635 57.6936 204.27 57.8336 204 58.1136C203.74 58.3936 203.61 58.7936 203.61 59.3136V64.4736H201.735ZM213.148 64.6236C212.718 64.6236 212.378 64.4986 212.128 64.2486C211.868 63.9986 211.738 63.6586 211.738 63.2286C211.738 62.7986 211.868 62.4586 212.128 62.2086C212.378 61.9486 212.718 61.8186 213.148 61.8186C213.578 61.8186 213.923 61.9486 214.183 62.2086C214.433 62.4586 214.558 62.7986 214.558 63.2286C214.558 63.6586 214.433 63.9986 214.183 64.2486C213.923 64.4986 213.578 64.6236 213.148 64.6236ZM220.813 64.6236C220.383 64.6236 220.043 64.4986 219.793 64.2486C219.533 63.9986 219.403 63.6586 219.403 63.2286C219.403 62.7986 219.533 62.4586 219.793 62.2086C220.043 61.9486 220.383 61.8186 220.813 61.8186C221.243 61.8186 221.588 61.9486 221.848 62.2086C222.098 62.4586 222.223 62.7986 222.223 63.2286C222.223 63.6586 222.098 63.9986 221.848 64.2486C221.588 64.4986 221.243 64.6236 220.813 64.6236ZM228.493 64.6236C228.063 64.6236 227.718 64.4986 227.458 64.2486C227.208 63.9986 227.083 63.6586 227.083 63.2286C227.083 62.7986 227.208 62.4586 227.458 62.2086C227.718 61.9486 228.063 61.8186 228.493 61.8186C228.923 61.8186 229.263 61.9486 229.513 62.2086C229.773 62.4586 229.903 62.7986 229.903 63.2286C229.903 63.6586 229.773 63.9986 229.513 64.2486C229.263 64.4986 228.923 64.6236 228.493 64.6236Z" fill="#1B1B1B"/>
<path d="M54.989 17.467H22.6425V23.2894H25.8771V26.2006H29.1118V29.1118H32.3464V32.023H35.5811V37.8453H32.3464V40.7565H29.1118V43.6677H25.8771V46.5789H22.6425V52.4013H54.989V46.5789H51.7543V43.6677H48.5197V40.7565H45.285V37.8453H42.0504V32.023H45.285V29.1118H48.5197V26.2006H51.7543V23.2894H54.989V17.467Z" fill="#F9DF70"/>
<path d="M51.7543 23.2895H54.989V26.2006H51.7543V23.2895Z" fill="#1B1B1B"/>
<path d="M48.5197 26.2006H51.7543V29.1118H48.5197V26.2006Z" fill="#1B1B1B"/>
<path d="M45.285 29.1118H48.5197V32.023H45.285V29.1118Z" fill="#1B1B1B"/>
<path d="M22.6425 23.2895H25.8771V26.2006H22.6425V23.2895Z" fill="#1B1B1B"/>
<path d="M25.8771 26.2006H29.1118V29.1118H25.8771V26.2006Z" fill="#1B1B1B"/>
<path d="M29.1118 29.1118H32.3464V32.023H29.1118V29.1118Z" fill="#1B1B1B"/>
<path d="M45.285 37.8454H48.5197V40.7566H45.285V37.8454Z" fill="#1B1B1B"/>
<path d="M48.5197 40.7566H51.7543V43.6677H48.5197V40.7566Z" fill="#1B1B1B"/>
<path d="M51.7543 43.6677H54.989V46.5789H51.7543V43.6677Z" fill="#1B1B1B"/>
<path d="M29.1118 37.8454H32.3464V40.7566H29.1118V37.8454Z" fill="#1B1B1B"/>
<path d="M25.8771 40.7566H29.1118V43.6677H25.8771V40.7566Z" fill="#1B1B1B"/>
<path d="M22.6425 43.6677H25.8771V46.5789H22.6425V43.6677Z" fill="#1B1B1B"/>
<path d="M58.2236 46.5789H54.989V52.4013H58.2236V46.5789Z" fill="#1B1B1B"/>
<path d="M54.989 55.3125V52.4013H22.6425V55.3125H54.989Z" fill="#1B1B1B"/>
<path d="M22.6425 46.5789H19.4078V52.4013H22.6425V46.5789Z" fill="#1B1B1B"/>
<path d="M35.5811 32.023H32.3464V37.8454H35.5811V32.023Z" fill="#1B1B1B"/>
<path d="M45.285 32.023H42.0504V37.8454H45.285V32.023Z" fill="#1B1B1B"/>
<path d="M54.989 23.2895H58.2236V17.4671H54.989V23.2895Z" fill="#1B1B1B"/>
<path d="M22.6425 14.5559V17.4671H54.989V14.5559H22.6425Z" fill="#1B1B1B"/>
<path d="M19.4078 23.2895H22.6425V17.4671H19.4078V23.2895Z" fill="#1B1B1B"/>
<defs>
<filter id="filter0_d_68_551" x="32" y="34" width="236" height="52" filterUnits="userSpaceOnUse" color-interpolation-filters="sRGB">
<feFlood flood-opacity="0" result="BackgroundImageFix"/>
<feColorMatrix in="SourceAlpha" type="matrix" values="0 0 0 0 0 0 0 0 0 0 0 0 0 0 0 0 0 0 127 0" result="hardAlpha"/>
<feOffset dx="3" dy="5"/>
<feComposite in2="hardAlpha" operator="out"/>
<feColorMatrix type="matrix" values="0 0 0 0 0.905882 0 0 0 0 0.776471 0 0 0 0 0.235294 0 0 0 1 0"/>
<feBlend mode="normal" in2="BackgroundImageFix" result="effect1_dropShadow_68_551"/>
<feBlend mode="normal" in="SourceGraphic" in2="effect1_dropShadow_68_551" result="shape"/>
</filter>
</defs>
</svg>
