<svg width="160" height="120" viewBox="0 0 122 104" fill="none" xmlns="http://www.w3.org/2000/svg">
<path d="M95.143 2.03797L9.34556 16.3955L2.26857 28.8988L9.63875 72.9412L15.1604 72.0172L16.0816 77.5225L19.4796 76.9539L20.0465 80.3418L38.3103 77.2855L41.8537 98.4597L59.5473 73.7316L102.446 66.5528L105.277 62.5963L104.356 57.091L109.028 56.3092L108.39 52.4978L111.788 51.9292L104.63 9.15721L101.232 9.72582L100.666 6.33794L95.9934 7.11979L95.143 2.03797Z" fill="white"/>
<path d="M88.2972 7.3111L12.2191 20.0422L5.94389 31.1299L12.4797 70.1864L17.3758 69.3671L18.1928 74.2491L21.2058 73.7449L21.7086 76.7493L37.9034 74.0392L41.0456 92.8163L56.7347 70.8879L94.7737 64.5223L97.284 61.0138L96.467 56.1317L100.61 55.4385L100.044 52.0586L103.057 51.5544L96.71 13.6245L93.697 14.1287L93.1942 11.1243L89.0514 11.8176L88.2972 7.3111Z" fill="#B2B6F4"/>
<path fill-rule="evenodd" clip-rule="evenodd" d="M11.9515 19.6743L88.6278 6.84305L89.3811 11.345L93.5262 10.6514L94.0285 13.6527L97.0431 13.1482L103.51 51.79L100.495 52.2945L101.06 55.671L96.9148 56.3646L97.6942 61.022L94.9979 64.7845L56.9382 71.1535L40.7916 93.6844L37.5638 74.3956L21.3602 77.1072L20.8579 74.1059L17.8433 74.6104L17.0272 69.7332L12.1284 70.553L5.5142 31.0283L11.9515 19.6743ZM12.4371 20.3643L6.31224 31.1673L12.7565 69.6766L17.6552 68.8568L18.4714 73.7339L21.486 73.2294L21.9883 76.2308L38.1919 73.5192L41.2422 91.7468L56.5004 70.4554L94.5601 64.0864L96.8885 60.8373L96.0356 55.7404L100.181 55.0468L99.6157 51.6703L102.63 51.1658L96.415 14.0246L93.4004 14.5291L92.8981 11.5278L88.753 12.2215L87.9997 7.71949L12.4371 20.3643Z" fill="#1B1B1B"/>
<path fill-rule="evenodd" clip-rule="evenodd" d="M16.0322 16.9276L92.7084 4.0964L93.4697 8.64551L97.6148 7.95185L98.1223 10.9846L101.137 10.4801L107.671 49.5266L104.656 50.0311L105.227 53.4429L101.082 54.1365L101.87 58.8427L99.1791 62.6389L61.1194 69.0079L45.0067 91.7408L41.7451 72.25L25.5414 74.9616L25.0339 71.9289L22.0193 72.4333L21.1946 67.5051L16.2958 68.3249L9.61241 28.3863L16.0322 16.9276ZM16.5191 17.6255L10.4109 28.5281L16.9226 67.4406L21.8214 66.6208L22.6461 71.549L25.6607 71.0446L26.1682 74.0773L42.3719 71.3657L45.4541 89.7842L60.6804 68.3019L98.7401 61.9329L101.064 58.6547L100.202 53.5045L104.347 52.8108L103.776 49.399L106.791 48.8945L100.51 11.3644L97.4955 11.8689L96.988 8.83616L92.8429 9.52981L92.0817 4.98071L16.5191 17.6255Z" fill="#1B1B1B"/>
<path d="M92.3779 4.56446L16.2997 17.2956L10.042 28.4871L16.6473 67.9591L21.5434 67.1398L22.3691 72.0738L25.3821 71.5696L25.8902 74.6059L42.0851 71.8958L45.2607 90.8727L60.9163 68.7445L98.9554 62.379L101.46 58.8385L100.635 53.9045L104.777 53.2112L104.206 49.7953L107.219 49.2911L100.804 10.9577L97.7911 11.4619L97.283 8.42564L93.1401 9.11892L92.3779 4.56446Z" fill="#A6EDFD"/>
<path d="M30.7505 42.8857L28.803 31.2475L25.1537 31.8582L24.6916 29.0966L34.9489 27.3801L35.4111 30.1417L31.7618 30.7524L33.7094 42.3905L30.7505 42.8857ZM38.4556 41.5963L36.0459 27.1965L39.0047 26.7014L39.929 32.2246L43.2429 31.67L42.3187 26.1468L45.2775 25.6517L47.6872 40.0515L44.7283 40.5466L43.7051 34.4316L40.3911 34.9862L41.4144 41.1012L38.4556 41.5963ZM48.4883 39.9174L49.6095 24.9268L53.3573 24.2996L59.3374 38.1019L56.3194 38.6069L55.0843 35.4677L51.652 36.0421L51.5063 39.4124L48.4883 39.9174ZM51.7491 33.5925L54.1753 33.1865L52.904 29.8303C52.7283 29.346 52.5471 28.8693 52.3605 28.4004C52.1848 27.916 52.0476 27.5402 51.9488 27.2729C51.9424 27.5578 51.9339 27.9513 51.9232 28.4533C51.9258 28.953 51.9162 29.4616 51.8946 29.9789L51.7491 33.5925ZM63.2748 37.443L61.3273 25.8048L57.678 26.4155L57.2159 23.6539L67.4733 21.9374L67.9354 24.699L64.2861 25.3097L66.2337 36.9478L63.2748 37.443ZM70.806 26.7534L71.3575 20.3546L74.9081 19.7604L73.3704 26.3243L70.806 26.7534ZM86.4701 33.7642C85.4576 33.9337 84.5479 33.9101 83.7411 33.6937C82.9343 33.4772 82.2753 33.094 81.7642 32.5442C81.2531 31.9943 80.9272 31.2986 80.7863 30.4569L83.7452 29.9618C83.8266 30.4484 84.0756 30.8055 84.4923 31.0332C84.9198 31.2455 85.4558 31.2978 86.1002 31.19C86.7183 31.0865 87.1752 30.8681 87.4709 30.5348C87.7797 30.1992 87.8934 29.7881 87.812 29.3015C87.7416 28.8807 87.5496 28.5411 87.2359 28.2826C86.9223 28.0242 86.52 27.882 86.029 27.856L84.5131 27.7649C83.2417 27.6803 82.1992 27.3072 81.3855 26.6458C80.5828 25.969 80.0868 25.0651 79.8976 23.9342C79.7567 23.0925 79.8253 22.3308 80.1032 21.6489C80.3921 20.9517 80.863 20.3727 81.5159 19.9119C82.1688 19.4512 82.9818 19.1394 83.955 18.9765C85.4278 18.7301 86.6533 18.9035 87.6313 19.4969C88.6203 20.0749 89.2182 20.982 89.425 22.2182L86.4662 22.7133C86.3891 22.253 86.1642 21.9189 85.7915 21.7109C85.4318 21.5007 84.9496 21.4462 84.3447 21.5475C83.7792 21.6421 83.3672 21.8462 83.1088 22.1598C82.8481 22.4603 82.7574 22.8473 82.8366 23.3207C82.9071 23.7415 83.0859 24.0833 83.3732 24.3462C83.6715 24.5937 84.053 24.7326 84.5177 24.763L86.1158 24.8606C87.4398 24.9364 88.4944 25.3007 89.2795 25.9534C90.0625 26.5929 90.5519 27.4979 90.7477 28.6683C90.8886 29.5099 90.8025 30.2882 90.4895 31.0029C90.1897 31.7155 89.6947 32.3121 89.0045 32.7926C88.3275 33.2709 87.4827 33.5948 86.4701 33.7642ZM46.5408 62.5492L44.1311 48.1495L47.4647 47.5916L49.5456 51.9073C49.7694 52.3566 49.944 52.7532 50.0691 53.0972C50.2075 53.4391 50.2953 53.6813 50.3327 53.8237C50.3216 53.6769 50.3192 53.4204 50.3256 53.0543C50.3451 52.6861 50.3809 52.2542 50.4332 51.7588L50.9759 47.004L54.3096 46.4462L56.7192 60.8459L54.0168 61.2982L53.3566 57.353C53.2356 56.6297 53.1222 55.8714 53.0165 55.078C52.9217 54.2692 52.8346 53.4659 52.7551 52.668C52.6757 51.8702 52.6116 51.1239 52.563 50.4291C52.5121 49.7211 52.47 49.1063 52.4368 48.5846L51.8692 55.3713L49.364 55.7906L46.5388 49.5716C46.686 50.0471 46.8497 50.6213 47.0299 51.2941C47.2078 51.9538 47.3892 52.6738 47.5738 53.454C47.7694 54.2189 47.9551 55.0057 48.131 55.8144C48.3069 56.6231 48.4576 57.4023 48.583 58.1518L49.2432 62.097L46.5408 62.5492ZM58.1318 60.6096L55.7221 46.2098L64.5987 44.7244L65.0212 47.2492L59.0443 48.2494L59.5857 51.4844L64.8721 50.5998L65.2947 53.1247L60.0082 54.0093L60.6089 57.5994L66.5858 56.5992L67.0084 59.1241L58.1318 60.6096ZM71.3995 53.4212L69.84 46.889L69.3449 43.9301L72.4615 43.4086L72.9567 46.3674L73.6088 53.0515L71.3995 53.4212ZM73.0335 58.2173C72.5864 58.2921 72.2038 58.2277 71.8859 58.024C71.5788 57.805 71.3912 57.4917 71.323 57.084C71.2526 56.6632 71.328 56.3059 71.5492 56.012C71.7835 55.7159 72.1243 55.5305 72.5714 55.4557L73.1631 55.3566C73.6103 55.2818 73.9862 55.3473 74.291 55.5532C74.609 55.7568 74.8032 56.069 74.8736 56.4899C74.9441 56.9107 74.8621 57.2691 74.6277 57.5652C74.4065 57.8591 74.0658 58.0445 73.6056 58.1215L73.0335 58.2173Z" fill="#1B1B1B"/>
</svg>
