<svg width="118" height="104" viewBox="0 0 118 104" fill="none" xmlns="http://www.w3.org/2000/svg">
<path d="M95.143 2.03797L9.34556 16.3955L2.26857 28.8988L9.63875 72.9412L15.1604 72.0172L16.0816 77.5225L19.4796 76.9539L20.0465 80.3418L38.3103 77.2855L41.8537 98.4597L59.5473 73.7316L102.446 66.5528L105.277 62.5963L104.356 57.091L109.028 56.3092L108.39 52.4978L111.788 51.9292L104.63 9.15721L101.232 9.72582L100.666 6.33794L95.9934 7.11979L95.143 2.03797Z" fill="white"/>
<path d="M88.2972 7.3111L12.2191 20.0422L5.94389 31.1299L12.4797 70.1864L17.3758 69.3671L18.1928 74.2491L21.2058 73.7449L21.7086 76.7493L37.9034 74.0392L41.0456 92.8163L56.7347 70.8879L94.7737 64.5223L97.284 61.0138L96.467 56.1317L100.61 55.4385L100.044 52.0586L103.057 51.5544L96.71 13.6245L93.697 14.1287L93.1942 11.1243L89.0514 11.8176L88.2972 7.3111Z" fill="#B2B6F4"/>
<path fill-rule="evenodd" clip-rule="evenodd" d="M11.9515 19.6743L88.6278 6.84305L89.3811 11.345L93.5262 10.6514L94.0285 13.6527L97.0431 13.1482L103.51 51.79L100.495 52.2945L101.06 55.671L96.9148 56.3646L97.6942 61.022L94.9979 64.7845L56.9382 71.1535L40.7916 93.6844L37.5638 74.3956L21.3602 77.1072L20.8579 74.1059L17.8433 74.6104L17.0272 69.7332L12.1284 70.553L5.5142 31.0283L11.9515 19.6743ZM12.4371 20.3643L6.31224 31.1673L12.7565 69.6766L17.6552 68.8568L18.4714 73.7339L21.486 73.2294L21.9883 76.2308L38.1919 73.5192L41.2422 91.7468L56.5004 70.4554L94.5601 64.0864L96.8885 60.8373L96.0356 55.7404L100.181 55.0468L99.6157 51.6703L102.63 51.1658L96.415 14.0246L93.4004 14.5291L92.8981 11.5278L88.753 12.2215L87.9997 7.71949L12.4371 20.3643Z" fill="#1B1B1B"/>
<path fill-rule="evenodd" clip-rule="evenodd" d="M16.0322 16.9276L92.7084 4.0964L93.4697 8.64551L97.6148 7.95185L98.1223 10.9846L101.137 10.4801L107.671 49.5266L104.656 50.0311L105.227 53.4429L101.082 54.1365L101.87 58.8427L99.1791 62.6389L61.1194 69.0079L45.0067 91.7408L41.7451 72.25L25.5414 74.9616L25.0339 71.9289L22.0193 72.4333L21.1946 67.5051L16.2958 68.3249L9.61241 28.3863L16.0322 16.9276ZM16.5191 17.6255L10.4109 28.5281L16.9226 67.4406L21.8214 66.6208L22.6461 71.549L25.6607 71.0446L26.1682 74.0773L42.3719 71.3657L45.4541 89.7842L60.6804 68.3019L98.7401 61.9329L101.064 58.6547L100.202 53.5045L104.347 52.8108L103.776 49.399L106.791 48.8945L100.51 11.3644L97.4955 11.8689L96.988 8.83616L92.8429 9.52981L92.0817 4.98071L16.5191 17.6255Z" fill="#1B1B1B"/>
<path d="M92.3779 4.56446L16.2997 17.2956L10.042 28.4871L16.6473 67.9591L21.5434 67.1398L22.3691 72.0738L25.3821 71.5696L25.8902 74.6059L42.0851 71.8958L45.2607 90.8727L60.9163 68.7445L98.9554 62.379L101.46 58.8385L100.635 53.9045L104.777 53.2112L104.206 49.7953L107.219 49.2911L100.804 10.9577L97.7911 11.4619L97.283 8.42564L93.1401 9.11892L92.3779 4.56446Z" fill="#A6EDFD"/>
</svg>
