<svg width="69" height="72" viewBox="0 0 69 72" fill="none" xmlns="http://www.w3.org/2000/svg">
<path d="M33.3305 18.7118L18.7118 4.0932L11.6949 5.26269L3.50842 12.2796L5.26266 36.839L20.4661 52.0424L29.2372 61.3983L34.4999 67.8305L41.5169 59.6441L49.7033 49.7034L57.8898 45.0254L64.322 33.9152V12.2796L57.8898 4.0932L49.7033 5.26269L40.3474 14.0339L36.2542 19.8813L33.3305 18.7118Z" fill="#B2B6F4"/>
<path d="M8.1864 39.7627H16.3728V47.9491H8.1864V39.7627Z" fill="#000000"/>
<path d="M16.3729 47.9492H24.5594V56.1356H16.3729V47.9492Z" fill="#000000"/>
<path d="M24.5593 56.1356H32.7458V64.322H24.5593V56.1356Z" fill="#000000"/>
<path d="M36.2543 56.1356H44.4407V64.322H36.2543V56.1356Z" fill="#000000"/>
<path d="M44.4407 47.9492H52.6271V56.1356H44.4407V47.9492Z" fill="#000000"/>
<path d="M52.6271 39.7627H60.8135V47.9491H52.6271V39.7627Z" fill="#000000"/>
<path d="M8.1864 0H22.2203V8.18644H8.1864V0Z" fill="#000000"/>
<path d="M46.7797 0H60.8136V8.18644H46.7797V0Z" fill="#000000"/>
<path d="M22.2203 8.18646H30.4068V16.3729H22.2203V8.18646Z" fill="#000000"/>
<path d="M30.4067 16.3729H38.5932V24.5594H30.4067V16.3729Z" fill="#000000"/>
<path d="M30.4067 63.1525H38.5932V71.339H30.4067V63.1525Z" fill="#000000"/>
<path d="M38.5933 8.18646H46.7797V16.3729H38.5933V8.18646Z" fill="#000000"/>
<path d="M0 8.18646H8.18644V39.7627H0V8.18646Z" fill="#000000"/>
<path d="M60.8136 8.18646H69V39.7627H60.8136V8.18646Z" fill="#000000"/>
</svg>
