<svg width="313" height="433" viewBox="0 0 313 433" fill="none" xmlns="http://www.w3.org/2000/svg">
<g clip-path="url(#clip0_123_331)">
<path fill-rule="evenodd" clip-rule="evenodd" d="M34.4449 94.5442L37.1802 97.2795L35.8126 98.6471L37.1802 100.015L35.8126 101.382L37.1802 102.75L26.239 113.691L18.0332 105.485L28.9743 94.5442L30.342 95.9118L31.7096 94.5442L33.0773 95.9118L34.4449 94.5442ZM26.239 102.75L27.6067 101.382L30.342 104.118L28.9743 105.485L26.239 102.75ZM33.0773 101.382L34.4449 102.75L31.7096 105.485L30.342 104.118L33.0773 101.382ZM33.0773 101.382L34.4449 100.015L31.7096 97.2795L30.342 98.6471L28.9743 97.2795L26.239 100.015L27.6067 101.382L30.342 98.6471L33.0773 101.382Z" fill="#F8B7C2"/>
<path d="M15.2979 105.485L13.9302 104.118L12.5626 105.485L11.1949 104.118L15.2979 100.015L16.6655 101.382L18.0332 100.015L19.4008 101.382L15.2979 105.485Z" fill="#F8B7C2"/>
<path d="M31.7096 116.427L30.342 115.059L31.7096 113.691L30.342 112.324L26.239 116.427L27.6067 117.794L26.239 119.162L27.6067 120.529L31.7096 116.427Z" fill="#F8B7C2"/>
<path d="M18.0332 108.221L23.5037 113.691L20.7685 116.427L19.4008 115.059L18.0332 116.427L15.2979 113.691L16.6655 112.324L15.2979 110.956L18.0332 108.221Z" fill="#F8B7C2"/>
<path d="M38.5479 95.9118L37.1802 97.2794L34.4449 94.5441L35.8126 93.1765L38.5479 95.9118Z" fill="#1B1B1B"/>
<path d="M31.7096 94.5441L33.0773 93.1765L34.4449 94.5441L33.0773 95.9118L31.7096 94.5441Z" fill="#1B1B1B"/>
<path d="M28.9743 94.5441L30.342 93.1765L31.7096 94.5441L30.342 95.9118L28.9743 94.5441Z" fill="#1B1B1B"/>
<path fill-rule="evenodd" clip-rule="evenodd" d="M37.1802 102.75L26.239 113.691L18.0332 105.485L28.9743 94.5441L27.6067 93.1765L20.7685 100.015L19.4008 98.6471L18.0332 100.015L16.6655 98.6471L15.2979 100.015L13.9302 98.6471L9.82728 102.75L11.1949 104.118L9.82728 105.485L11.1949 106.853L12.5626 105.485L13.9302 106.853L15.2979 105.485L16.6655 106.853L13.9302 109.588L15.2979 110.956L13.9302 112.324L15.2979 113.691L13.9302 115.059L16.6655 117.794L18.0332 116.426L19.4008 117.794L20.7685 116.426L22.1361 117.794L24.8714 115.059L26.239 116.426L24.8714 117.794L26.239 119.162L24.8714 120.529L26.239 121.897L27.6067 120.529L28.9743 121.897L33.0773 117.794L31.7096 116.426L33.0773 115.059L31.7096 113.691L33.0773 112.324L31.7096 110.956L38.5479 104.118L37.1802 102.75ZM31.7096 113.691L30.342 115.059L31.7096 116.426L27.6067 120.529L26.239 119.162L27.6067 117.794L26.239 116.426L30.342 112.324L31.7096 113.691ZM20.7685 116.426L19.4008 115.059L18.0332 116.426L15.2979 113.691L16.6655 112.324L15.2979 110.956L18.0332 108.221L23.5037 113.691L20.7685 116.426ZM15.2979 105.485L13.9302 104.118L12.5626 105.485L11.1949 104.118L15.2979 100.015L16.6655 101.382L18.0332 100.015L19.4008 101.382L15.2979 105.485Z" fill="#1B1B1B"/>
<path d="M37.1802 100.015L38.5479 101.382L37.1802 102.75L35.8126 101.382L37.1802 100.015Z" fill="#1B1B1B"/>
<path d="M37.1802 100.015L38.5479 98.6471L37.1802 97.2794L35.8126 98.6471L37.1802 100.015Z" fill="#1B1B1B"/>
<path d="M30.342 98.6471L27.6067 101.382L26.239 100.015L28.9743 97.2794L30.342 98.6471Z" fill="#1B1B1B"/>
<path d="M33.0773 101.382L30.342 98.6471L31.7096 97.2794L34.4449 100.015L33.0773 101.382Z" fill="#1B1B1B"/>
<path d="M30.342 104.118L33.0773 101.382L34.4449 102.75L31.7096 105.485L30.342 104.118Z" fill="#1B1B1B"/>
<path d="M30.342 104.118L27.6067 101.382L26.239 102.75L28.9743 105.485L30.342 104.118Z" fill="#1B1B1B"/>
</g>
<g clip-path="url(#clip1_123_331)">
<path fill-rule="evenodd" clip-rule="evenodd" d="M34.4449 392.544L37.1802 395.279L35.8126 396.647L37.1802 398.015L35.8126 399.382L37.1802 400.75L26.239 411.691L18.0332 403.485L28.9743 392.544L30.342 393.912L31.7096 392.544L33.0773 393.912L34.4449 392.544ZM26.239 400.75L27.6067 399.382L30.342 402.118L28.9743 403.485L26.239 400.75ZM33.0773 399.382L34.4449 400.75L31.7096 403.485L30.342 402.118L33.0773 399.382ZM33.0773 399.382L34.4449 398.015L31.7096 395.279L30.342 396.647L28.9743 395.279L26.239 398.015L27.6067 399.382L30.342 396.647L33.0773 399.382Z" fill="#DAD7FF"/>
<path d="M15.2979 403.485L13.9302 402.118L12.5626 403.485L11.1949 402.118L15.2979 398.015L16.6655 399.382L18.0332 398.015L19.4008 399.382L15.2979 403.485Z" fill="#DAD7FF"/>
<path d="M31.7096 414.427L30.342 413.059L31.7096 411.691L30.342 410.324L26.239 414.427L27.6067 415.794L26.239 417.162L27.6067 418.529L31.7096 414.427Z" fill="#DAD7FF"/>
<path d="M18.0332 406.221L23.5037 411.691L20.7685 414.427L19.4008 413.059L18.0332 414.427L15.2979 411.691L16.6655 410.324L15.2979 408.956L18.0332 406.221Z" fill="#DAD7FF"/>
<path d="M38.5479 393.912L37.1802 395.279L34.4449 392.544L35.8126 391.176L38.5479 393.912Z" fill="#1B1B1B"/>
<path d="M31.7096 392.544L33.0773 391.176L34.4449 392.544L33.0773 393.912L31.7096 392.544Z" fill="#1B1B1B"/>
<path d="M28.9743 392.544L30.342 391.176L31.7096 392.544L30.342 393.912L28.9743 392.544Z" fill="#1B1B1B"/>
<path fill-rule="evenodd" clip-rule="evenodd" d="M37.1802 400.75L26.239 411.691L18.0332 403.485L28.9743 392.544L27.6067 391.176L20.7685 398.015L19.4008 396.647L18.0332 398.015L16.6655 396.647L15.2979 398.015L13.9302 396.647L9.82728 400.75L11.1949 402.118L9.82728 403.485L11.1949 404.853L12.5626 403.485L13.9302 404.853L15.2979 403.485L16.6655 404.853L13.9302 407.588L15.2979 408.956L13.9302 410.324L15.2979 411.691L13.9302 413.059L16.6655 415.794L18.0332 414.426L19.4008 415.794L20.7685 414.426L22.1361 415.794L24.8714 413.059L26.239 414.426L24.8714 415.794L26.239 417.162L24.8714 418.529L26.239 419.897L27.6067 418.529L28.9743 419.897L33.0773 415.794L31.7096 414.426L33.0773 413.059L31.7096 411.691L33.0773 410.324L31.7096 408.956L38.5479 402.118L37.1802 400.75ZM31.7096 411.691L30.342 413.059L31.7096 414.426L27.6067 418.529L26.239 417.162L27.6067 415.794L26.239 414.426L30.342 410.324L31.7096 411.691ZM20.7685 414.426L19.4008 413.059L18.0332 414.426L15.2979 411.691L16.6655 410.324L15.2979 408.956L18.0332 406.221L23.5037 411.691L20.7685 414.426ZM15.2979 403.485L13.9302 402.118L12.5626 403.485L11.1949 402.118L15.2979 398.015L16.6655 399.382L18.0332 398.015L19.4008 399.382L15.2979 403.485Z" fill="#1B1B1B"/>
<path d="M37.1802 398.015L38.5479 399.382L37.1802 400.75L35.8126 399.382L37.1802 398.015Z" fill="#1B1B1B"/>
<path d="M37.1802 398.015L38.5479 396.647L37.1802 395.279L35.8126 396.647L37.1802 398.015Z" fill="#1B1B1B"/>
<path d="M30.342 396.647L27.6067 399.382L26.239 398.015L28.9743 395.279L30.342 396.647Z" fill="#1B1B1B"/>
<path d="M33.0773 399.382L30.342 396.647L31.7096 395.279L34.4449 398.015L33.0773 399.382Z" fill="#1B1B1B"/>
<path d="M30.342 402.118L33.0773 399.382L34.4449 400.75L31.7096 403.485L30.342 402.118Z" fill="#1B1B1B"/>
<path d="M30.342 402.118L27.6067 399.382L26.239 400.75L28.9743 403.485L30.342 402.118Z" fill="#1B1B1B"/>
</g>
<g clip-path="url(#clip2_123_331)">
<path fill-rule="evenodd" clip-rule="evenodd" d="M286.445 389.544L289.18 392.279L287.813 393.647L289.18 395.015L287.813 396.382L289.18 397.75L278.239 408.691L270.033 400.485L280.974 389.544L282.342 390.912L283.71 389.544L285.077 390.912L286.445 389.544ZM278.239 397.75L279.607 396.382L282.342 399.118L280.974 400.485L278.239 397.75ZM285.077 396.382L286.445 397.75L283.71 400.485L282.342 399.118L285.077 396.382ZM285.077 396.382L286.445 395.015L283.71 392.279L282.342 393.647L280.974 392.279L278.239 395.015L279.607 396.382L282.342 393.647L285.077 396.382Z" fill="#D59B83"/>
<path d="M267.298 400.485L265.93 399.118L264.563 400.485L263.195 399.118L267.298 395.015L268.666 396.382L270.033 395.015L271.401 396.382L267.298 400.485Z" fill="#D59B83"/>
<path d="M283.71 411.427L282.342 410.059L283.71 408.691L282.342 407.324L278.239 411.427L279.607 412.794L278.239 414.162L279.607 415.529L283.71 411.427Z" fill="#D59B83"/>
<path d="M270.033 403.221L275.504 408.691L272.768 411.427L271.401 410.059L270.033 411.427L267.298 408.691L268.666 407.324L267.298 405.956L270.033 403.221Z" fill="#D59B83"/>
<path d="M290.548 390.912L289.18 392.279L286.445 389.544L287.813 388.176L290.548 390.912Z" fill="#1B1B1B"/>
<path d="M283.71 389.544L285.077 388.176L286.445 389.544L285.077 390.912L283.71 389.544Z" fill="#1B1B1B"/>
<path d="M280.974 389.544L282.342 388.176L283.71 389.544L282.342 390.912L280.974 389.544Z" fill="#1B1B1B"/>
<path fill-rule="evenodd" clip-rule="evenodd" d="M289.18 397.75L278.239 408.691L270.033 400.485L280.974 389.544L279.607 388.176L272.768 395.015L271.401 393.647L270.033 395.015L268.666 393.647L267.298 395.015L265.93 393.647L261.827 397.75L263.195 399.118L261.827 400.485L263.195 401.853L264.563 400.485L265.93 401.853L267.298 400.485L268.666 401.853L265.93 404.588L267.298 405.956L265.93 407.324L267.298 408.691L265.93 410.059L268.666 412.794L270.033 411.426L271.401 412.794L272.768 411.426L274.136 412.794L276.871 410.059L278.239 411.426L276.871 412.794L278.239 414.162L276.871 415.529L278.239 416.897L279.607 415.529L280.974 416.897L285.077 412.794L283.71 411.426L285.077 410.059L283.71 408.691L285.077 407.324L283.71 405.956L290.548 399.118L289.18 397.75ZM283.71 408.691L282.342 410.059L283.71 411.426L279.607 415.529L278.239 414.162L279.607 412.794L278.239 411.426L282.342 407.324L283.71 408.691ZM272.768 411.426L271.401 410.059L270.033 411.426L267.298 408.691L268.666 407.324L267.298 405.956L270.033 403.221L275.504 408.691L272.768 411.426ZM267.298 400.485L265.93 399.118L264.563 400.485L263.195 399.118L267.298 395.015L268.666 396.382L270.033 395.015L271.401 396.382L267.298 400.485Z" fill="#1B1B1B"/>
<path d="M289.18 395.015L290.548 396.382L289.18 397.75L287.813 396.382L289.18 395.015Z" fill="#1B1B1B"/>
<path d="M289.18 395.015L290.548 393.647L289.18 392.279L287.813 393.647L289.18 395.015Z" fill="#1B1B1B"/>
<path d="M282.342 393.647L279.607 396.382L278.239 395.015L280.974 392.279L282.342 393.647Z" fill="#1B1B1B"/>
<path d="M285.077 396.382L282.342 393.647L283.71 392.279L286.445 395.015L285.077 396.382Z" fill="#1B1B1B"/>
<path d="M282.342 399.118L285.077 396.382L286.445 397.75L283.71 400.485L282.342 399.118Z" fill="#1B1B1B"/>
<path d="M282.342 399.118L279.607 396.382L278.239 397.75L280.974 400.485L282.342 399.118Z" fill="#1B1B1B"/>
</g>
<g clip-path="url(#clip3_123_331)">
<path fill-rule="evenodd" clip-rule="evenodd" d="M182.445 85.5442L185.18 88.2795L183.813 89.6471L185.18 91.0148L183.813 92.3824L185.18 93.75L174.239 104.691L166.033 96.4853L176.974 85.5442L178.342 86.9118L179.71 85.5442L181.077 86.9118L182.445 85.5442ZM174.239 93.75L175.607 92.3824L178.342 95.1177L176.974 96.4853L174.239 93.75ZM181.077 92.3824L182.445 93.75L179.71 96.4853L178.342 95.1177L181.077 92.3824ZM181.077 92.3824L182.445 91.0148L179.71 88.2795L178.342 89.6471L176.974 88.2795L174.239 91.0148L175.607 92.3824L178.342 89.6471L181.077 92.3824Z" fill="#F9DF70"/>
<path d="M163.298 96.4853L161.93 95.1177L160.563 96.4853L159.195 95.1177L163.298 91.0148L164.666 92.3824L166.033 91.0148L167.401 92.3824L163.298 96.4853Z" fill="#F9DF70"/>
<path d="M179.71 107.427L178.342 106.059L179.71 104.691L178.342 103.324L174.239 107.427L175.607 108.794L174.239 110.162L175.607 111.529L179.71 107.427Z" fill="#F9DF70"/>
<path d="M166.033 99.2206L171.504 104.691L168.768 107.427L167.401 106.059L166.033 107.427L163.298 104.691L164.666 103.324L163.298 101.956L166.033 99.2206Z" fill="#F9DF70"/>
<path d="M186.548 86.9118L185.18 88.2794L182.445 85.5441L183.813 84.1765L186.548 86.9118Z" fill="#1B1B1B"/>
<path d="M179.71 85.5441L181.077 84.1765L182.445 85.5441L181.077 86.9118L179.71 85.5441Z" fill="#1B1B1B"/>
<path d="M176.974 85.5441L178.342 84.1765L179.71 85.5441L178.342 86.9118L176.974 85.5441Z" fill="#1B1B1B"/>
<path fill-rule="evenodd" clip-rule="evenodd" d="M185.18 93.75L174.239 104.691L166.033 96.4853L176.974 85.5441L175.607 84.1765L168.768 91.0147L167.401 89.6471L166.033 91.0147L164.666 89.6471L163.298 91.0147L161.93 89.6471L157.827 93.75L159.195 95.1176L157.827 96.4853L159.195 97.8529L160.563 96.4853L161.93 97.8529L163.298 96.4853L164.666 97.8529L161.93 100.588L163.298 101.956L161.93 103.324L163.298 104.691L161.93 106.059L164.666 108.794L166.033 107.426L167.401 108.794L168.768 107.426L170.136 108.794L172.871 106.059L174.239 107.426L172.871 108.794L174.239 110.162L172.871 111.529L174.239 112.897L175.607 111.529L176.974 112.897L181.077 108.794L179.71 107.426L181.077 106.059L179.71 104.691L181.077 103.324L179.71 101.956L186.548 95.1176L185.18 93.75ZM179.71 104.691L178.342 106.059L179.71 107.426L175.607 111.529L174.239 110.162L175.607 108.794L174.239 107.426L178.342 103.324L179.71 104.691ZM168.768 107.426L167.401 106.059L166.033 107.426L163.298 104.691L164.666 103.324L163.298 101.956L166.033 99.2206L171.504 104.691L168.768 107.426ZM163.298 96.4853L161.93 95.1176L160.563 96.4853L159.195 95.1176L163.298 91.0147L164.666 92.3823L166.033 91.0147L167.401 92.3823L163.298 96.4853Z" fill="#1B1B1B"/>
<path d="M185.18 91.0147L186.548 92.3823L185.18 93.75L183.813 92.3823L185.18 91.0147Z" fill="#1B1B1B"/>
<path d="M185.18 91.0147L186.548 89.6471L185.18 88.2794L183.813 89.6471L185.18 91.0147Z" fill="#1B1B1B"/>
<path d="M178.342 89.6471L175.607 92.3823L174.239 91.0147L176.974 88.2794L178.342 89.6471Z" fill="#1B1B1B"/>
<path d="M181.077 92.3823L178.342 89.6471L179.71 88.2794L182.445 91.0147L181.077 92.3823Z" fill="#1B1B1B"/>
<path d="M178.342 95.1176L181.077 92.3823L182.445 93.75L179.71 96.4853L178.342 95.1176Z" fill="#1B1B1B"/>
<path d="M178.342 95.1176L175.607 92.3823L174.239 93.75L176.974 96.4853L178.342 95.1176Z" fill="#1B1B1B"/>
</g>
<g clip-path="url(#clip4_123_331)">
<path fill-rule="evenodd" clip-rule="evenodd" d="M193.445 276.544L196.18 279.279L194.813 280.647L196.18 282.015L194.813 283.382L196.18 284.75L185.239 295.691L177.033 287.485L187.974 276.544L189.342 277.912L190.71 276.544L192.077 277.912L193.445 276.544ZM185.239 284.75L186.607 283.382L189.342 286.118L187.974 287.485L185.239 284.75ZM192.077 283.382L193.445 284.75L190.71 287.485L189.342 286.118L192.077 283.382ZM192.077 283.382L193.445 282.015L190.71 279.279L189.342 280.647L187.974 279.279L185.239 282.015L186.607 283.382L189.342 280.647L192.077 283.382Z" fill="#F8B7C2"/>
<path d="M174.298 287.485L172.93 286.118L171.563 287.485L170.195 286.118L174.298 282.015L175.666 283.382L177.033 282.015L178.401 283.382L174.298 287.485Z" fill="#F8B7C2"/>
<path d="M190.71 298.427L189.342 297.059L190.71 295.691L189.342 294.324L185.239 298.427L186.607 299.794L185.239 301.162L186.607 302.529L190.71 298.427Z" fill="#F8B7C2"/>
<path d="M177.033 290.221L182.504 295.691L179.768 298.427L178.401 297.059L177.033 298.427L174.298 295.691L175.666 294.324L174.298 292.956L177.033 290.221Z" fill="#F8B7C2"/>
<path d="M197.548 277.912L196.18 279.279L193.445 276.544L194.813 275.176L197.548 277.912Z" fill="#1B1B1B"/>
<path d="M190.71 276.544L192.077 275.176L193.445 276.544L192.077 277.912L190.71 276.544Z" fill="#1B1B1B"/>
<path d="M187.974 276.544L189.342 275.176L190.71 276.544L189.342 277.912L187.974 276.544Z" fill="#1B1B1B"/>
<path fill-rule="evenodd" clip-rule="evenodd" d="M196.18 284.75L185.239 295.691L177.033 287.485L187.974 276.544L186.607 275.176L179.768 282.015L178.401 280.647L177.033 282.015L175.666 280.647L174.298 282.015L172.93 280.647L168.827 284.75L170.195 286.118L168.827 287.485L170.195 288.853L171.563 287.485L172.93 288.853L174.298 287.485L175.666 288.853L172.93 291.588L174.298 292.956L172.93 294.324L174.298 295.691L172.93 297.059L175.666 299.794L177.033 298.426L178.401 299.794L179.768 298.426L181.136 299.794L183.871 297.059L185.239 298.426L183.871 299.794L185.239 301.162L183.871 302.529L185.239 303.897L186.607 302.529L187.974 303.897L192.077 299.794L190.71 298.426L192.077 297.059L190.71 295.691L192.077 294.324L190.71 292.956L197.548 286.118L196.18 284.75ZM190.71 295.691L189.342 297.059L190.71 298.426L186.607 302.529L185.239 301.162L186.607 299.794L185.239 298.426L189.342 294.324L190.71 295.691ZM179.768 298.426L178.401 297.059L177.033 298.426L174.298 295.691L175.666 294.324L174.298 292.956L177.033 290.221L182.504 295.691L179.768 298.426ZM174.298 287.485L172.93 286.118L171.563 287.485L170.195 286.118L174.298 282.015L175.666 283.382L177.033 282.015L178.401 283.382L174.298 287.485Z" fill="#1B1B1B"/>
<path d="M196.18 282.015L197.548 283.382L196.18 284.75L194.813 283.382L196.18 282.015Z" fill="#1B1B1B"/>
<path d="M196.18 282.015L197.548 280.647L196.18 279.279L194.813 280.647L196.18 282.015Z" fill="#1B1B1B"/>
<path d="M189.342 280.647L186.607 283.382L185.239 282.015L187.974 279.279L189.342 280.647Z" fill="#1B1B1B"/>
<path d="M192.077 283.382L189.342 280.647L190.71 279.279L193.445 282.015L192.077 283.382Z" fill="#1B1B1B"/>
<path d="M189.342 286.118L192.077 283.382L193.445 284.75L190.71 287.485L189.342 286.118Z" fill="#1B1B1B"/>
<path d="M189.342 286.118L186.607 283.382L185.239 284.75L187.974 287.485L189.342 286.118Z" fill="#1B1B1B"/>
</g>
<g clip-path="url(#clip5_123_331)">
<path fill-rule="evenodd" clip-rule="evenodd" d="M34.4449 215.544L37.1802 218.279L35.8126 219.647L37.1802 221.015L35.8126 222.382L37.1802 223.75L26.239 234.691L18.0332 226.485L28.9743 215.544L30.342 216.912L31.7096 215.544L33.0773 216.912L34.4449 215.544ZM26.239 223.75L27.6067 222.382L30.342 225.118L28.9743 226.485L26.239 223.75ZM33.0773 222.382L34.4449 223.75L31.7096 226.485L30.342 225.118L33.0773 222.382ZM33.0773 222.382L34.4449 221.015L31.7096 218.279L30.342 219.647L28.9743 218.279L26.239 221.015L27.6067 222.382L30.342 219.647L33.0773 222.382Z" fill="#94F0D7"/>
<path d="M15.2979 226.485L13.9302 225.118L12.5626 226.485L11.1949 225.118L15.2979 221.015L16.6655 222.382L18.0332 221.015L19.4008 222.382L15.2979 226.485Z" fill="#94F0D7"/>
<path d="M31.7096 237.427L30.342 236.059L31.7096 234.691L30.342 233.324L26.239 237.427L27.6067 238.794L26.239 240.162L27.6067 241.529L31.7096 237.427Z" fill="#94F0D7"/>
<path d="M18.0332 229.221L23.5037 234.691L20.7685 237.427L19.4008 236.059L18.0332 237.427L15.2979 234.691L16.6655 233.324L15.2979 231.956L18.0332 229.221Z" fill="#94F0D7"/>
<path d="M38.5479 216.912L37.1802 218.279L34.4449 215.544L35.8126 214.176L38.5479 216.912Z" fill="#1B1B1B"/>
<path d="M31.7096 215.544L33.0773 214.176L34.4449 215.544L33.0773 216.912L31.7096 215.544Z" fill="#1B1B1B"/>
<path d="M28.9743 215.544L30.342 214.176L31.7096 215.544L30.342 216.912L28.9743 215.544Z" fill="#1B1B1B"/>
<path fill-rule="evenodd" clip-rule="evenodd" d="M37.1802 223.75L26.239 234.691L18.0332 226.485L28.9743 215.544L27.6067 214.176L20.7685 221.015L19.4008 219.647L18.0332 221.015L16.6655 219.647L15.2979 221.015L13.9302 219.647L9.82728 223.75L11.1949 225.118L9.82728 226.485L11.1949 227.853L12.5626 226.485L13.9302 227.853L15.2979 226.485L16.6655 227.853L13.9302 230.588L15.2979 231.956L13.9302 233.324L15.2979 234.691L13.9302 236.059L16.6655 238.794L18.0332 237.426L19.4008 238.794L20.7685 237.426L22.1361 238.794L24.8714 236.059L26.239 237.426L24.8714 238.794L26.239 240.162L24.8714 241.529L26.239 242.897L27.6067 241.529L28.9743 242.897L33.0773 238.794L31.7096 237.426L33.0773 236.059L31.7096 234.691L33.0773 233.324L31.7096 231.956L38.5479 225.118L37.1802 223.75ZM31.7096 234.691L30.342 236.059L31.7096 237.426L27.6067 241.529L26.239 240.162L27.6067 238.794L26.239 237.426L30.342 233.324L31.7096 234.691ZM20.7685 237.426L19.4008 236.059L18.0332 237.426L15.2979 234.691L16.6655 233.324L15.2979 231.956L18.0332 229.221L23.5037 234.691L20.7685 237.426ZM15.2979 226.485L13.9302 225.118L12.5626 226.485L11.1949 225.118L15.2979 221.015L16.6655 222.382L18.0332 221.015L19.4008 222.382L15.2979 226.485Z" fill="#1B1B1B"/>
<path d="M37.1802 221.015L38.5479 222.382L37.1802 223.75L35.8126 222.382L37.1802 221.015Z" fill="#1B1B1B"/>
<path d="M37.1802 221.015L38.5479 219.647L37.1802 218.279L35.8126 219.647L37.1802 221.015Z" fill="#1B1B1B"/>
<path d="M30.342 219.647L27.6067 222.382L26.239 221.015L28.9743 218.279L30.342 219.647Z" fill="#1B1B1B"/>
<path d="M33.0773 222.382L30.342 219.647L31.7096 218.279L34.4449 221.015L33.0773 222.382Z" fill="#1B1B1B"/>
<path d="M30.342 225.118L33.0773 222.382L34.4449 223.75L31.7096 226.485L30.342 225.118Z" fill="#1B1B1B"/>
<path d="M30.342 225.118L27.6067 222.382L26.239 223.75L28.9743 226.485L30.342 225.118Z" fill="#1B1B1B"/>
</g>
<g clip-path="url(#clip6_123_331)">
<path fill-rule="evenodd" clip-rule="evenodd" d="M284.445 128.544L287.18 131.279L285.813 132.647L287.18 134.015L285.813 135.382L287.18 136.75L276.239 147.691L268.033 139.485L278.974 128.544L280.342 129.912L281.71 128.544L283.077 129.912L284.445 128.544ZM276.239 136.75L277.607 135.382L280.342 138.118L278.974 139.485L276.239 136.75ZM283.077 135.382L284.445 136.75L281.71 139.485L280.342 138.118L283.077 135.382ZM283.077 135.382L284.445 134.015L281.71 131.279L280.342 132.647L278.974 131.279L276.239 134.015L277.607 135.382L280.342 132.647L283.077 135.382Z" fill="#94F0D7"/>
<path d="M265.298 139.485L263.93 138.118L262.563 139.485L261.195 138.118L265.298 134.015L266.666 135.382L268.033 134.015L269.401 135.382L265.298 139.485Z" fill="#94F0D7"/>
<path d="M281.71 150.427L280.342 149.059L281.71 147.691L280.342 146.324L276.239 150.427L277.607 151.794L276.239 153.162L277.607 154.529L281.71 150.427Z" fill="#94F0D7"/>
<path d="M268.033 142.221L273.504 147.691L270.768 150.427L269.401 149.059L268.033 150.427L265.298 147.691L266.666 146.324L265.298 144.956L268.033 142.221Z" fill="#94F0D7"/>
<path d="M288.548 129.912L287.18 131.279L284.445 128.544L285.813 127.176L288.548 129.912Z" fill="#1B1B1B"/>
<path d="M281.71 128.544L283.077 127.176L284.445 128.544L283.077 129.912L281.71 128.544Z" fill="#1B1B1B"/>
<path d="M278.974 128.544L280.342 127.176L281.71 128.544L280.342 129.912L278.974 128.544Z" fill="#1B1B1B"/>
<path fill-rule="evenodd" clip-rule="evenodd" d="M287.18 136.75L276.239 147.691L268.033 139.485L278.974 128.544L277.607 127.176L270.768 134.015L269.401 132.647L268.033 134.015L266.666 132.647L265.298 134.015L263.93 132.647L259.827 136.75L261.195 138.118L259.827 139.485L261.195 140.853L262.563 139.485L263.93 140.853L265.298 139.485L266.666 140.853L263.93 143.588L265.298 144.956L263.93 146.324L265.298 147.691L263.93 149.059L266.666 151.794L268.033 150.426L269.401 151.794L270.768 150.426L272.136 151.794L274.871 149.059L276.239 150.426L274.871 151.794L276.239 153.162L274.871 154.529L276.239 155.897L277.607 154.529L278.974 155.897L283.077 151.794L281.71 150.426L283.077 149.059L281.71 147.691L283.077 146.324L281.71 144.956L288.548 138.118L287.18 136.75ZM281.71 147.691L280.342 149.059L281.71 150.426L277.607 154.529L276.239 153.162L277.607 151.794L276.239 150.426L280.342 146.324L281.71 147.691ZM270.768 150.426L269.401 149.059L268.033 150.426L265.298 147.691L266.666 146.324L265.298 144.956L268.033 142.221L273.504 147.691L270.768 150.426ZM265.298 139.485L263.93 138.118L262.563 139.485L261.195 138.118L265.298 134.015L266.666 135.382L268.033 134.015L269.401 135.382L265.298 139.485Z" fill="#1B1B1B"/>
<path d="M287.18 134.015L288.548 135.382L287.18 136.75L285.813 135.382L287.18 134.015Z" fill="#1B1B1B"/>
<path d="M287.18 134.015L288.548 132.647L287.18 131.279L285.813 132.647L287.18 134.015Z" fill="#1B1B1B"/>
<path d="M280.342 132.647L277.607 135.382L276.239 134.015L278.974 131.279L280.342 132.647Z" fill="#1B1B1B"/>
<path d="M283.077 135.382L280.342 132.647L281.71 131.279L284.445 134.015L283.077 135.382Z" fill="#1B1B1B"/>
<path d="M280.342 138.118L283.077 135.382L284.445 136.75L281.71 139.485L280.342 138.118Z" fill="#1B1B1B"/>
<path d="M280.342 138.118L277.607 135.382L276.239 136.75L278.974 139.485L280.342 138.118Z" fill="#1B1B1B"/>
</g>
<g clip-path="url(#clip7_123_331)">
<path fill-rule="evenodd" clip-rule="evenodd" d="M304.445 249.544L307.18 252.279L305.813 253.647L307.18 255.015L305.813 256.382L307.18 257.75L296.239 268.691L288.033 260.485L298.974 249.544L300.342 250.912L301.71 249.544L303.077 250.912L304.445 249.544ZM296.239 257.75L297.607 256.382L300.342 259.118L298.974 260.485L296.239 257.75ZM303.077 256.382L304.445 257.75L301.71 260.485L300.342 259.118L303.077 256.382ZM303.077 256.382L304.445 255.015L301.71 252.279L300.342 253.647L298.974 252.279L296.239 255.015L297.607 256.382L300.342 253.647L303.077 256.382Z" fill="#F5F4F0"/>
<path d="M285.298 260.485L283.93 259.118L282.563 260.485L281.195 259.118L285.298 255.015L286.666 256.382L288.033 255.015L289.401 256.382L285.298 260.485Z" fill="#F5F4F0"/>
<path d="M301.71 271.427L300.342 270.059L301.71 268.691L300.342 267.324L296.239 271.427L297.607 272.794L296.239 274.162L297.607 275.529L301.71 271.427Z" fill="#F5F4F0"/>
<path d="M288.033 263.221L293.504 268.691L290.768 271.427L289.401 270.059L288.033 271.427L285.298 268.691L286.666 267.324L285.298 265.956L288.033 263.221Z" fill="#F5F4F0"/>
<path d="M308.548 250.912L307.18 252.279L304.445 249.544L305.813 248.176L308.548 250.912Z" fill="#1B1B1B"/>
<path d="M301.71 249.544L303.077 248.176L304.445 249.544L303.077 250.912L301.71 249.544Z" fill="#1B1B1B"/>
<path d="M298.974 249.544L300.342 248.176L301.71 249.544L300.342 250.912L298.974 249.544Z" fill="#1B1B1B"/>
<path fill-rule="evenodd" clip-rule="evenodd" d="M307.18 257.75L296.239 268.691L288.033 260.485L298.974 249.544L297.607 248.176L290.768 255.015L289.401 253.647L288.033 255.015L286.666 253.647L285.298 255.015L283.93 253.647L279.827 257.75L281.195 259.118L279.827 260.485L281.195 261.853L282.563 260.485L283.93 261.853L285.298 260.485L286.666 261.853L283.93 264.588L285.298 265.956L283.93 267.324L285.298 268.691L283.93 270.059L286.666 272.794L288.033 271.426L289.401 272.794L290.768 271.426L292.136 272.794L294.871 270.059L296.239 271.426L294.871 272.794L296.239 274.162L294.871 275.529L296.239 276.897L297.607 275.529L298.974 276.897L303.077 272.794L301.71 271.426L303.077 270.059L301.71 268.691L303.077 267.324L301.71 265.956L308.548 259.118L307.18 257.75ZM301.71 268.691L300.342 270.059L301.71 271.426L297.607 275.529L296.239 274.162L297.607 272.794L296.239 271.426L300.342 267.324L301.71 268.691ZM290.768 271.426L289.401 270.059L288.033 271.426L285.298 268.691L286.666 267.324L285.298 265.956L288.033 263.221L293.504 268.691L290.768 271.426ZM285.298 260.485L283.93 259.118L282.563 260.485L281.195 259.118L285.298 255.015L286.666 256.382L288.033 255.015L289.401 256.382L285.298 260.485Z" fill="#1B1B1B"/>
<path d="M307.18 255.015L308.548 256.382L307.18 257.75L305.813 256.382L307.18 255.015Z" fill="#1B1B1B"/>
<path d="M307.18 255.015L308.548 253.647L307.18 252.279L305.813 253.647L307.18 255.015Z" fill="#1B1B1B"/>
<path d="M300.342 253.647L297.607 256.382L296.239 255.015L298.974 252.279L300.342 253.647Z" fill="#1B1B1B"/>
<path d="M303.077 256.382L300.342 253.647L301.71 252.279L304.445 255.015L303.077 256.382Z" fill="#1B1B1B"/>
<path d="M300.342 259.118L303.077 256.382L304.445 257.75L301.71 260.485L300.342 259.118Z" fill="#1B1B1B"/>
<path d="M300.342 259.118L297.607 256.382L296.239 257.75L298.974 260.485L300.342 259.118Z" fill="#1B1B1B"/>
</g>
<g clip-path="url(#clip8_123_331)">
<path fill-rule="evenodd" clip-rule="evenodd" d="M152.445 18.5442L155.18 21.2795L153.813 22.6471L155.18 24.0148L153.813 25.3824L155.18 26.75L144.239 37.6912L136.033 29.4853L146.974 18.5442L148.342 19.9118L149.71 18.5442L151.077 19.9118L152.445 18.5442ZM144.239 26.75L145.607 25.3824L148.342 28.1177L146.974 29.4853L144.239 26.75ZM151.077 25.3824L152.445 26.75L149.71 29.4853L148.342 28.1177L151.077 25.3824ZM151.077 25.3824L152.445 24.0148L149.71 21.2795L148.342 22.6471L146.974 21.2795L144.239 24.0148L145.607 25.3824L148.342 22.6471L151.077 25.3824Z" fill="#A6EDFD"/>
<path d="M133.298 29.4853L131.93 28.1177L130.563 29.4853L129.195 28.1177L133.298 24.0148L134.666 25.3824L136.033 24.0148L137.401 25.3824L133.298 29.4853Z" fill="#A6EDFD"/>
<path d="M149.71 40.4265L148.342 39.0589L149.71 37.6912L148.342 36.3236L144.239 40.4265L145.607 41.7942L144.239 43.1618L145.607 44.5295L149.71 40.4265Z" fill="#A6EDFD"/>
<path d="M136.033 32.2206L141.504 37.6912L138.768 40.4265L137.401 39.0589L136.033 40.4265L133.298 37.6912L134.666 36.3236L133.298 34.9559L136.033 32.2206Z" fill="#A6EDFD"/>
<path d="M156.548 19.9118L155.18 21.2794L152.445 18.5441L153.813 17.1765L156.548 19.9118Z" fill="#1B1B1B"/>
<path d="M149.71 18.5441L151.077 17.1765L152.445 18.5441L151.077 19.9118L149.71 18.5441Z" fill="#1B1B1B"/>
<path d="M146.974 18.5441L148.342 17.1765L149.71 18.5441L148.342 19.9118L146.974 18.5441Z" fill="#1B1B1B"/>
<path fill-rule="evenodd" clip-rule="evenodd" d="M155.18 26.75L144.239 37.6912L136.033 29.4853L146.974 18.5441L145.607 17.1765L138.768 24.0147L137.401 22.6471L136.033 24.0147L134.666 22.6471L133.298 24.0147L131.93 22.6471L127.827 26.75L129.195 28.1176L127.827 29.4853L129.195 30.8529L130.563 29.4853L131.93 30.8529L133.298 29.4853L134.666 30.8529L131.93 33.5882L133.298 34.9559L131.93 36.3235L133.298 37.6912L131.93 39.0588L134.666 41.7941L136.033 40.4265L137.401 41.7941L138.768 40.4265L140.136 41.7941L142.871 39.0588L144.239 40.4265L142.871 41.7941L144.239 43.1618L142.871 44.5294L144.239 45.897L145.607 44.5294L146.974 45.897L151.077 41.7941L149.71 40.4265L151.077 39.0588L149.71 37.6912L151.077 36.3235L149.71 34.9559L156.548 28.1176L155.18 26.75ZM149.71 37.6912L148.342 39.0588L149.71 40.4265L145.607 44.5294L144.239 43.1618L145.607 41.7941L144.239 40.4265L148.342 36.3235L149.71 37.6912ZM138.768 40.4265L137.401 39.0588L136.033 40.4265L133.298 37.6912L134.666 36.3235L133.298 34.9559L136.033 32.2206L141.504 37.6912L138.768 40.4265ZM133.298 29.4853L131.93 28.1176L130.563 29.4853L129.195 28.1176L133.298 24.0147L134.666 25.3823L136.033 24.0147L137.401 25.3823L133.298 29.4853Z" fill="#1B1B1B"/>
<path d="M155.18 24.0147L156.548 25.3823L155.18 26.75L153.813 25.3823L155.18 24.0147Z" fill="#1B1B1B"/>
<path d="M155.18 24.0147L156.548 22.6471L155.18 21.2794L153.813 22.6471L155.18 24.0147Z" fill="#1B1B1B"/>
<path d="M148.342 22.6471L145.607 25.3823L144.239 24.0147L146.974 21.2794L148.342 22.6471Z" fill="#1B1B1B"/>
<path d="M151.077 25.3823L148.342 22.6471L149.71 21.2794L152.445 24.0147L151.077 25.3823Z" fill="#1B1B1B"/>
<path d="M148.342 28.1176L151.077 25.3823L152.445 26.75L149.71 29.4853L148.342 28.1176Z" fill="#1B1B1B"/>
<path d="M148.342 28.1176L145.607 25.3823L144.239 26.75L146.974 29.4853L148.342 28.1176Z" fill="#1B1B1B"/>
</g>
<g clip-path="url(#clip9_123_331)">
<path fill-rule="evenodd" clip-rule="evenodd" d="M152.445 193.544L155.18 196.279L153.813 197.647L155.18 199.015L153.813 200.382L155.18 201.75L144.239 212.691L136.033 204.485L146.974 193.544L148.342 194.912L149.71 193.544L151.077 194.912L152.445 193.544ZM144.239 201.75L145.607 200.382L148.342 203.118L146.974 204.485L144.239 201.75ZM151.077 200.382L152.445 201.75L149.71 204.485L148.342 203.118L151.077 200.382ZM151.077 200.382L152.445 199.015L149.71 196.279L148.342 197.647L146.974 196.279L144.239 199.015L145.607 200.382L148.342 197.647L151.077 200.382Z" fill="#A6EDFD"/>
<path d="M133.298 204.485L131.93 203.118L130.563 204.485L129.195 203.118L133.298 199.015L134.666 200.382L136.033 199.015L137.401 200.382L133.298 204.485Z" fill="#A6EDFD"/>
<path d="M149.71 215.427L148.342 214.059L149.71 212.691L148.342 211.324L144.239 215.427L145.607 216.794L144.239 218.162L145.607 219.529L149.71 215.427Z" fill="#A6EDFD"/>
<path d="M136.033 207.221L141.504 212.691L138.768 215.427L137.401 214.059L136.033 215.427L133.298 212.691L134.666 211.324L133.298 209.956L136.033 207.221Z" fill="#A6EDFD"/>
<path d="M156.548 194.912L155.18 196.279L152.445 193.544L153.813 192.176L156.548 194.912Z" fill="#1B1B1B"/>
<path d="M149.71 193.544L151.077 192.176L152.445 193.544L151.077 194.912L149.71 193.544Z" fill="#1B1B1B"/>
<path d="M146.974 193.544L148.342 192.176L149.71 193.544L148.342 194.912L146.974 193.544Z" fill="#1B1B1B"/>
<path fill-rule="evenodd" clip-rule="evenodd" d="M155.18 201.75L144.239 212.691L136.033 204.485L146.974 193.544L145.607 192.176L138.768 199.015L137.401 197.647L136.033 199.015L134.666 197.647L133.298 199.015L131.93 197.647L127.827 201.75L129.195 203.118L127.827 204.485L129.195 205.853L130.563 204.485L131.93 205.853L133.298 204.485L134.666 205.853L131.93 208.588L133.298 209.956L131.93 211.324L133.298 212.691L131.93 214.059L134.666 216.794L136.033 215.426L137.401 216.794L138.768 215.426L140.136 216.794L142.871 214.059L144.239 215.426L142.871 216.794L144.239 218.162L142.871 219.529L144.239 220.897L145.607 219.529L146.974 220.897L151.077 216.794L149.71 215.426L151.077 214.059L149.71 212.691L151.077 211.324L149.71 209.956L156.548 203.118L155.18 201.75ZM149.71 212.691L148.342 214.059L149.71 215.426L145.607 219.529L144.239 218.162L145.607 216.794L144.239 215.426L148.342 211.324L149.71 212.691ZM138.768 215.426L137.401 214.059L136.033 215.426L133.298 212.691L134.666 211.324L133.298 209.956L136.033 207.221L141.504 212.691L138.768 215.426ZM133.298 204.485L131.93 203.118L130.563 204.485L129.195 203.118L133.298 199.015L134.666 200.382L136.033 199.015L137.401 200.382L133.298 204.485Z" fill="#1B1B1B"/>
<path d="M155.18 199.015L156.548 200.382L155.18 201.75L153.813 200.382L155.18 199.015Z" fill="#1B1B1B"/>
<path d="M155.18 199.015L156.548 197.647L155.18 196.279L153.813 197.647L155.18 199.015Z" fill="#1B1B1B"/>
<path d="M148.342 197.647L145.607 200.382L144.239 199.015L146.974 196.279L148.342 197.647Z" fill="#1B1B1B"/>
<path d="M151.077 200.382L148.342 197.647L149.71 196.279L152.445 199.015L151.077 200.382Z" fill="#1B1B1B"/>
<path d="M148.342 203.118L151.077 200.382L152.445 201.75L149.71 204.485L148.342 203.118Z" fill="#1B1B1B"/>
<path d="M148.342 203.118L145.607 200.382L144.239 201.75L146.974 204.485L148.342 203.118Z" fill="#1B1B1B"/>
</g>
<g clip-path="url(#clip10_123_331)">
<path fill-rule="evenodd" clip-rule="evenodd" d="M268.445 47.5442L271.18 50.2795L269.813 51.6471L271.18 53.0148L269.813 54.3824L271.18 55.75L260.239 66.6912L252.033 58.4853L262.974 47.5442L264.342 48.9118L265.71 47.5442L267.077 48.9118L268.445 47.5442ZM260.239 55.75L261.607 54.3824L264.342 57.1177L262.974 58.4853L260.239 55.75ZM267.077 54.3824L268.445 55.75L265.71 58.4853L264.342 57.1177L267.077 54.3824ZM267.077 54.3824L268.445 53.0148L265.71 50.2795L264.342 51.6471L262.974 50.2795L260.239 53.0148L261.607 54.3824L264.342 51.6471L267.077 54.3824Z" fill="#F8B7C2"/>
<path d="M249.298 58.4853L247.93 57.1177L246.563 58.4853L245.195 57.1177L249.298 53.0148L250.666 54.3824L252.033 53.0148L253.401 54.3824L249.298 58.4853Z" fill="#F8B7C2"/>
<path d="M265.71 69.4265L264.342 68.0589L265.71 66.6912L264.342 65.3236L260.239 69.4265L261.607 70.7942L260.239 72.1618L261.607 73.5295L265.71 69.4265Z" fill="#F8B7C2"/>
<path d="M252.033 61.2206L257.504 66.6912L254.768 69.4265L253.401 68.0589L252.033 69.4265L249.298 66.6912L250.666 65.3236L249.298 63.9559L252.033 61.2206Z" fill="#F8B7C2"/>
<path d="M272.548 48.9118L271.18 50.2794L268.445 47.5441L269.813 46.1765L272.548 48.9118Z" fill="#1B1B1B"/>
<path d="M265.71 47.5441L267.077 46.1765L268.445 47.5441L267.077 48.9118L265.71 47.5441Z" fill="#1B1B1B"/>
<path d="M262.974 47.5441L264.342 46.1765L265.71 47.5441L264.342 48.9118L262.974 47.5441Z" fill="#1B1B1B"/>
<path fill-rule="evenodd" clip-rule="evenodd" d="M271.18 55.75L260.239 66.6912L252.033 58.4853L262.974 47.5441L261.607 46.1765L254.768 53.0147L253.401 51.6471L252.033 53.0147L250.666 51.6471L249.298 53.0147L247.93 51.6471L243.827 55.75L245.195 57.1176L243.827 58.4853L245.195 59.8529L246.563 58.4853L247.93 59.8529L249.298 58.4853L250.666 59.8529L247.93 62.5882L249.298 63.9559L247.93 65.3235L249.298 66.6912L247.93 68.0588L250.666 70.7941L252.033 69.4265L253.401 70.7941L254.768 69.4265L256.136 70.7941L258.871 68.0588L260.239 69.4265L258.871 70.7941L260.239 72.1618L258.871 73.5294L260.239 74.897L261.607 73.5294L262.974 74.897L267.077 70.7941L265.71 69.4265L267.077 68.0588L265.71 66.6912L267.077 65.3235L265.71 63.9559L272.548 57.1176L271.18 55.75ZM265.71 66.6912L264.342 68.0588L265.71 69.4265L261.607 73.5294L260.239 72.1618L261.607 70.7941L260.239 69.4265L264.342 65.3235L265.71 66.6912ZM254.768 69.4265L253.401 68.0588L252.033 69.4265L249.298 66.6912L250.666 65.3235L249.298 63.9559L252.033 61.2206L257.504 66.6912L254.768 69.4265ZM249.298 58.4853L247.93 57.1176L246.563 58.4853L245.195 57.1176L249.298 53.0147L250.666 54.3823L252.033 53.0147L253.401 54.3823L249.298 58.4853Z" fill="#1B1B1B"/>
<path d="M271.18 53.0147L272.548 54.3823L271.18 55.75L269.813 54.3823L271.18 53.0147Z" fill="#1B1B1B"/>
<path d="M271.18 53.0147L272.548 51.6471L271.18 50.2794L269.813 51.6471L271.18 53.0147Z" fill="#1B1B1B"/>
<path d="M264.342 51.6471L261.607 54.3823L260.239 53.0147L262.974 50.2794L264.342 51.6471Z" fill="#1B1B1B"/>
<path d="M267.077 54.3823L264.342 51.6471L265.71 50.2794L268.445 53.0147L267.077 54.3823Z" fill="#1B1B1B"/>
<path d="M264.342 57.1176L267.077 54.3823L268.445 55.75L265.71 58.4853L264.342 57.1176Z" fill="#1B1B1B"/>
<path d="M264.342 57.1176L261.607 54.3823L260.239 55.75L262.974 58.4853L264.342 57.1176Z" fill="#1B1B1B"/>
</g>
<defs>
<clipPath id="clip0_123_331">
<rect width="27.8281" height="54.2081" fill="white" transform="translate(38.3309 76) rotate(45)"/>
</clipPath>
<clipPath id="clip1_123_331">
<rect width="27.8281" height="54.2081" fill="white" transform="translate(38.3309 374) rotate(45)"/>
</clipPath>
<clipPath id="clip2_123_331">
<rect width="27.8281" height="54.2081" fill="white" transform="translate(290.331 371) rotate(45)"/>
</clipPath>
<clipPath id="clip3_123_331">
<rect width="27.8281" height="54.2081" fill="white" transform="translate(186.331 67) rotate(45)"/>
</clipPath>
<clipPath id="clip4_123_331">
<rect width="27.8281" height="54.2081" fill="white" transform="translate(197.331 258) rotate(45)"/>
</clipPath>
<clipPath id="clip5_123_331">
<rect width="27.8281" height="54.2081" fill="white" transform="translate(38.3309 197) rotate(45)"/>
</clipPath>
<clipPath id="clip6_123_331">
<rect width="27.8281" height="54.2081" fill="white" transform="translate(288.331 110) rotate(45)"/>
</clipPath>
<clipPath id="clip7_123_331">
<rect width="27.8281" height="54.2081" fill="white" transform="translate(308.331 231) rotate(45)"/>
</clipPath>
<clipPath id="clip8_123_331">
<rect width="27.8281" height="54.2081" fill="white" transform="translate(156.331) rotate(45)"/>
</clipPath>
<clipPath id="clip9_123_331">
<rect width="27.8281" height="54.2081" fill="white" transform="translate(156.331 175) rotate(45)"/>
</clipPath>
<clipPath id="clip10_123_331">
<rect width="27.8281" height="54.2081" fill="white" transform="translate(272.331 29) rotate(45)"/>
</clipPath>
</defs>
</svg>
