<svg width="149" height="124" viewBox="0 0 149 124" fill="none" xmlns="http://www.w3.org/2000/svg">
<path d="M11.6984 123.391L136.07 123.391L149 107.43L149 43.5857L140.996 43.5857L140.996 35.6052L136.07 35.6052L136.07 30.6942L109.595 30.6942L109.595 -1.51227e-05L78.8099 30.6942L16.624 30.6942L11.6984 35.6052L11.6984 43.5857L4.92562 43.5857L4.92562 49.1107L4.90637e-06 49.1107L3.99514e-06 111.113L4.92562 111.113L4.92562 116.024L11.6984 116.024L11.6984 123.391Z" fill="white"/>
<path d="M22.5958 117.57L132.879 117.57L144.344 103.416L144.344 46.7999L137.246 46.7999L137.246 39.7229L132.879 39.7229L132.879 35.3678L109.403 35.3678L109.403 8.14842L82.1049 35.3678L26.9634 35.3678L22.5958 39.7229L22.5958 46.7999L16.5903 46.7999L16.5903 51.6994L12.2226 51.6994L12.2226 106.683L16.5903 106.683L16.5903 111.038L22.5958 111.038L22.5958 117.57Z" fill="#F9DF70"/>
<path fill-rule="evenodd" clip-rule="evenodd" d="M133.169 118.152L22.0194 118.152L22.0194 111.626L16.0107 111.626L16.0107 107.275L11.6407 107.275L11.6407 51.2602L16.0107 51.2602L16.0107 46.3656L22.0194 46.3656L22.0194 39.6143L26.7094 34.9451L81.8807 34.9451L109.966 6.98413L109.966 34.9451L133.455 34.9451L133.455 39.2958L137.825 39.2958L137.825 46.3656L144.926 46.3656L144.926 103.661L133.169 118.152ZM132.647 117.064L143.833 103.276L143.833 47.4533L136.732 47.4533L136.732 40.3834L132.362 40.3834L132.362 36.0327L108.873 36.0327L108.873 9.61001L82.3333 36.0327L27.162 36.0327L23.1119 40.0649L23.1119 47.4533L17.1032 47.4533L17.1032 52.3478L12.7332 52.3478L12.7332 106.188L17.1032 106.188L17.1032 110.538L23.1119 110.538L23.1119 117.064L132.647 117.064Z" fill="#1B1B1B"/>
<path fill-rule="evenodd" clip-rule="evenodd" d="M126.767 121.062L15.6171 121.062L15.6171 114.468L9.60836 114.468L9.60836 110.072L5.23836 110.072L5.23836 53.4699L9.60836 53.4699L9.60836 48.5241L15.6171 48.5241L15.6171 41.7021L20.3071 36.9839L75.4784 36.9839L103.563 8.73021L103.563 36.9839L127.052 36.9839L127.052 41.3802L131.422 41.3802L131.422 48.5241L138.524 48.5241L138.524 106.419L126.767 121.062ZM126.245 119.963L137.431 106.031L137.431 49.6232L130.33 49.6232L130.33 42.4793L125.96 42.4793L125.96 38.083L102.471 38.083L102.471 11.3836L75.931 38.083L20.7596 38.083L16.7096 42.1573L16.7096 49.6232L10.7009 49.6232L10.7009 54.5689L6.33086 54.5689L6.33086 108.973L10.7009 108.973L10.7009 113.369L16.7096 113.369L16.7096 119.963L126.245 119.963Z" fill="#1B1B1B"/>
<path d="M16.1934 120.48L126.476 120.48L137.941 106.176L137.941 48.9572L130.844 48.9572L130.844 41.8049L126.476 41.8049L126.476 37.4035L103 37.4035L103 9.89455L75.7025 37.4035L20.5611 37.4035L16.1934 41.8049L16.1934 48.9572L10.1879 48.9572L10.1879 53.9088L5.8203 53.9088L5.8203 109.477L10.1879 109.477L10.1879 113.878L16.1934 113.878L16.1934 120.48Z" fill="#DAD7FF"/>
<path d="M42.8159 74V71H39.8159V68H45.8159V71H54.8159V65H42.8159V62H39.8159V56H42.8159V53H57.8159V56H60.8159V59H54.8159V56H45.8159V62H57.8159V65H60.8159V71H57.8159V74H42.8159ZM62.6159 74V59H65.6159V56H68.6159V53H77.6159V56H80.6159V59H83.6159V74H77.6159V68H68.6159V74H62.6159ZM68.6159 65H77.6159V59H74.6159V56H71.6159V59H68.6159V65ZM94.4158 74V65H91.4158V62H88.4158V53H94.4158V62H100.416V53H106.416V62H103.416V65H100.416V74H94.4158ZM39.2159 104V83H45.2159V92H54.2159V83H60.2159V104H54.2159V95H45.2159V104H39.2159ZM65.0159 104V101H71.0159V86H65.0159V83H83.0159V86H77.0159V101H83.0159V104H65.0159ZM90.8159 98V83H99.8159V92H96.8159V98H90.8159ZM90.8159 104V101H96.8159V104H90.8159Z" fill="#1B1B1B"/>
</svg>
