<svg width="24" height="24" viewBox="0 0 24 24" fill="none" xmlns="http://www.w3.org/2000/svg">
<path d="M15 14.6666V17.6666H14V16.6666H11H10V13.6666H8V12.6666H6V11.6666H8V10.6666H10V9.66663H12V8.66663H14V7.66663H16V6.66663H18V8.66663H17V11.6666H16V14.6666H15Z" fill="white"/>
<path d="M5 11.6666H6V12.6666H5V11.6666Z" fill="#1B1B1B"/>
<path d="M14 17.6666H15V18.6666H14V17.6666Z" fill="#1B1B1B"/>
<path d="M13 16.6666H14V17.6666H13V16.6666Z" fill="#1B1B1B"/>
<path d="M11 12.6666H12V13.6666H11V12.6666Z" fill="#1B1B1B"/>
<path d="M12 11.6666H13V12.6666H12V11.6666Z" fill="#1B1B1B"/>
<path d="M13 10.6666H14V11.6666H13V10.6666Z" fill="#1B1B1B"/>
<path d="M14 9.66663H15V10.6666H14V9.66663Z" fill="#1B1B1B"/>
<path d="M15 8.66663H16V9.66663H15V8.66663Z" fill="#1B1B1B"/>
<path d="M16 7.66663H17V8.66663H16V7.66663Z" fill="#1B1B1B"/>
<path d="M6 10.6666V11.6666H8V10.6666H6Z" fill="#1B1B1B"/>
<path d="M8 13.6666V12.6666H6V13.6666H8Z" fill="#1B1B1B"/>
<path d="M11 16.6666H10V14.6666H11V13.6666H8V14.6666H9V18.6666H10V17.6666H11V16.6666Z" fill="#1B1B1B"/>
<path d="M13 15.6666H12V14.6666H11V16.6666H13V15.6666Z" fill="#1B1B1B"/>
<path d="M16 14.6666H15V17.6666H16V14.6666Z" fill="#1B1B1B"/>
<path d="M17 11.6666H16V14.6666H17V11.6666Z" fill="#1B1B1B"/>
<path d="M8 9.66663V10.6666H10V9.66663H8Z" fill="#1B1B1B"/>
<path d="M10 8.66663V9.66663H12V8.66663H10Z" fill="#1B1B1B"/>
<path d="M12 7.66663V8.66663H14V7.66663H12Z" fill="#1B1B1B"/>
<path d="M16 7.66663V6.66663H14V7.66663H16Z" fill="#1B1B1B"/>
<path d="M16 5.66663V6.66663H18V5.66663H16Z" fill="#1B1B1B"/>
<path d="M19 6.66663H18V8.66663H19V6.66663Z" fill="#1B1B1B"/>
<path d="M18 8.66663H17V11.6666H18V8.66663Z" fill="#1B1B1B"/>
</svg>
