<svg width="130" height="130" viewBox="0 0 181 181" fill="none" xmlns="http://www.w3.org/2000/svg">
<path d="M143.292 115.639H135.75V123.181H143.292V115.639Z" fill="#1B1B1B"/>
<path d="M45.25 55.3056H37.7083V62.8472H45.25V55.3056Z" fill="#1B1B1B"/>
<path d="M143.292 55.3056H135.75V62.8472H143.292V55.3056Z" fill="#1B1B1B"/>
<path d="M52.7916 130.722H45.25V138.264H52.7916V130.722Z" fill="#1B1B1B"/>
<path d="M45.25 138.264H37.7083V145.806H45.25V138.264Z" fill="#1B1B1B"/>
<path d="M30.1666 138.264H37.7083V62.8472H30.1666V138.264Z" fill="#1B1B1B"/>
<path d="M135.75 55.3056V47.7639H45.25V55.3056H135.75Z" fill="#1B1B1B"/>
<path d="M143.292 115.639H150.833V62.8472H143.292V115.639Z" fill="#1B1B1B"/>
<path d="M135.75 130.722V123.181H52.7916V130.722H135.75Z" fill="#1B1B1B"/>
<path d="M45.25 138.264H37.7083V62.8472H45.25V55.3055H135.75V62.8472H143.292V115.639H135.75V123.181H52.7916V130.722H45.25V138.264Z" fill="#F5F4F0"/>
<path d="M101.513 69.2697H80.999V72.6887H74.1609V79.5268H70.7418V100.041H74.1609V106.879H80.999V110.298H101.513V106.879H108.351V100.041H111.77V79.5268H108.351V72.6887H101.513V69.2697Z" fill="#F9DF70"/>
<path d="M80.9989 96.622H84.418V100.041H80.9989V96.622Z" fill="#1B1B1B"/>
<path d="M101.513 96.622H98.0942V100.041H101.513V96.622Z" fill="#1B1B1B"/>
<path d="M80.9989 79.5268H84.418V82.9458H80.9989V79.5268Z" fill="#1B1B1B"/>
<path d="M101.513 79.5268H98.0942V82.9458H101.513V79.5268Z" fill="#1B1B1B"/>
<path d="M84.418 82.9458H87.837V86.3649H84.418V82.9458Z" fill="#1B1B1B"/>
<path d="M98.0942 82.9458H94.6751V86.3649H98.0942V82.9458Z" fill="#1B1B1B"/>
<path d="M77.5799 82.9458H80.9989V86.3649H77.5799V82.9458Z" fill="#1B1B1B"/>
<path d="M104.932 82.9458H101.513V86.3649H104.932V82.9458Z" fill="#1B1B1B"/>
<path d="M80.9989 110.298V113.717H101.513V110.298H80.9989Z" fill="#1B1B1B"/>
<path d="M98.0942 103.46V100.041H84.418V103.46H98.0942Z" fill="#1B1B1B"/>
<path d="M74.1608 106.879V110.298H80.9989V106.879H74.1608Z" fill="#1B1B1B"/>
<path d="M74.1608 100.041H70.7418V106.879H74.1608V100.041Z" fill="#1B1B1B"/>
<path d="M67.3228 100.041H70.7418V79.5268H67.3228V100.041Z" fill="#1B1B1B"/>
<path d="M70.7418 79.5268H74.1608V72.6887H70.7418L70.7418 79.5268Z" fill="#1B1B1B"/>
<path d="M74.1608 69.2696V72.6887H80.9989V69.2696H74.1608Z" fill="#1B1B1B"/>
<path d="M80.9989 65.8506V69.2696H101.513V65.8506H80.9989Z" fill="#1B1B1B"/>
<path d="M108.351 72.6887V69.2696H101.513V72.6887H108.351Z" fill="#1B1B1B"/>
<path d="M108.351 79.5268H111.77V72.6887H108.351V79.5268Z" fill="#1B1B1B"/>
<path d="M111.77 100.041H115.189V79.5268H111.77V100.041Z" fill="#1B1B1B"/>
<path d="M111.77 100.041H108.351V106.879H111.77V100.041Z" fill="#1B1B1B"/>
<path d="M108.351 110.298V106.879H101.513V110.298H108.351Z" fill="#1B1B1B"/>
</svg>
