<svg width="116" height="125" viewBox="0 0 106 115" fill="none" xmlns="http://www.w3.org/2000/svg">
<path d="M64.7634 21.0092L39.4363 25.0206L40.1049 29.2418L31.6625 30.5789L32.9996 39.0213L28.7784 39.6899L32.7898 65.017L37.011 64.3485L38.3482 72.7909L46.7906 71.4537L47.4591 75.6749L72.7863 71.6635L72.1177 67.4423L80.5601 66.1051L79.223 57.6628L83.4442 56.9942L79.4327 31.667L75.2115 32.3356L73.8744 23.8932L65.432 25.2304L64.7634 21.0092Z" fill="#F9DF70"/>
<path d="M44.7848 58.7901L49.006 58.1216L49.6746 62.3428L45.4534 63.0113L44.7848 58.7901Z" fill="#1B1B1B"/>
<path d="M70.112 54.7787L65.8908 55.4473L66.5594 59.6685L70.7806 58.9999L70.112 54.7787Z" fill="#1B1B1B"/>
<path d="M41.442 37.6842L45.6632 37.0156L46.3318 41.2368L42.1106 41.9054L41.442 37.6842Z" fill="#1B1B1B"/>
<path d="M66.7691 33.6728L62.548 34.3413L63.2165 38.5625L67.4377 37.8939L66.7691 33.6728Z" fill="#1B1B1B"/>
<path d="M46.3318 41.2368L50.5529 40.5682L51.2215 44.7894L47.0003 45.458L46.3318 41.2368Z" fill="#1B1B1B"/>
<path d="M63.2165 38.5625L58.9953 39.2311L59.6639 43.4523L63.8851 42.7837L63.2165 38.5625Z" fill="#1B1B1B"/>
<path d="M37.8894 42.5739L42.1106 41.9054L42.7791 46.1266L38.5579 46.7951L37.8894 42.5739Z" fill="#1B1B1B"/>
<path d="M71.6589 37.2254L67.4377 37.8939L68.1063 42.1151L72.3275 41.4466L71.6589 37.2254Z" fill="#1B1B1B"/>
<path d="M47.4591 75.6749L48.1277 79.8961L73.4549 75.8847L72.7863 71.6635L47.4591 75.6749Z" fill="#1B1B1B"/>
<path d="M67.2279 63.8897L66.5594 59.6685L49.6746 62.3428L50.3432 66.564L67.2279 63.8897Z" fill="#1B1B1B"/>
<path d="M38.3482 72.7909L39.0167 77.0121L47.4591 75.6749L46.7906 71.4537L38.3482 72.7909Z" fill="#1B1B1B"/>
<path d="M37.011 64.3485L32.7898 65.017L34.127 73.4594L38.3482 72.7909L37.011 64.3485Z" fill="#1B1B1B"/>
<path d="M28.5686 65.6856L32.7898 65.017L28.7784 39.6899L24.5572 40.3585L28.5686 65.6856Z" fill="#1B1B1B"/>
<path d="M28.7784 39.6899L32.9996 39.0213L31.6625 30.5789L27.4413 31.2475L28.7784 39.6899Z" fill="#1B1B1B"/>
<path d="M30.9939 26.3577L31.6625 30.5789L40.1048 29.2418L39.4363 25.0206L30.9939 26.3577Z" fill="#1B1B1B"/>
<path d="M38.7677 20.7994L39.4363 25.0206L64.7634 21.0092L64.0949 16.788L38.7677 20.7994Z" fill="#1B1B1B"/>
<path d="M73.8744 23.8932L73.2058 19.672L64.7634 21.0092L65.432 25.2304L73.8744 23.8932Z" fill="#1B1B1B"/>
<path d="M75.2115 32.3356L79.4327 31.667L78.0956 23.2247L73.8744 23.8932L75.2115 32.3356Z" fill="#1B1B1B"/>
<path d="M83.4441 56.9942L87.6653 56.3256L83.6539 30.9985L79.4327 31.667L83.4441 56.9942Z" fill="#1B1B1B"/>
<path d="M83.4441 56.9942L79.223 57.6628L80.5601 66.1051L84.7813 65.4366L83.4441 56.9942Z" fill="#1B1B1B"/>
<path d="M81.2287 70.3263L80.5601 66.1051L72.1177 67.4423L72.7863 71.6635L81.2287 70.3263Z" fill="#1B1B1B"/>
</svg>
