<svg width="66" height="65" viewBox="0 0 66 65" fill="none" xmlns="http://www.w3.org/2000/svg">
<path d="M32.505 1.03428C32.5864 0.461415 33.4136 0.461462 33.495 1.03427L35.9313 18.1705C36.1125 19.4452 37.7099 19.9143 38.5515 18.9399L49.8655 5.84109C50.2438 5.40321 50.9396 5.85044 50.6984 6.37634L43.4834 22.1094C42.9466 23.2798 44.0369 24.5379 45.2717 24.1732L61.8714 19.2707C62.4263 19.1068 62.7699 19.8592 62.2827 20.1712L47.7071 29.506C46.6228 30.2004 46.8597 31.8482 48.0957 32.209L64.7108 37.0592C65.2662 37.2214 65.1485 38.0401 64.5699 38.0392L47.2614 38.0119C45.9738 38.0098 45.2822 39.5242 46.1269 40.4959L57.4823 53.559C57.8619 53.9957 57.3202 54.6208 56.8339 54.3072L42.2878 44.9265C41.2058 44.2287 39.8052 45.1288 39.9905 46.403L42.4808 63.5314C42.564 64.104 41.7703 64.337 41.5308 63.8104L34.3654 48.0546C33.8324 46.8826 32.1676 46.8826 31.6346 48.0546L24.4692 63.8103C24.2297 64.3371 23.436 64.104 23.5192 63.5314L26.0095 46.403C26.1948 45.1288 24.7943 44.2287 23.7122 44.9265L9.16609 54.3072C8.67983 54.6208 8.13817 53.9956 8.51774 53.559L19.8731 40.496C20.7178 39.5242 20.0262 38.0098 18.7386 38.0119L1.43009 38.0392C0.851475 38.0401 0.733795 37.2213 1.28918 37.0592L17.9043 32.209C19.1403 31.8482 19.3772 30.2004 18.2929 29.506L3.71732 20.1712C3.23007 19.8592 3.57371 19.1068 4.12859 19.2707L20.7283 24.1732C21.9631 24.5379 23.0534 23.2798 22.5166 22.1094L15.3016 6.37635C15.0604 5.85041 15.7563 5.40323 16.1345 5.84109L27.4485 18.9399C28.2901 19.9143 29.8875 19.4453 30.0687 18.1705L32.505 1.03428Z" fill="#47D7AF" stroke="#1B1B1B"/>
</svg>
