<svg width="147" height="145" viewBox="0 0 147 145" fill="none" xmlns="http://www.w3.org/2000/svg">
<path d="M87.7173 36.6201L120.592 18.4525L108.343 53.8583L108.154 54.4032L108.72 54.5127L145.621 61.6469L113.396 80.9239L112.9 81.2204L113.264 81.6685L136.928 110.764L99.802 104.894L99.2339 104.804L99.224 105.379L98.5794 142.826L73.9239 114.551L73.547 114.119L73.1702 114.551L48.5146 142.826L47.87 105.379L47.8601 104.804L47.292 104.894L10.1656 110.764L33.8296 81.6685L34.194 81.2204L33.6983 80.9239L1.47344 61.6469L38.3739 54.5127L38.94 54.4032L38.7515 53.8583L26.5025 18.4525L59.3767 36.6201L59.879 36.8977L60.0852 36.3621L73.547 1.39179L87.0088 36.3621L87.215 36.8977L87.7173 36.6201Z" fill="white" stroke="black"/>
<path d="M62.289 55.2835L57.1726 59.7801L51.7397 80.0557L57.5284 90.082L78.6151 95.7322L83.8509 93.2235L88.6414 89.9435L94.0092 67.4773L91.1493 61.9301L88.4485 59.0332L67.3618 53.3831L62.289 55.2835Z" fill="#E7C63C"/>
<path fill-rule="evenodd" clip-rule="evenodd" d="M90.2986 61.05L65.1568 54.3133L66.2434 50.2582L91.3852 56.9949L90.2986 61.05Z" fill="#1B1B1B"/>
<path fill-rule="evenodd" clip-rule="evenodd" d="M80.3023 98.3574L55.1605 91.6207L56.2471 87.5656L81.3889 94.3023L80.3023 98.3574Z" fill="#1B1B1B"/>
<path fill-rule="evenodd" clip-rule="evenodd" d="M93.2671 66.1917L89.212 65.1052L90.2986 61.05L94.3537 62.1366L93.2671 66.1917Z" fill="#1B1B1B"/>
<path fill-rule="evenodd" clip-rule="evenodd" d="M64.0704 58.3685L60.0152 57.2819L61.1018 53.2268L65.1569 54.3134L64.0704 58.3685Z" fill="#1B1B1B"/>
<path fill-rule="evenodd" clip-rule="evenodd" d="M67.8711 68.5143L63.816 67.4277L64.9026 63.3726L68.9577 64.4591L67.8711 68.5143Z" fill="#1B1B1B"/>
<path fill-rule="evenodd" clip-rule="evenodd" d="M65.3721 77.841L61.317 76.7545L62.4036 72.6993L66.4587 73.7859L65.3721 77.841Z" fill="#1B1B1B"/>
<path fill-rule="evenodd" clip-rule="evenodd" d="M77.4647 85.4274L64.2855 81.8961L65.3721 77.8409L78.5512 81.3723L77.4647 85.4274Z" fill="#1B1B1B"/>
<path fill-rule="evenodd" clip-rule="evenodd" d="M84.9026 73.0779L80.8475 71.9913L81.9341 67.9362L85.9892 69.0227L84.9026 73.0779Z" fill="#1B1B1B"/>
<path fill-rule="evenodd" clip-rule="evenodd" d="M82.4036 82.4046L78.3485 81.3181L79.4351 77.2629L83.4902 78.3495L82.4036 82.4046Z" fill="#1B1B1B"/>
<path fill-rule="evenodd" clip-rule="evenodd" d="M56.2469 87.5656L52.1918 86.4791L53.2783 82.424L57.3335 83.5105L56.2469 87.5656Z" fill="#1B1B1B"/>
<path fill-rule="evenodd" clip-rule="evenodd" d="M85.4439 95.3889L81.3888 94.3023L82.4753 90.2472L86.5305 91.3338L85.4439 95.3889Z" fill="#1B1B1B"/>
<path fill-rule="evenodd" clip-rule="evenodd" d="M97.3224 67.2784L90.5856 92.4202L86.5305 91.3336L93.2672 66.1918L97.3224 67.2784Z" fill="#1B1B1B"/>
<path fill-rule="evenodd" clip-rule="evenodd" d="M60.0152 57.2819L53.2785 82.4237L49.2234 81.3372L55.9601 56.1954L60.0152 57.2819Z" fill="#1B1B1B"/>
</svg>
