<svg width="39" height="39" viewBox="0 0 39 39" fill="none" xmlns="http://www.w3.org/2000/svg">
<path d="M27.4496 35.2837C27.5825 35.777 28.2824 35.777 28.4152 35.2837L29.6477 30.7062C29.7867 30.1899 30.1899 29.7867 30.7062 29.6477L35.2837 28.4152C35.777 28.2824 35.777 27.5825 35.2837 27.4496L30.7062 26.2171C30.1899 26.0781 29.7867 25.6749 29.6477 25.1587L28.4152 20.5812C28.2824 20.0878 27.5825 20.0878 27.4496 20.5812L26.2171 25.1587C26.0782 25.6749 25.6749 26.0781 25.1587 26.2171L20.5812 27.4496C20.0878 27.5825 20.0878 28.2824 20.5812 28.4152L25.1587 29.6477C25.6749 29.7867 26.0782 30.1899 26.2171 30.7062L27.4496 35.2837Z" fill="#F28B9D" stroke="#1B1B1B"/>
<path d="M10.5833 32.999C10.712 33.4997 11.4231 33.4997 11.5518 32.999L12.7879 28.1897C12.9209 27.6722 13.3191 27.2645 13.8334 27.1195L18.5873 25.7785C19.073 25.6415 19.073 24.9531 18.5873 24.8161L13.8334 23.4752C13.3191 23.3301 12.9209 22.9224 12.7879 22.4049L11.5518 17.5956C11.4231 17.0949 10.712 17.0949 10.5833 17.5956L9.34728 22.4049C9.21427 22.9224 8.81599 23.3301 8.30171 23.4752L3.54782 24.8161C3.06214 24.9531 3.06214 25.6415 3.54782 25.7785L8.30171 27.1195C8.81599 27.2645 9.21427 27.6722 9.34728 28.1897L10.5833 32.999Z" fill="#F8B7C2" stroke="#1B1B1B"/>
<path d="M21.6539 18.5873C21.7909 19.073 22.4793 19.073 22.6163 18.5873L23.9573 13.8334C24.1023 13.3191 24.51 12.9209 25.0276 12.7879L29.8368 11.5518C30.3375 11.4231 30.3375 10.712 29.8368 10.5833L25.0276 9.34727C24.51 9.21426 24.1023 8.81598 23.9573 8.3017L22.6163 3.54782C22.4793 3.06214 21.7909 3.06214 21.6539 3.54782L20.313 8.3017C20.1679 8.81598 19.7602 9.21426 19.2427 9.34727L14.4334 10.5833C13.9327 10.712 13.9327 11.4231 14.4334 11.5518L19.2427 12.7879C19.7602 12.9209 20.1679 13.3191 20.313 13.8334L21.6539 18.5873Z" fill="#F8B7C2" stroke="#1B1B1B"/>
</svg>
