<svg width="106" height="104" viewBox="0 0 106 104" fill="none" xmlns="http://www.w3.org/2000/svg">
<path d="M53 0L63.0501 26.1075L87.5933 12.5439L78.4476 38.9794L106 44.3063L81.938 58.7002L99.6074 80.4251L71.8879 76.0425L71.4067 104L53 82.8915L34.5933 104L34.1121 76.0425L6.39258 80.4251L24.062 58.7002L0 44.3063L27.5523 38.9794L18.4067 12.5439L42.9499 26.1075L53 0Z" fill="white"/>
<path d="M44.8769 39.8898L41.1851 43.1343L37.265 57.7642L41.4419 64.9986L56.657 69.0755L60.4349 67.2653L63.8914 64.8987L67.7646 48.6882L65.7011 44.6856L63.7523 42.5954L48.5372 38.5185L44.8769 39.8898Z" fill="#E7C63C"/>
<path fill-rule="evenodd" clip-rule="evenodd" d="M65.0872 44.0507L46.9461 39.1898L47.7301 36.2639L65.8712 41.1247L65.0872 44.0507Z" fill="#1B1B1B"/>
<path fill-rule="evenodd" clip-rule="evenodd" d="M57.8743 70.9697L39.7332 66.1088L40.5172 63.1828L58.6583 68.0437L57.8743 70.9697Z" fill="#1B1B1B"/>
<path fill-rule="evenodd" clip-rule="evenodd" d="M67.2291 47.7607L64.3031 46.9767L65.0872 44.0507L68.0131 44.8347L67.2291 47.7607Z" fill="#1B1B1B"/>
<path fill-rule="evenodd" clip-rule="evenodd" d="M46.1621 42.1158L43.2361 41.3318L44.0201 38.4058L46.9461 39.1898L46.1621 42.1158Z" fill="#1B1B1B"/>
<path fill-rule="evenodd" clip-rule="evenodd" d="M48.9047 49.4364L45.9787 48.6524L46.7627 45.7264L49.6887 46.5104L48.9047 49.4364Z" fill="#1B1B1B"/>
<path fill-rule="evenodd" clip-rule="evenodd" d="M47.1014 56.1661L44.1755 55.3821L44.9595 52.4561L47.8855 53.2402L47.1014 56.1661Z" fill="#1B1B1B"/>
<path fill-rule="evenodd" clip-rule="evenodd" d="M55.8268 61.6402L46.3174 59.0921L47.1014 56.1661L56.6108 58.7142L55.8268 61.6402Z" fill="#1B1B1B"/>
<path fill-rule="evenodd" clip-rule="evenodd" d="M61.1937 52.7292L58.2677 51.9452L59.0518 49.0193L61.9777 49.8033L61.1937 52.7292Z" fill="#1B1B1B"/>
<path fill-rule="evenodd" clip-rule="evenodd" d="M59.3905 59.459L56.4645 58.675L57.2485 55.749L60.1745 56.533L59.3905 59.459Z" fill="#1B1B1B"/>
<path fill-rule="evenodd" clip-rule="evenodd" d="M40.5172 63.1828L37.5912 62.3988L38.3752 59.4728L41.3012 60.2569L40.5172 63.1828Z" fill="#1B1B1B"/>
<path fill-rule="evenodd" clip-rule="evenodd" d="M61.5842 68.8277L58.6582 68.0437L59.4423 65.1177L62.3682 65.9018L61.5842 68.8277Z" fill="#1B1B1B"/>
<path fill-rule="evenodd" clip-rule="evenodd" d="M70.1551 48.5447L65.2943 66.6857L62.3683 65.9017L67.2292 47.7607L70.1551 48.5447Z" fill="#1B1B1B"/>
<path fill-rule="evenodd" clip-rule="evenodd" d="M43.2361 41.3318L38.3753 59.4729L35.4493 58.6888L40.3102 40.5478L43.2361 41.3318Z" fill="#1B1B1B"/>
</svg>
