<svg width="27" height="26" viewBox="0 0 27 26" fill="none" xmlns="http://www.w3.org/2000/svg">
<path d="M5.53503 11.3987L8.68306 10.7658C9.23636 10.6546 9.71692 10.3148 10.0062 9.8302L11.8515 6.73898L12.4337 5.76363C13.2096 4.46379 15.0924 4.46379 15.8683 5.76363L18.2958 9.8302C18.5851 10.3148 19.0656 10.6546 19.6189 10.7658L22.767 11.3987C24.3299 11.7129 24.915 13.6399 23.7906 14.77L21.0348 17.54C20.5649 18.0123 20.3611 18.6875 20.4911 19.3409L21.017 21.9839C21.342 23.6172 19.6453 24.909 18.1573 24.1612L15.0491 22.5991C14.484 22.3152 13.818 22.3152 13.2529 22.5991L10.1447 24.1612C8.6567 24.909 6.96003 23.6172 7.28502 21.9839L7.81092 19.3409C7.94093 18.6875 7.73707 18.0123 7.2672 17.54L4.51137 14.77C3.387 13.6399 3.97211 11.7129 5.53503 11.3987Z" fill="#DAD7FF"/>
<path d="M17.2676 7.43086L16.4089 7.94342L17.2676 7.43086L14.8401 3.36428C13.6762 1.41453 10.8521 1.41453 9.6882 3.36428L9.10597 4.33964L7.2607 7.43086C7.11607 7.67316 6.87579 7.84307 6.59914 7.89868L3.45111 8.53152C1.10673 9.0028 0.229058 11.8934 1.91561 13.5886L4.67144 16.3585C4.90638 16.5947 5.00831 16.9323 4.9433 17.259L4.4174 19.902C3.92992 22.3519 6.47493 24.2896 8.70686 23.168L11.8151 21.6059C12.0976 21.4639 12.4307 21.4639 12.7132 21.6059L15.8214 23.168C18.0534 24.2896 20.5984 22.3519 20.1109 19.902L19.585 17.259C19.52 16.9323 19.6219 16.5947 19.8569 16.3585L22.6127 13.5886C24.2992 11.8934 23.4216 9.0028 21.0772 8.53152L17.9292 7.89868C17.6525 7.84307 17.4122 7.67315 17.2676 7.43086Z" fill="#F9DF70" stroke="#763B28" stroke-width="2" stroke-linecap="round" stroke-linejoin="round"/>
<path fill-rule="evenodd" clip-rule="evenodd" d="M5.54993 21.3477C6.00385 22.2925 7.18507 22.8135 8.25781 22.2744L11.3661 20.7123C11.9311 20.4283 12.5972 20.4283 13.1622 20.7123L16.2705 22.2744C17.7584 23.0222 19.4551 21.7303 19.1301 20.0971L18.6042 17.4541C18.4742 16.8007 18.6781 16.1255 19.1479 15.6532L21.9038 12.8832C22.908 11.8738 22.5485 10.2287 21.3467 9.66484C21.6877 10.3825 21.6048 11.292 20.9604 11.9398L18.2045 14.7098C17.7347 15.1821 17.5308 15.8573 17.6608 16.5107L18.1867 19.1537C18.5117 20.7869 16.815 22.0788 15.3271 21.331L12.2188 19.7689C11.6538 19.4849 10.9877 19.4849 10.4227 19.7689L7.31441 21.331C6.71099 21.6343 6.07324 21.6021 5.54993 21.3477ZM16.3072 7.773L13.9814 3.87679C13.7683 3.51977 13.4717 3.26081 13.1375 3.09991L15.4655 6.99997C15.6668 7.33715 15.9607 7.60423 16.3072 7.773Z" fill="#E7C63C"/>
<path d="M2.12268 10.6698L8.49061 9.4906L12.0283 3.35852" stroke="white" stroke-width="2" stroke-linecap="round" stroke-linejoin="round"/>
</svg>
